<svg xmlns="http://www.w3.org/2000/svg" width="19.053" height="11.882" viewBox="0 0 19.053 11.882">
  <g id="Group_127" data-name="Group 127" transform="translate(-673 -852.78)">
    <g id="noun_Arrow_2513134" transform="translate(672.815 842.285)">
      <path id="Path_112" data-name="Path 112" d="M19.043,12.382a.674.674,0,0,0-.952,0L9.72,20.768,1.334,12.382a.673.673,0,1,0-.952.952L9.228,22.18a.657.657,0,0,0,.476.2.685.685,0,0,0,.476-.2l8.846-8.846A.659.659,0,0,0,19.043,12.382Z" transform="translate(0 0)"/>
    </g>
    <g id="noun_Arrow_2513134-2" data-name="noun_Arrow_2513134" transform="translate(676.873 840.595)">
      <path id="Path_112-2" data-name="Path 112" d="M11.067,12.3a.389.389,0,0,0-.549,0l-4.83,4.84L.848,12.3a.388.388,0,0,0-.549.549L5.4,17.953a.379.379,0,0,0,.275.114.4.4,0,0,0,.275-.114l5.105-5.105A.381.381,0,0,0,11.067,12.3Z" transform="translate(0 0)" fill="#4bbfd5"/>
    </g>
  </g>
</svg>
