<svg xmlns="http://www.w3.org/2000/svg" width="72.335" height="72.335" viewBox="0 0 72.335 72.335">
  <path id="noun_call_1355711" d="M27.015,1.3A25.715,25.715,0,1,0,52.731,27.015,25.713,25.713,0,0,0,27.015,1.3ZM30.87,39.477A25.652,25.652,0,0,1,16.4,20.52c-.422-3.591,5.808-6.759,5.808-6.759l3.907,6.653s-4.224,2.271-3.643,3.485c3.115,6.548,7.128,8.977,7.128,8.977,1.32.475,4.224-2.746,4.224-2.746l5.6,5.28C39.477,35.411,34.777,41.378,30.87,39.477Z" transform="matrix(-0.629, 0.777, -0.777, -0.629, 74.164, 32.174)" fill="#ff3434"/>
</svg>
