<svg xmlns="http://www.w3.org/2000/svg" width="23.293" height="14.284" viewBox="0 0 23.293 14.284">
  <g id="Group_128" data-name="Group 128" transform="translate(-671.707 -364.612)">
    <path id="Path_82" data-name="Path 82" d="M330.122,283.333l.686-3.255a5.516,5.516,0,0,1,5.4-4.376h0a5.515,5.515,0,0,1,5.4,6.652l-.687,3.254a5.514,5.514,0,0,1-5.4,4.378h0A5.515,5.515,0,0,1,330.122,283.333Z" transform="translate(353.279 88.91)" fill="#001028"/>
    <path id="Path_83" data-name="Path 83" d="M330.122,283.333l.686-3.255a5.516,5.516,0,0,1,5.4-4.376h0a5.515,5.515,0,0,1,5.4,6.652l-.687,3.254a5.514,5.514,0,0,1-5.4,4.378h0A5.515,5.515,0,0,1,330.122,283.333Z" transform="translate(341.706 88.91)" fill="#4bab54"/>
  </g>
</svg>
