<svg xmlns="http://www.w3.org/2000/svg" xmlns:xlink="http://www.w3.org/1999/xlink" width="37" height="22.453" viewBox="0 0 37 22.453">
  <defs>
    <linearGradient id="linear-gradient" x1="0.5" x2="0.5" y2="1" gradientUnits="objectBoundingBox">
      <stop offset="0" stop-color="#001028"/>
      <stop offset="1" stop-color="#4bbfd5"/>
    </linearGradient>
  </defs>
  <g id="noun_Gym_835260" transform="translate(-5 -22.692)">
    <path id="Path_10" data-name="Path 10" d="M40.239,31.276V27.511a2.564,2.564,0,0,0-2.562-2.562h-.1l-.085,0a3.057,3.057,0,0,0-2.947-2.259h-.126a3.054,3.054,0,0,0-3.051,3.051v5.313H15.631V25.743a3.055,3.055,0,0,0-3.051-3.051h-.126a3.057,3.057,0,0,0-2.947,2.259l-.085,0h-.1a2.564,2.564,0,0,0-2.562,2.562v3.765a2.863,2.863,0,0,0,0,5.284v3.765a2.564,2.564,0,0,0,2.562,2.562h.1l.085,0a3.057,3.057,0,0,0,2.947,2.259h.126a3.054,3.054,0,0,0,3.051-3.051V36.781H31.369v5.313a3.055,3.055,0,0,0,3.051,3.051h.126a3.057,3.057,0,0,0,2.947-2.259l.085,0h.1a2.564,2.564,0,0,0,2.562-2.562V36.561a2.863,2.863,0,0,0,0-5.284ZM6.761,35.667a2.058,2.058,0,0,1,0-3.5Zm2.757,6.427c-.032,0-.064.006-.1.006h-.1a1.774,1.774,0,0,1-1.774-1.774V35.968h0v-4.1h0V27.511a1.774,1.774,0,0,1,1.774-1.774h.1c.039,0,.077,0,.116.007H9.4V42.094h.118Zm5.326-6.1v6.1a2.264,2.264,0,0,1-2.264,2.264h-.126a2.264,2.264,0,0,1-2.264-2.264v-.175h0v-16h0v-.175a2.264,2.264,0,0,1,2.264-2.264h.126a2.264,2.264,0,0,1,2.264,2.264v10.25Zm10.274,0H15.631V31.843H31.37v4.151Zm11.693,5.925h0v.175a2.264,2.264,0,0,1-2.264,2.264h-.126a2.264,2.264,0,0,1-2.264-2.264V25.743a2.264,2.264,0,0,1,2.264-2.264h.126a2.264,2.264,0,0,1,2.264,2.264v.175h0Zm2.641-5.952h0v4.359A1.774,1.774,0,0,1,37.678,42.1H37.6V25.743s0,0,0-.007h.081a1.774,1.774,0,0,1,1.774,1.774V31.87h0Zm.787-.3v-3.5a2.057,2.057,0,0,1,0,3.5Z" transform="translate(0)" fill="url(#linear-gradient)"/>
  </g>
</svg>
