<svg xmlns="http://www.w3.org/2000/svg" width="13.429" height="13.422" viewBox="0 0 13.429 13.422">
  <g id="noun_live_1178704" transform="translate(-2 -2)">
    <path id="Path_56" data-name="Path 56" d="M10.476,14.393A3.917,3.917,0,1,0,6.56,10.476,3.917,3.917,0,0,0,10.476,14.393Zm0,.56a4.476,4.476,0,1,1,4.476-4.476A4.476,4.476,0,0,1,10.476,14.953Z" transform="translate(-1.762 -1.762)" fill="#fd3433"/>
    <path id="Path_57" data-name="Path 57" d="M12.238,13.357a1.119,1.119,0,1,0-1.119-1.119A1.119,1.119,0,0,0,12.238,13.357Zm0,1.119a2.238,2.238,0,1,1,2.238-2.238A2.238,2.238,0,0,1,12.238,14.476Z" transform="translate(-3.524 -3.524)" fill="#fd3433"/>
    <path id="Path_58" data-name="Path 58" d="M9.668,15.351a.285.285,0,1,1,.285-.285A.285.285,0,0,1,9.668,15.351Zm-1.027.067a.285.285,0,1,1,.326-.237A.285.285,0,0,1,8.641,15.418Zm-1.025-.09a.285.285,0,1,1,.359-.183A.285.285,0,0,1,7.616,15.328Zm-.995-.244A.285.285,0,1,1,7,14.953.285.285,0,0,1,6.621,15.084Zm-.95-.4a.285.285,0,1,1,.4-.07A.285.285,0,0,1,5.67,14.689Zm-.879-.536a.285.285,0,1,1,.4-.007A.285.285,0,0,1,4.791,14.153ZM4,13.489a.285.285,0,1,1,.4.056A.285.285,0,0,1,4,13.489Zm-.674-.772a.285.285,0,1,1,.387.111A.285.285,0,0,1,3.331,12.717Zm-.55-.87a.285.285,0,1,1,.365.17A.285.285,0,0,1,2.781,11.847ZM2.37,10.9a.285.285,0,1,1,.334.225A.285.285,0,0,1,2.37,10.9Zm-.262-1a.285.285,0,1,1,.295.275A.285.285,0,0,1,2.109,9.908ZM2,8.884A.285.285,0,1,1,2.25,9.2.285.285,0,0,1,2,8.884Zm.05-1.023a.285.285,0,1,1,.2.349A.285.285,0,0,1,2.052,7.861Zm.207-1.008a.285.285,0,1,1,.144.376A.285.285,0,0,1,2.259,6.853Zm.359-.965a.285.285,0,1,1,.084.394A.285.285,0,0,1,2.618,5.888Zm.5-.9a.285.285,0,1,1,.021.4A.285.285,0,0,1,3.12,4.989Zm.629-.808a.285.285,0,1,1-.035.4A.285.285,0,0,1,3.749,4.181ZM4.5,3.475a.285.285,0,1,1-.1.391A.285.285,0,0,1,4.5,3.475Zm.848-.583a.285.285,0,1,1-.157.371A.285.285,0,0,1,5.347,2.892Zm.927-.446a.285.285,0,1,1-.214.342A.285.285,0,0,1,6.274,2.446Zm.985-.3a.285.285,0,1,1-.264.3A.285.285,0,0,1,7.259,2.147ZM8.273,2a.285.285,0,1,1-.3.264A.285.285,0,0,1,8.273,2ZM9.3,2.012a.285.285,0,1,1-.342.214A.285.285,0,0,1,9.3,2.012Zm1.015.168a.285.285,0,1,1-.371.157A.285.285,0,0,1,10.318,2.18ZM11.3,2.5a.285.285,0,1,1-.391.1A.285.285,0,0,1,11.3,2.5Zm.917.467a.285.285,0,1,1-.4.035A.285.285,0,0,1,12.213,2.969Zm.832.6a.285.285,0,1,1-.4-.021A.285.285,0,0,1,13.045,3.567Zm.734.722a.285.285,0,1,1-.394-.084A.285.285,0,0,1,13.778,4.289Zm.615.826a.285.285,0,1,1-.376-.144A.285.285,0,0,1,14.393,5.115Zm.481.91a.285.285,0,1,1-.349-.2A.285.285,0,0,1,14.875,6.024Zm.336.968a.285.285,0,1,1-.318-.248A.285.285,0,0,1,15.211,6.992ZM15.4,8a.285.285,0,1,1-.275-.295A.285.285,0,0,1,15.4,8Zm.028,1.029A.285.285,0,1,1,15.2,8.7.285.285,0,0,1,15.424,9.034Zm-.13,1.021a.285.285,0,1,1-.17-.365A.285.285,0,0,1,15.294,10.055Zm-.284.989a.285.285,0,1,1-.111-.387A.285.285,0,0,1,15.01,11.044Zm-.429.93a.285.285,0,1,1-.056-.4A.285.285,0,0,1,14.581,11.974Zm-.569.858a.285.285,0,1,1,.007-.4A.285.285,0,0,1,14.012,12.832Zm-.693.761a.285.285,0,1,1,.07-.4A.285.285,0,0,1,13.319,13.593Zm-.8.646a.285.285,0,1,1,.131-.381A.285.285,0,0,1,12.518,14.239Zm-.886.514a.285.285,0,1,1,.183-.359A.285.285,0,0,1,11.632,14.753Zm-.959.374a.285.285,0,1,1,.237-.326A.285.285,0,0,1,10.673,15.128Z" transform="translate(0 0)" fill="#fd3433" fill-rule="evenodd"/>
  </g>
</svg>
