<svg xmlns="http://www.w3.org/2000/svg" width="80" height="32.699" viewBox="0 0 80 32.699">
  <g id="Group_2" data-name="Group 2" transform="translate(-274.654 -248.966)">
    <path id="Path_1" data-name="Path 1" d="M278.524,254.5a3.949,3.949,0,0,1,3.863-3.128h9.967a3.694,3.694,0,0,1,1.824.434,4.091,4.091,0,0,1,1.3,1.129,4.885,4.885,0,0,1,.782,1.615,6.872,6.872,0,0,1-.069,3.977,7.862,7.862,0,0,1-.938,1.963,8.171,8.171,0,0,1-1.494,1.685l-.065.055a1.513,1.513,0,0,0-.072,2.245,4.156,4.156,0,0,1,.536.652,5.516,5.516,0,0,1,.834,3.126,7.052,7.052,0,0,1-.8,3.439,7.214,7.214,0,0,1-2.119,2.414A9.514,9.514,0,0,1,289,275.544a13.513,13.513,0,0,1-3.63.486h-7.691a3.026,3.026,0,0,1-2.96-3.656Zm7.89,16.707a2.632,2.632,0,0,0,1.094-.243,2.918,2.918,0,0,0,.956-.695,3.387,3.387,0,0,0,.9-2.362,2.454,2.454,0,0,0-.434-1.493,1.372,1.372,0,0,0-1.163-.591h-4.754a1.5,1.5,0,0,0-1.468,1.2l-.493,2.386a1.5,1.5,0,0,0,1.468,1.8Zm1.39-9.865a2.578,2.578,0,0,0,.99-.208,2.762,2.762,0,0,0,.9-.608,2.957,2.957,0,0,0,.643-1.007,3.773,3.773,0,0,0,.243-1.407,2.076,2.076,0,0,0-.417-1.389,1.353,1.353,0,0,0-1.077-.486h-4.03a1.5,1.5,0,0,0-1.466,1.19l-.445,2.108a1.5,1.5,0,0,0,1.467,1.808Z" transform="translate(0 -1.359)" fill="#4bab54"/>
    <path id="Path_2" data-name="Path 2" d="M330.05,278.782l.277-1.314A2.227,2.227,0,0,1,332.5,275.7h0a2.226,2.226,0,0,1,2.179,2.685l-.277,1.314a2.226,2.226,0,0,1-2.178,1.767h0A2.226,2.226,0,0,1,330.05,278.782Z" transform="translate(-31.64 -15.305)" fill="#001028"/>
    <g id="Group_1" data-name="Group 1" transform="translate(303.07 248.966)">
      <path id="Path_3" data-name="Path 3" d="M351.665,249.766h-4.078a.723.723,0,0,0-.708.573l-4.29,20.234q-.07.417-.122.764a4.687,4.687,0,0,0-.052.695,3.163,3.163,0,0,0,1.007,2.536,4.466,4.466,0,0,0,2.987.868,13.056,13.056,0,0,0,2.536-.278,12.771,12.771,0,0,0,2.058-.583.724.724,0,0,0,.463-.646l.108-2.593a.737.737,0,0,0-.909-.746,3.81,3.81,0,0,1-.886.122,1.182,1.182,0,0,1-1.32-1.355c0-.115.005-.237.017-.365a3.35,3.35,0,0,1,.052-.365l3.843-17.987A.724.724,0,0,0,351.665,249.766Z" transform="translate(-342.416 -249.419)" fill="#001028"/>
      <path id="Path_4" data-name="Path 4" d="M373.938,266.175h-.408a2.507,2.507,0,0,0-2.463,1.949l-2.816,12.907a2.478,2.478,0,0,0,2.463,2.976h.408a2.506,2.506,0,0,0,2.463-1.949l2.816-12.907A2.478,2.478,0,0,0,373.938,266.175Z" transform="translate(-357.008 -258.707)" fill="#001028"/>
      <path id="Path_5" data-name="Path 5" d="M380.644,254.8h.407a2.519,2.519,0,0,0,0-5.037h-.407a2.519,2.519,0,0,0,0,5.037Z" transform="translate(-362.628 -249.419)" fill="#001028"/>
      <path id="Path_6" data-name="Path 6" d="M401.336,261.279l.522-2.4a.877.877,0,0,0-.865-1.058H399.2a.877.877,0,0,1-.864-1.066l.14-.616q.521-2.539,2.4-2.539a4.816,4.816,0,0,1,1.147.154q.192.048.368.1a.883.883,0,0,0,1.063-.471l1.18-2.543a.871.871,0,0,0-.479-1.178,9.749,9.749,0,0,0-3.521-.7,6.872,6.872,0,0,0-2.64.514,7.471,7.471,0,0,0-2.275,1.475,8.881,8.881,0,0,0-1.754,2.333,11.349,11.349,0,0,0-1.077,3.054l-.165.781a.883.883,0,0,1-.867.695H391.1a.883.883,0,0,0-.865.691l-.523,2.4a.878.878,0,0,0,.866,1.058.877.877,0,0,1,.865,1.056l-3.783,17.583a.877.877,0,0,0,.866,1.056h3.748a.883.883,0,0,0,.866-.693l3.94-18.31a.883.883,0,0,1,.866-.693h2.528A.883.883,0,0,0,401.336,261.279Z" transform="translate(-368.013 -248.966)" fill="#001028"/>
      <path id="Path_7" data-name="Path 7" d="M426.34,276.389q5.419,0,8.128-1.5a4.777,4.777,0,0,0,2.71-4.419,4.417,4.417,0,0,0-1.789-3.773,8.161,8.161,0,0,0-4.95-1.326A12.114,12.114,0,0,0,422.1,268.6a10.853,10.853,0,0,0-2.5,3.5,10.22,10.22,0,0,0-.9,4.249,8.678,8.678,0,0,0,.521,3.06,6.543,6.543,0,0,0,1.511,2.38,7.008,7.008,0,0,0,2.414,1.547,8.665,8.665,0,0,0,3.2.561,11.464,11.464,0,0,0,2.761-.34,12.1,12.1,0,0,0,2.605-.969,12.275,12.275,0,0,0,2.276-1.5l.02-.017a1.522,1.522,0,0,0-.562-2.622l-.19-.059a3.114,3.114,0,0,0-2.875.536,4.76,4.76,0,0,1-3.028,1.057,2.551,2.551,0,0,1-2.223-.918,4.644,4.644,0,0,1-.66-2.72q.486.034.955.034Zm.5-6.051a3.812,3.812,0,0,1,2.692-1.054,2.854,2.854,0,0,1,1.65.442,1.4,1.4,0,0,1,.643,1.223,1.67,1.67,0,0,1-1.216,1.564,12.331,12.331,0,0,1-4.272.51h-1.251A7.059,7.059,0,0,1,426.843,270.338Z" transform="translate(-385.593 -258.254)" fill="#001028"/>
    </g>
  </g>
</svg>
