<svg xmlns="http://www.w3.org/2000/svg" xmlns:xlink="http://www.w3.org/1999/xlink" width="22.453" height="22.453" viewBox="0 0 22.453 22.453">
  <defs>
    <linearGradient id="linear-gradient" x1="0.5" x2="0.5" y2="1" gradientUnits="objectBoundingBox">
      <stop offset="0" stop-color="#001028"/>
      <stop offset="1" stop-color="#4bbfd5"/>
    </linearGradient>
  </defs>
  <g id="noun_medical_1834333" transform="translate(-10 -9.646)">
    <path id="Path_68" data-name="Path 68" d="M21.227,9.646a11.161,11.161,0,0,0-6.4,2.013H12.444a.281.281,0,1,0,0,.561h1.637A11.22,11.22,0,0,0,27.807,29.96h2.38a.281.281,0,0,0,0-.561H28.517A11.219,11.219,0,0,0,21.227,9.646Zm6.795,19.441V27.234a.281.281,0,1,0-.561,0v2.284a10.658,10.658,0,0,1-12.851-17v1.868a.281.281,0,1,0,.561,0V12.1A10.66,10.66,0,0,1,28.021,29.086Z" transform="translate(0 0)" fill="url(#linear-gradient)"/>
    <path id="Path_69" data-name="Path 69" d="M42.05,34.79H39.493V32.226a.282.282,0,0,0-.282-.282H35.5a.282.282,0,0,0-.282.282V34.79H32.666a.282.282,0,0,0-.282.282v3.716a.282.282,0,0,0,.282.282h2.556v2.564a.282.282,0,0,0,.282.282h3.706a.282.282,0,0,0,.282-.282V39.071H42.05a.282.282,0,0,0,.282-.282V35.072A.282.282,0,0,0,42.05,34.79Zm-.282,3.716H39.211a.282.282,0,0,0-.282.282v2.564H35.787V38.789a.282.282,0,0,0-.282-.282H32.949V35.355H35.5a.282.282,0,0,0,.282-.282V32.508h3.141v2.564a.282.282,0,0,0,.282.282h2.556Z" transform="translate(-16.131 -16.069)" fill="url(#linear-gradient)"/>
  </g>
</svg>
