<svg xmlns="http://www.w3.org/2000/svg" width="37" height="37" viewBox="0 0 37 37">
  <g id="Group_120" data-name="Group 120" transform="translate(-728 -490)">
    <circle id="Ellipse_3" data-name="Ellipse 3" cx="18.5" cy="18.5" r="18.5" transform="translate(728 490)" fill="#fff"/>
    <g id="noun_chat_711327" transform="translate(725 -464.637)">
      <path id="Path_12" data-name="Path 12" d="M14.918,964.381A1.925,1.925,0,0,0,13,966.3v9.593a1.925,1.925,0,0,0,1.918,1.918h1.626l-.435,4.264a.48.48,0,0,0,.809.39l4.669-4.654h7.239a1.925,1.925,0,0,0,1.918-1.918V966.3a1.925,1.925,0,0,0-1.918-1.918H14.918Zm0,.959H28.828a.947.947,0,0,1,.959.959v9.593a.947.947,0,0,1-.959.959H21.393a.48.48,0,0,0-.337.135L17.2,980.831l.36-3.455a.48.48,0,0,0-.48-.525H14.918a.947.947,0,0,1-.959-.959V966.3A.947.947,0,0,1,14.918,965.341ZM16.6,967.5a.48.48,0,1,0,0,.959H27.149a.48.48,0,1,0,0-.959Zm0,3.117a.48.48,0,0,0,0,.959H27.149a.48.48,0,0,0,0-.959Zm0,3.118a.48.48,0,1,0,0,.959H27.149a.48.48,0,1,0,0-.959Z" transform="translate(0 0)" fill="#001028"/>
    </g>
  </g>
</svg>
