<svg xmlns="http://www.w3.org/2000/svg" width="4.929" height="6.298" viewBox="0 0 4.929 6.298">
  <g id="noun_change_3322894" transform="translate(-18.03 -14.151)">
    <path id="Path_101" data-name="Path 101" d="M18.03,15.892a.265.265,0,0,1,.265-.265h3.761L21.03,14.6a.265.265,0,1,1,.374-.374l1.477,1.477a.265.265,0,0,1-.187.452h-4.4A.265.265,0,0,1,18.03,15.892Zm4.665,2.55h-4.4a.265.265,0,0,0-.187.452l1.477,1.477A.265.265,0,1,0,19.959,20l-1.026-1.026h3.761a.265.265,0,1,0,0-.529Z" fill="#fff"/>
  </g>
</svg>
