<svg xmlns="http://www.w3.org/2000/svg" width="37" height="37" viewBox="0 0 37 37">
  <g id="Group_119" data-name="Group 119" transform="translate(-602 -490)">
    <circle id="Ellipse_2" data-name="Ellipse 2" cx="18.5" cy="18.5" r="18.5" transform="translate(602 490)" fill="#fff"/>
    <g id="noun_Microphone_3267397" transform="translate(613.993 498.215)">
      <path id="Path_5" data-name="Path 5" d="M10.728,159.7a.669.669,0,0,1,.647-.7.714.714,0,0,1,.7.7v1.509a6.112,6.112,0,0,1-5.337,6.038v2.264a.7.7,0,0,1-1.4,0v-2.264A6.112,6.112,0,0,1,0,161.21V159.7a.714.714,0,0,1,.7-.7.669.669,0,0,1,.647.7v1.509a4.69,4.69,0,0,0,9.38,0Z" transform="translate(0 -150.428)" fill="#001028"/>
      <path id="Path_6" data-name="Path 6" d="M51.45,0A3.474,3.474,0,0,1,54.9,3.45v7.332a3.45,3.45,0,0,1-6.9,0V3.45A3.474,3.474,0,0,1,51.45,0Zm0,1.348a2.141,2.141,0,0,0-2.1,2.1v7.332a2.1,2.1,0,0,0,4.2,0V3.45A2.141,2.141,0,0,0,51.45,1.348Z" transform="translate(-45.412)" fill="#001028"/>
    </g>
  </g>
</svg>
