<svg xmlns="http://www.w3.org/2000/svg" width="38" height="16" viewBox="0 0 38 16">
  <g id="Group_121" data-name="Group 121" transform="translate(-1130 -134)">
    <g id="noun_grid_2885837" transform="translate(1119 123)">
      <path id="Path_64" data-name="Path 64" d="M16.836,11H12.4A1.4,1.4,0,0,0,11,12.4v4.434a1.4,1.4,0,0,0,1.4,1.4h4.434a1.4,1.4,0,0,0,1.4-1.4V12.4A1.4,1.4,0,0,0,16.836,11Zm.64,5.836a.644.644,0,0,1-.64.64H12.4a.644.644,0,0,1-.64-.64V12.4a.644.644,0,0,1,.64-.64h4.434a.644.644,0,0,1,.64.64Z" fill="#001028"/>
      <path id="Path_65" data-name="Path 65" d="M39.836,11H35.4A1.4,1.4,0,0,0,34,12.4v4.434a1.4,1.4,0,0,0,1.4,1.4h4.434a1.4,1.4,0,0,0,1.4-1.4V12.4A1.4,1.4,0,0,0,39.836,11Zm.64,5.836a.64.64,0,0,1-.64.64H35.4a.64.64,0,0,1-.64-.64V12.4a.64.64,0,0,1,.64-.64h4.434a.64.64,0,0,1,.64.64Z" transform="translate(-14.238)" fill="#001028"/>
      <path id="Path_66" data-name="Path 66" d="M16.836,34H12.4A1.4,1.4,0,0,0,11,35.4v4.434a1.4,1.4,0,0,0,1.4,1.4h4.434a1.4,1.4,0,0,0,1.4-1.4V35.4A1.4,1.4,0,0,0,16.836,34Zm.64,5.836a.644.644,0,0,1-.64.64H12.4a.644.644,0,0,1-.64-.64V35.4a.644.644,0,0,1,.64-.64h4.434a.644.644,0,0,1,.64.64Z" transform="translate(0 -14.238)" fill="#001028"/>
      <path id="Path_67" data-name="Path 67" d="M39.836,34H35.4A1.4,1.4,0,0,0,34,35.4v4.434a1.4,1.4,0,0,0,1.4,1.4h4.434a1.4,1.4,0,0,0,1.4-1.4V35.4A1.4,1.4,0,0,0,39.836,34Zm.64,5.836a.64.64,0,0,1-.64.64H35.4a.64.64,0,0,1-.64-.64V35.4a.64.64,0,0,1,.64-.64h4.434a.64.64,0,0,1,.64.64Z" transform="translate(-14.238 -14.238)" fill="#001028"/>
    </g>
    <g id="Rectangle_28" data-name="Rectangle 28" transform="translate(1152 134)" fill="none" stroke="#001028" stroke-width="1">
      <rect width="16" height="16" rx="2" stroke="none"/>
      <rect x="0.5" y="0.5" width="15" height="15" rx="1.5" fill="none"/>
    </g>
  </g>
</svg>
