<svg xmlns="http://www.w3.org/2000/svg" xmlns:xlink="http://www.w3.org/1999/xlink" width="53" height="53" viewBox="0 0 53 53">
  <defs>
    <filter id="Ellipse_2" x="0" y="0" width="53" height="53" filterUnits="userSpaceOnUse">
      <feOffset dy="3" input="SourceAlpha"/>
      <feGaussianBlur stdDeviation="3" result="blur"/>
      <feFlood flood-opacity="0.102"/>
      <feComposite operator="in" in2="blur"/>
      <feComposite in="SourceGraphic"/>
    </filter>
  </defs>
  <g id="Group_83" data-name="Group 83" transform="translate(-1180 -26)">
    <g transform="matrix(1, 0, 0, 1, 1180, 26)" filter="url(#Ellipse_2)">
      <circle id="Ellipse_2-2" data-name="Ellipse 2" cx="17.5" cy="17.5" r="17.5" transform="translate(9 6)" fill="#fff"/>
    </g>
    <g id="Avatar_man_person_profile_user" data-name="Avatar, man, person, profile, user" transform="translate(1187.341 30.421)">
      <path id="Path_20" data-name="Path 20" d="M21.384,19.264a5.046,5.046,0,1,0-5.134.2,8.426,8.426,0,0,0-5.591,7.756.539.539,0,0,0,1.077.028,7.355,7.355,0,0,1,6.838-7.179h.078a3.41,3.41,0,0,0,.493-.024,7.362,7.362,0,0,1,7.388,7.2.539.539,0,0,0,.539.524h.015a.536.536,0,0,0,.524-.549A8.428,8.428,0,0,0,21.384,19.264Zm-6.7-4.244a3.971,3.971,0,1,1,4.393,3.949,4.4,4.4,0,0,0-.506.019,3.973,3.973,0,0,1-3.887-3.968Z" transform="translate(0)" fill="#001028"/>
    </g>
  </g>
</svg>
