<svg xmlns="http://www.w3.org/2000/svg" xmlns:xlink="http://www.w3.org/1999/xlink" width="22.457" height="22.453" viewBox="0 0 22.457 22.453">
  <defs>
    <linearGradient id="linear-gradient" x1="0.5" x2="0.5" y2="1" gradientUnits="objectBoundingBox">
      <stop offset="0" stop-color="#001028"/>
      <stop offset="1" stop-color="#4bbfd5"/>
    </linearGradient>
  </defs>
  <g id="noun_vegetables_3277751" transform="translate(-9.969 -9.999)">
    <path id="Path_11" data-name="Path 11" d="M13.333,24.865c2.232,0,3.364-2.305,3.364-6.851,0-4.2-.991-6.13-3.2-6.222a4.267,4.267,0,0,1,.107-1.444.281.281,0,0,0-.545-.135,4.935,4.935,0,0,0-.127,1.591c-2.045.216-2.964,2.156-2.964,6.209C9.969,22.56,11.1,24.865,13.333,24.865Zm0-12.521c1.964,0,2.8,1.7,2.8,5.67,0,4.174-.943,6.29-2.8,6.29s-2.8-2.116-2.8-6.29C10.53,14.039,11.369,12.344,13.333,12.344Z" transform="translate(0 -0.001)" fill="url(#linear-gradient)"/>
    <path id="Path_12" data-name="Path 12" d="M22.674,49.375a.278.278,0,0,0,.125-.03,1.863,1.863,0,0,0,.832-1.28.281.281,0,0,0-.542-.147,1.422,1.422,0,0,1-.541.925.281.281,0,0,0,.126.531Z" transform="translate(-8.938 -27.13)" fill="url(#linear-gradient)"/>
    <path id="Path_13" data-name="Path 13" d="M25.535,34.727a.281.281,0,0,0,.268.292h.012a.281.281,0,0,0,.28-.269q.017-.4.017-.842a13.947,13.947,0,0,0-.091-1.74.281.281,0,1,0-.557.071,13.374,13.374,0,0,1,.087,1.669Q25.551,34.34,25.535,34.727Z" transform="translate(-11.145 -15.773)" fill="url(#linear-gradient)"/>
    <path id="Path_14" data-name="Path 14" d="M43.835,13.309v-.071a3.247,3.247,0,0,0-1.051-2.388,3.212,3.212,0,0,0-2.477-.838,3.3,3.3,0,0,0-2.949,3.3,1.266,1.266,0,0,0,1.265,1.265h.846l-.052,1.268a.944.944,0,0,0,.944.983h.472a.944.944,0,0,0,.944-.983l-.052-1.268h.846A1.266,1.266,0,0,0,43.835,13.309Zm-2.4.7a.28.28,0,0,0-.28.292l.064,1.56a.383.383,0,0,1-.383.4h-.472a.383.383,0,0,1-.383-.4l.064-1.56a.281.281,0,0,0-.28-.292H38.623a.7.7,0,0,1-.7-.7,2.73,2.73,0,0,1,2.437-2.738q.122-.01.243-.011a2.65,2.65,0,0,1,1.806.7,2.685,2.685,0,0,1,.869,1.974v.071a.7.7,0,0,1-.7.7Z" transform="translate(-19.703 0)" fill="url(#linear-gradient)"/>
    <path id="Path_15" data-name="Path 15" d="M18.1,69.016a3.3,3.3,0,0,0,.246,4.417,1.266,1.266,0,0,0,1.789,0l.6-.6.86.933a.935.935,0,0,0,.676.3h.02a.936.936,0,0,0,.667-.277l.334-.334a.945.945,0,0,0-.028-1.363l-.933-.86.6-.6a1.266,1.266,0,0,0,0-1.789l-.05-.05a3.239,3.239,0,0,0-4.775.213Zm4.378.183.05.05a.7.7,0,0,1,0,1l-.8.8a.28.28,0,0,0,.008.4l1.148,1.058a.384.384,0,0,1,.011.553l-.334.334a.357.357,0,0,1-.279.112A.38.38,0,0,1,22,73.388L20.946,72.24a.281.281,0,0,0-.2-.09h-.006a.28.28,0,0,0-.2.082l-.8.8a.7.7,0,0,1-1,0,2.73,2.73,0,0,1-.213-3.659,2.678,2.678,0,0,1,3.949-.177Z" transform="translate(-5.319 -41.62)" fill="url(#linear-gradient)"/>
    <path id="Path_16" data-name="Path 16" d="M73.465,13.809l-.05-.05a3.246,3.246,0,0,0-2.431-.945,3.212,3.212,0,0,0-2.344,1.159,3.3,3.3,0,0,0,.246,4.417,1.266,1.266,0,0,0,1.789,0l.6-.6.86.933a.935.935,0,0,0,.676.3h.02a.936.936,0,0,0,.667-.277l.334-.333a.945.945,0,0,0-.028-1.363l-.933-.86.6-.6A1.266,1.266,0,0,0,73.465,13.809Zm-.4,1.392-.8.8a.28.28,0,0,0,.008.4l1.148,1.058a.384.384,0,0,1,.011.553l-.334.334a.368.368,0,0,1-.279.112.38.38,0,0,1-.274-.124L71.487,17.2a.281.281,0,0,0-.2-.09h-.006a.28.28,0,0,0-.2.082l-.8.8a.7.7,0,0,1-1,0,2.73,2.73,0,0,1-.213-3.659,2.678,2.678,0,0,1,3.949-.177l.05.05A.7.7,0,0,1,73.068,15.2Z" transform="translate(-41.678 -2.022)" fill="url(#linear-gradient)"/>
    <path id="Path_17" data-name="Path 17" d="M37.457,44.346a2.54,2.54,0,0,0,2.457,1.222,7.464,7.464,0,0,1,1.525,4.517.281.281,0,0,0,.281.281h1.83a.281.281,0,0,0,.281-.281,7.5,7.5,0,0,1,1.526-4.517,2.54,2.54,0,0,0,2.457-1.222,2.6,2.6,0,0,0,.445-5.16,2.652,2.652,0,0,0,.058-.551,2.688,2.688,0,0,0-3.521-2.565,2.585,2.585,0,0,0-4.32,0,2.691,2.691,0,0,0-3.463,3.115,2.6,2.6,0,0,0,.445,5.16ZM43.274,49.8H42a8.009,8.009,0,0,0-1.48-4.373A2.567,2.567,0,0,0,42.1,43.787a2.521,2.521,0,0,0,1.073,0,2.567,2.567,0,0,0,1.582,1.645A8.009,8.009,0,0,0,43.274,49.8ZM37.385,39.7a.281.281,0,0,0,.248-.372,2.13,2.13,0,0,1,2.583-2.754,2.571,2.571,0,0,0-.171.917.281.281,0,0,0,.561,0,2.028,2.028,0,0,1,4.056,0,.281.281,0,0,0,.561,0,2.571,2.571,0,0,0-.171-.917,2.111,2.111,0,0,1,.566-.079,2.131,2.131,0,0,1,2.017,2.832.281.281,0,0,0,.248.372,2.043,2.043,0,0,1-.125,4.082l-.05,0-.045,0a.284.284,0,0,0-.262.152,2,2,0,0,1-3.753-.544.281.281,0,0,0-.367-.214,1.981,1.981,0,0,1-1.3,0,.281.281,0,0,0-.367.214,2,2,0,0,1-3.753.544.284.284,0,0,0-.262-.152l-.045,0-.05,0a2.043,2.043,0,0,1-.125-4.082Z" transform="translate(-17.938 -17.918)" fill="url(#linear-gradient)"/>
    <path id="Path_18" data-name="Path 18" d="M51.367,53.493a1.785,1.785,0,0,1,1.783,1.783.281.281,0,1,0,.561,0,2.347,2.347,0,0,0-2.344-2.344.281.281,0,1,0,0,.561Z" transform="translate(-29.579 -30.885)" fill="url(#linear-gradient)"/>
    <path id="Path_19" data-name="Path 19" d="M72,53.754a.284.284,0,0,0,.079-.012.281.281,0,0,0,.19-.348,1.755,1.755,0,0,1,1.188-2.179.281.281,0,1,0-.158-.538,2.316,2.316,0,0,0-1.568,2.876A.281.281,0,0,0,72,53.754Z" transform="translate(-44.359 -29.255)" fill="url(#linear-gradient)"/>
  </g>
</svg>
