<svg id="Group_5410" data-name="Group 5410" xmlns="http://www.w3.org/2000/svg" xmlns:xlink="http://www.w3.org/1999/xlink" width="151.57" height="73.461" viewBox="0 0 151.57 73.461">
  <defs>
    <linearGradient id="linear-gradient" x1="2.545" y1="-0.323" x2="-4.495" y2="1" gradientUnits="objectBoundingBox">
      <stop offset="0" stop-color="#41a3f3"/>
      <stop offset="1" stop-color="#01ddfd"/>
    </linearGradient>
  </defs>
  <path id="Path_1944" data-name="Path 1944" d="M-359.283,705.489a.969.969,0,0,1-.969-.969V657.086a2.172,2.172,0,0,0-2.17-2.169H-374.51a.97.97,0,0,1-.969-.969.969.969,0,0,1,.969-.969h12.087a4.113,4.113,0,0,1,4.109,4.108v47.433A.969.969,0,0,1-359.283,705.489Z" transform="translate(473.219 -636.922)" fill="url(#linear-gradient)"/>
  <path id="Path_1945" data-name="Path 1945" d="M-765.844,705.489a.969.969,0,0,1-.969-.969V657.086a4.113,4.113,0,0,1,4.109-4.108h11.973a.969.969,0,0,1,.969.969.969.969,0,0,1-.969.969H-762.7a2.172,2.172,0,0,0-2.17,2.169v47.433A.969.969,0,0,1-765.844,705.489Z" transform="translate(801.329 -636.922)" fill="url(#linear-gradient)"/>
  <path id="Path_1946" data-name="Path 1946" d="M-365.707,730.118a.969.969,0,0,1-.969-.969V691.563a2.172,2.172,0,0,0-2.17-2.17h-5.663a.969.969,0,0,1-.969-.969.969.969,0,0,1,.969-.969h5.663a4.113,4.113,0,0,1,4.108,4.109v37.585A.969.969,0,0,1-365.707,730.118Z" transform="translate(473.219 -665.829)" fill="url(#linear-gradient)"/>
  <path id="Path_1947" data-name="Path 1947" d="M-727.372,730.118a.969.969,0,0,1-.969-.969V691.563a4.113,4.113,0,0,1,4.108-4.109h5.758a.969.969,0,0,1,.969.969.969.969,0,0,1-.969.969h-5.758a2.172,2.172,0,0,0-2.17,2.17v37.585A.969.969,0,0,1-727.372,730.118Z" transform="translate(769.073 -665.829)" fill="url(#linear-gradient)"/>
  <path id="Path_1948" data-name="Path 1948" d="M-627.331,619.984h-41.833a4.113,4.113,0,0,1-4.108-4.109v-8.654a.969.969,0,0,1,.969-.969.969.969,0,0,1,.969.969v8.654a2.172,2.172,0,0,0,2.17,2.17h41.833a2.172,2.172,0,0,0,2.17-2.17V569.7l-10.615-10.356h-33.388a2.172,2.172,0,0,0-2.17,2.17v41.508a.969.969,0,0,1-.969.969.969.969,0,0,1-.969-.969V561.517a4.113,4.113,0,0,1,4.108-4.108h33.783a.969.969,0,0,1,.677.276l11.19,10.917a.969.969,0,0,1,.292.694v46.581A4.113,4.113,0,0,1-627.331,619.984Z" transform="translate(722.901 -556.793)" fill="url(#linear-gradient)"/>
  <path id="Path_1949" data-name="Path 1949" d="M-432.68,570.265h-4.333a.969.969,0,0,1-.969-.969.97.97,0,0,1,.969-.969h1.951l-7.843-7.651-.014,7.651h2.009a.97.97,0,0,1,.969.969.969.969,0,0,1-.969.969h-2.98a.97.97,0,0,1-.686-.284.969.969,0,0,1-.283-.687l.019-10.917a.97.97,0,0,1,.594-.892.97.97,0,0,1,1.053.2L-432,568.6a.969.969,0,0,1,.221,1.059A.969.969,0,0,1-432.68,570.265Z" transform="translate(531.389 -556.793)" fill="url(#linear-gradient)"/>
  <path id="Path_1950" data-name="Path 1950" d="M-728.846,973.674h-86.66a5.668,5.668,0,0,1-5.661-5.661v-.041A.969.969,0,0,1-820.2,967h58.849a.969.969,0,0,1,.969.969.969.969,0,0,1-.969.969h-57.763a3.729,3.729,0,0,0,3.605,2.794h86.66a3.729,3.729,0,0,0,3.605-2.794h-19.323a.969.969,0,0,1-.969-.969.969.969,0,0,1,.969-.969h20.409a.969.969,0,0,1,.969.969v.041A5.668,5.668,0,0,1-728.846,973.674Z" transform="translate(846.902 -900.213)" fill="url(#linear-gradient)"/>
  <path id="Path_1951" data-name="Path 1951" d="M-399.777,968.942h-3.55a.969.969,0,0,1-.969-.969.969.969,0,0,1,.969-.969h3.55a.969.969,0,0,1,.969.969A.969.969,0,0,1-399.777,968.942Z" transform="translate(497.381 -900.213)" fill="url(#linear-gradient)"/>
  <path id="Path_1952" data-name="Path 1952" d="M-479.756,654.684h-13.788a.969.969,0,0,1-.969-.969.97.97,0,0,1,.969-.969h13.788a.969.969,0,0,1,.969.969A.969.969,0,0,1-479.756,654.684Z" transform="translate(573.023 -636.727)" opacity="0.5" fill="url(#linear-gradient)"/>
  <path id="Path_1953" data-name="Path 1953" d="M-479.595,688.829h-13.95a.97.97,0,0,1-.969-.969.969.969,0,0,1,.969-.969h13.95a.969.969,0,0,1,.969.969A.969.969,0,0,1-479.595,688.829Z" transform="translate(573.023 -665.355)" opacity="0.5" fill="url(#linear-gradient)"/>
  <path id="Path_1954" data-name="Path 1954" d="M-593.961,724.966h-35.987a.969.969,0,0,1-.969-.969.969.969,0,0,1,.969-.969h35.987a.969.969,0,0,1,.969.969A.969.969,0,0,1-593.961,724.966Z" transform="translate(687.389 -695.654)" opacity="0.5" fill="url(#linear-gradient)"/>
  <path id="Path_1955" data-name="Path 1955" d="M-620.211,851.44h-7.737a.969.969,0,0,1-.969-.969.969.969,0,0,1,.969-.969h7.737a.969.969,0,0,1,.969.969A.969.969,0,0,1-620.211,851.44Z" transform="translate(685.712 -801.695)" opacity="0.8" fill="url(#linear-gradient)"/>
  <g id="Group_2545" data-name="Group 2545" transform="translate(56.957 55.079)" opacity="0.5">
    <path id="Path_1956" data-name="Path 1956" d="M-626.3,895.814h-.969a.646.646,0,0,1-.646-.646.646.646,0,0,1,.646-.646h.969a.646.646,0,0,1,.646.646A.646.646,0,0,1-626.3,895.814Z" transform="translate(627.916 -894.521)" fill="url(#linear-gradient)"/>
    <path id="Path_1957" data-name="Path 1957" d="M-570.922,895.814h-1.984a.646.646,0,0,1-.646-.646.646.646,0,0,1,.646-.646h1.984a.646.646,0,0,1,.646.646A.646.646,0,0,1-570.922,895.814Zm-5.951,0h-1.984a.646.646,0,0,1-.646-.646.646.646,0,0,1,.646-.646h1.984a.646.646,0,0,1,.646.646A.646.646,0,0,1-576.873,895.814Zm-5.952,0h-1.984a.646.646,0,0,1-.646-.646.646.646,0,0,1,.646-.646h1.984a.646.646,0,0,1,.646.646A.646.646,0,0,1-582.825,895.814Zm-5.951,0h-1.984a.646.646,0,0,1-.646-.646.646.646,0,0,1,.646-.646h1.984a.646.646,0,0,1,.646.646A.646.646,0,0,1-588.776,895.814Zm-5.952,0h-1.984a.646.646,0,0,1-.646-.646.646.646,0,0,1,.646-.646h1.984a.646.646,0,0,1,.646.646A.646.646,0,0,1-594.728,895.814Z" transform="translate(602.295 -894.521)" fill="url(#linear-gradient)"/>
    <path id="Path_1958" data-name="Path 1958" d="M-411.553,895.814h-.969a.646.646,0,0,1-.646-.646.646.646,0,0,1,.646-.646h.969a.646.646,0,0,1,.646.646A.646.646,0,0,1-411.553,895.814Z" transform="translate(447.863 -894.521)" fill="url(#linear-gradient)"/>
  </g>
  <path id="Path_1959" data-name="Path 1959" d="M-278.585,710a.654.654,0,0,1-.082-.005.646.646,0,0,1-.56-.722c0-.031.1-.783.292-1.951a.646.646,0,0,1,.743-.532.646.646,0,0,1,.533.743c-.188,1.141-.284,1.9-.285,1.9A.646.646,0,0,1-278.585,710Zm1.026-5.742a.654.654,0,0,1-.142-.016.646.646,0,0,1-.489-.772c.15-.667.307-1.31.467-1.911a.646.646,0,0,1,.791-.458.646.646,0,0,1,.458.791c-.156.585-.309,1.211-.455,1.862A.646.646,0,0,1-277.559,704.255Zm1.68-5.57a.645.645,0,0,1-.253-.052.646.646,0,0,1-.342-.848,11.781,11.781,0,0,1,.947-1.822.647.647,0,0,1,.895-.187.646.646,0,0,1,.187.895,10.508,10.508,0,0,0-.839,1.62A.646.646,0,0,1-275.879,698.684Zm3.911-4.047a.646.646,0,0,1-.6-.412.646.646,0,0,1,.368-.836,10,10,0,0,1,2-.529.646.646,0,0,1,.745.53.646.646,0,0,1-.53.745,8.757,8.757,0,0,0-1.743.459A.648.648,0,0,1-271.967,694.637Zm5.678-1.169a.647.647,0,0,1-.609-.43.646.646,0,0,1,.392-.826,4.154,4.154,0,0,0,1.434-.848.646.646,0,0,1,.913.043.646.646,0,0,1-.043.913,5.419,5.419,0,0,1-1.87,1.109A.638.638,0,0,1-266.289,693.468Zm3.476-4.32a.64.64,0,0,1-.127-.013.646.646,0,0,1-.508-.76,9.749,9.749,0,0,0,.171-1.806.646.646,0,0,1,.646-.641h.005a.646.646,0,0,1,.641.652,11.026,11.026,0,0,1-.2,2.048A.647.647,0,0,1-262.813,689.148Zm-.241-5.777a.647.647,0,0,1-.632-.515c-.163-.785-.34-1.428-.46-1.829a.646.646,0,0,1,.435-.8.646.646,0,0,1,.8.435c.126.425.313,1.105.486,1.934a.646.646,0,0,1-.5.765A.648.648,0,0,1-263.054,683.371Z" transform="translate(392.521 -659.743)" opacity="0.4" fill="url(#linear-gradient)"/>
  <path id="Path_1960" data-name="Path 1960" d="M-278.583,872.275a.645.645,0,0,1-.512-.251.646.646,0,0,1,.115-.906,11.226,11.226,0,0,1,1.776-1.063.646.646,0,0,1,.865.294.646.646,0,0,1-.294.865,10.179,10.179,0,0,0-1.556.925A.645.645,0,0,1-278.583,872.275Zm12.819-.775a.643.643,0,0,1-.32-.085,11.5,11.5,0,0,0-1.66-.78.646.646,0,0,1-.378-.832.646.646,0,0,1,.832-.378,12.806,12.806,0,0,1,1.848.868.646.646,0,0,1,.24.882A.646.646,0,0,1-265.765,871.5Zm-7.475-1.4a.646.646,0,0,1-.638-.545.646.646,0,0,1,.537-.74,12.329,12.329,0,0,1,1.926-.154h.112a.646.646,0,0,1,.641.652.64.64,0,0,1-.652.64h-.1a11.031,11.031,0,0,0-1.723.138A.647.647,0,0,1-273.24,870.1Z" transform="translate(392.52 -817.759)" opacity="0.4" fill="url(#linear-gradient)"/>
  <path id="Path_1961" data-name="Path 1961" d="M-833.2,721.723a.643.643,0,0,1-.385-.127c-.092-.066-.4-.291-.84-.65a.646.646,0,0,1-.095-.909.646.646,0,0,1,.909-.095c.436.354.732.57.786.609a.653.653,0,0,1,.271.526A.646.646,0,0,1-833.2,721.723Zm-3.651-3.286a.645.645,0,0,1-.476-.209c-.47-.511-.9-1.029-1.286-1.536a.646.646,0,0,1,.127-.905.647.647,0,0,1,.905.127c.358.474.764.959,1.206,1.44a.646.646,0,0,1-.039.913A.644.644,0,0,1-836.846,718.437Zm-3.108-4.872a.646.646,0,0,1-.614-.445,7.551,7.551,0,0,1-.356-1.687q-.016-.189-.025-.386a.646.646,0,0,1,.617-.674.645.645,0,0,1,.674.617q.008.169.021.33a6.26,6.26,0,0,0,.3,1.4.646.646,0,0,1-.412.816A.644.644,0,0,1-839.954,713.565Zm-.027-5.759a.671.671,0,0,1-.1-.008.646.646,0,0,1-.539-.738c.107-.685.231-1.389.327-1.926a.646.646,0,0,1,.75-.522.646.646,0,0,1,.522.75c-.095.53-.218,1.226-.323,1.9A.646.646,0,0,1-839.981,707.806Zm1-5.733a.649.649,0,0,1-.1-.008.646.646,0,0,1-.536-.74c.111-.7.2-1.316.267-1.9a.645.645,0,0,1,.718-.565.646.646,0,0,1,.565.718c-.071.6-.161,1.233-.274,1.946A.646.646,0,0,1-838.985,702.073Zm.444-5.791a.646.646,0,0,1-.645-.61,10.863,10.863,0,0,0-.184-1.51q-.029-.145-.065-.288a.646.646,0,0,1,.471-.783.646.646,0,0,1,.783.472c.028.114.055.23.078.346a12.161,12.161,0,0,1,.207,1.691.647.647,0,0,1-.609.682Zm-2.01-5.349a.645.645,0,0,1-.512-.252,14.353,14.353,0,0,0-1.23-1.388.646.646,0,0,1,0-.914.646.646,0,0,1,.914,0,15.553,15.553,0,0,1,1.341,1.515.646.646,0,0,1-.117.906A.643.643,0,0,1-840.551,690.934Zm-4.289-3.905a.644.644,0,0,1-.363-.112,18.47,18.47,0,0,0-1.594-.981.647.647,0,0,1-.272-.873.646.646,0,0,1,.872-.272,19.337,19.337,0,0,1,1.72,1.057.646.646,0,0,1,.171.9A.645.645,0,0,1-844.84,687.029Z" transform="translate(868.681 -663.533)" opacity="0.4" fill="url(#linear-gradient)"/>
  <path id="Path_1962" data-name="Path 1962" d="M-975.029,759.49a.644.644,0,0,1-.287-.068c-.018-.009-.18-.091-.44-.248a.646.646,0,0,1-.218-.887.646.646,0,0,1,.887-.218c.215.13.348.2.349.2a.647.647,0,0,1,.288.867A.647.647,0,0,1-975.029,759.49Zm-3.277-2.79a.646.646,0,0,1-.515-.255,8.7,8.7,0,0,1-1.062-1.8.646.646,0,0,1,.336-.85.646.646,0,0,1,.85.336,7.418,7.418,0,0,0,.905,1.531.646.646,0,0,1-.123.906A.645.645,0,0,1-978.306,756.7Zm-1.506-5.457a.625.625,0,0,1-.083-.006.646.646,0,0,1-.558-.724,9.677,9.677,0,0,1,.494-2.014.646.646,0,0,1,.826-.39.646.646,0,0,1,.39.826,8.4,8.4,0,0,0-.429,1.744A.646.646,0,0,1-979.812,751.244Zm28.66-4.41a.647.647,0,0,1-.639-.552.646.646,0,0,1,.545-.734,6.824,6.824,0,0,0,1.7-.486.646.646,0,0,1,.849.338.646.646,0,0,1-.338.849,8.128,8.128,0,0,1-2.019.577A.665.665,0,0,1-951.151,746.834Zm-3.816-.407a.647.647,0,0,1-.212-.036,11.759,11.759,0,0,1-1.633-.718l-.222-.117a.647.647,0,0,1-.268-.874.646.646,0,0,1,.874-.268l.221.117a10.532,10.532,0,0,0,1.453.639.646.646,0,0,1,.4.823A.647.647,0,0,1-954.967,746.427Zm-22.535-.455a.643.643,0,0,1-.378-.123.646.646,0,0,1-.145-.9,15.581,15.581,0,0,1,1.285-1.56.646.646,0,0,1,.913-.026.646.646,0,0,1,.026.914,14.338,14.338,0,0,0-1.177,1.43A.646.646,0,0,1-977.5,745.972Zm31.336-1.92a.644.644,0,0,1-.442-.175.646.646,0,0,1-.029-.913,9.161,9.161,0,0,0,1.108-1.417.647.647,0,0,1,.885-.227.646.646,0,0,1,.229.884,10.29,10.29,0,0,1-1.28,1.645A.644.644,0,0,1-946.167,744.051Zm-14.019-.186a.644.644,0,0,1-.28-.064c-.619-.3-1.187-.557-1.738-.794a.646.646,0,0,1-.339-.849.646.646,0,0,1,.849-.339c.568.244,1.153.511,1.788.817a.646.646,0,0,1,.3.863A.646.646,0,0,1-960.186,743.865Zm-13-1.693a.646.646,0,0,1-.584-.368.646.646,0,0,1,.305-.861,9.608,9.608,0,0,1,1.957-.685.646.646,0,0,1,.776.483.646.646,0,0,1-.483.776,8.345,8.345,0,0,0-1.694.593A.642.642,0,0,1-973.181,742.172Zm7.578-.4a.652.652,0,0,1-.163-.021,15.433,15.433,0,0,0-1.823-.363.646.646,0,0,1-.555-.726.645.645,0,0,1,.726-.555,16.709,16.709,0,0,1,1.977.393.647.647,0,0,1,.463.788A.647.647,0,0,1-965.6,741.773Z" transform="translate(980.458 -709.971)" opacity="0.4" fill="url(#linear-gradient)"/>
  <g id="Group_2546" data-name="Group 2546" transform="translate(4.178 38.717)" opacity="0.4">
    <path id="Path_1963" data-name="Path 1963" d="M-948.11,819.224a.808.808,0,0,1-.727-.454l-5.68-11.633a.808.808,0,0,1-.03-.638l4.775-12.731a.807.807,0,0,1,.993-.489l13.087,4.01a.808.808,0,0,1,.489.418l5.68,11.633a.807.807,0,0,1,.038.617.808.808,0,0,1-.409.463l-17.861,8.721A.8.8,0,0,1-948.11,819.224Zm-4.8-12.483,5.173,10.595,16.409-8.012-5.171-10.592-12.025-3.685Z" transform="translate(954.598 -793.244)" fill="url(#linear-gradient)"/>
    <path id="Path_1964" data-name="Path 1964" d="M-936.591,875.666a.826.826,0,0,1-.094-.005l-17.2-2a.808.808,0,0,1-.709-.9.81.81,0,0,1,.9-.709l17.2,2a.808.808,0,0,1,.709.9A.808.808,0,0,1-936.591,875.666Z" transform="translate(954.598 -859.315)" fill="url(#linear-gradient)"/>
    <path id="Path_1965" data-name="Path 1965" d="M-882.18,829.752a.8.8,0,0,1-.427-.123.808.808,0,0,1-.257-1.113l6.292-10.069a.808.808,0,0,1,1.113-.257.808.808,0,0,1,.257,1.113l-6.292,10.069A.808.808,0,0,1-882.18,829.752Z" transform="translate(894.557 -814.057)" fill="url(#linear-gradient)"/>
  </g>
  <g id="Group_2547" data-name="Group 2547" transform="translate(8.557 8.132)" opacity="0.4">
    <path id="Path_1966" data-name="Path 1966" d="M-915.524,620.6a.646.646,0,0,1-.275-.062l-11.323-5.328a.646.646,0,0,1-.309-.86l3.47-7.375a.647.647,0,0,1,.382-.339l8.131-2.676a.647.647,0,0,1,.8.375l3.192,8a.646.646,0,0,1-.016.515l-3.47,7.375a.647.647,0,0,1-.366.333A.646.646,0,0,1-915.524,620.6Zm-10.463-6.284,10.154,4.778,3.076-6.536-2.863-7.179-7.29,2.4Z" transform="translate(927.494 -603.932)" fill="url(#linear-gradient)"/>
    <path id="Path_1967" data-name="Path 1967" d="M-899.569,631.021a.646.646,0,0,1-.548-.3l-5.8-9.232a.646.646,0,0,1,.2-.891.646.646,0,0,1,.891.2l5.8,9.232a.646.646,0,0,1-.2.891A.646.646,0,0,1-899.569,631.021Z" transform="translate(909.484 -617.82)" fill="url(#linear-gradient)"/>
    <path id="Path_1968" data-name="Path 1968" d="M-881.227,655.651a.647.647,0,0,1-.641-.57.646.646,0,0,1,.566-.718l7.423-.882a.645.645,0,0,1,.718.566.646.646,0,0,1-.565.718l-7.423.882A.637.637,0,0,1-881.227,655.651Z" transform="translate(889.243 -645.472)" fill="url(#linear-gradient)"/>
  </g>
  <g id="Group_2548" data-name="Group 2548" transform="translate(121.429 51.376)" opacity="0.4">
    <path id="Path_1969" data-name="Path 1969" d="M-225.929,884.573a.646.646,0,0,1-.585-.37l-2.276-4.815a.646.646,0,0,1,.308-.86l14.527-6.868a.647.647,0,0,1,.86.308l3.146,6.655a.646.646,0,0,1-.308.86.647.647,0,0,1-.86-.308l-2.87-6.071-13.358,6.316,2,4.23a.646.646,0,0,1-.308.86A.642.642,0,0,1-225.929,884.573Z" transform="translate(228.852 -871.598)" fill="url(#linear-gradient)"/>
    <path id="Path_1970" data-name="Path 1970" d="M-203.355,946.51a.643.643,0,0,1-.218-.038.646.646,0,0,1-.366-.332l-.744-1.574a.647.647,0,0,1,.308-.861.647.647,0,0,1,.861.308l.468.99,11.49-5.432a.647.647,0,0,1,.861.308.646.646,0,0,1-.308.861l-12.074,5.708A.648.648,0,0,1-203.355,946.51Z" transform="translate(208.641 -928.538)" fill="url(#linear-gradient)"/>
    <path id="Path_1971" data-name="Path 1971" d="M-125.573,919.751a3.507,3.507,0,0,1-1.583-.377,3.533,3.533,0,0,1-1.563-4.74,3.513,3.513,0,0,1,1.427-1.491.646.646,0,0,1,.88.249.646.646,0,0,1-.249.879,2.223,2.223,0,0,0-.9.945,2.239,2.239,0,0,0,.99,3,2.239,2.239,0,0,0,3-.99,2.223,2.223,0,0,0,.236-.864.651.651,0,0,1,.686-.6.646.646,0,0,1,.6.686,3.505,3.505,0,0,1-.371,1.364A3.533,3.533,0,0,1-125.573,919.751Z" transform="translate(145.212 -906.362)" fill="url(#linear-gradient)"/>
    <path id="Path_1972" data-name="Path 1972" d="M-113.942,912.2a.482.482,0,0,1-.218-.052l-1.2-.6a.485.485,0,0,1-.215-.651.485.485,0,0,1,.651-.215l.722.364,1.478-3.722a.484.484,0,0,1,.629-.272.485.485,0,0,1,.272.629l-1.673,4.215a.485.485,0,0,1-.279.274A.486.486,0,0,1-113.942,912.2Z" transform="translate(133.915 -901.296)" fill="url(#linear-gradient)"/>
    <path id="Path_1973" data-name="Path 1973" d="M-217.825,883.081a.639.639,0,0,1-.2-.031l-10.38-3.323a.646.646,0,0,1-.419-.812.647.647,0,0,1,.813-.418l9.81,3.14,3.921-9.636a.646.646,0,0,1,.842-.355.646.646,0,0,1,.355.842l-4.147,10.191A.646.646,0,0,1-217.825,883.081Z" transform="translate(228.852 -871.597)" fill="url(#linear-gradient)"/>
  </g>
  <g id="Group_2549" data-name="Group 2549" transform="translate(89.539 46.363)" opacity="0.8">
    <path id="Path_1974" data-name="Path 1974" d="M-422.366,845.4a.644.644,0,0,1-.477-.21l-3.228-3.531a.647.647,0,0,1,.041-.913.646.646,0,0,1,.913.041l3.228,3.531a.646.646,0,0,1-.041.913A.645.645,0,0,1-422.366,845.4Z" transform="translate(426.241 -840.571)" fill="url(#linear-gradient)"/>
    <path id="Path_1975" data-name="Path 1975" d="M-425.595,845.4a.644.644,0,0,1-.436-.169.646.646,0,0,1-.041-.913l3.228-3.531a.646.646,0,0,1,.913-.041.646.646,0,0,1,.041.913l-3.228,3.531A.645.645,0,0,1-425.595,845.4Z" transform="translate(426.241 -840.571)" fill="url(#linear-gradient)"/>
  </g>
  <rect id="Rectangle_662" data-name="Rectangle 662" width="17.285" height="11.209" rx="2.333" transform="translate(56.795 11.619)" opacity="0.5" fill="url(#linear-gradient)"/>
  <rect id="Rectangle_663" data-name="Rectangle 663" width="37.259" height="11.209" rx="2.333" transform="translate(56.795 32.341)" opacity="0.5" fill="url(#linear-gradient)"/>
  <g id="Group_2550" data-name="Group 2550" transform="translate(120.033 0)" opacity="0.4">
    <path id="Path_1976" data-name="Path 1976" d="M-186.6,579.411a.8.8,0,0,1-.493-.169.808.808,0,0,1-.145-1.133l6.466-8.368-18.382-14.2-4.541,5.877a.808.808,0,0,1-1.133.145.808.808,0,0,1-.145-1.133l5.035-6.516a.807.807,0,0,1,1.133-.145l19.661,15.192a.808.808,0,0,1,.145,1.133l-6.96,9.007A.806.806,0,0,1-186.6,579.411Z" transform="translate(210.37 -553.597)" fill="url(#linear-gradient)"/>
    <path id="Path_1977" data-name="Path 1977" d="M-220.345,638.976a.8.8,0,0,1-.493-.169L-237.18,626.18a.807.807,0,0,1-.307-.536.808.808,0,0,1,.162-.6l1.647-2.131a.807.807,0,0,1,1.133-.145.808.808,0,0,1,.145,1.133l-1.153,1.492,15.7,12.133a.808.808,0,0,1,.145,1.133A.807.807,0,0,1-220.345,638.976Z" transform="translate(237.493 -611.454)" fill="url(#linear-gradient)"/>
    <path id="Path_1978" data-name="Path 1978" d="M-133.754,708.746a5.271,5.271,0,0,1-5.265-5.242,5.231,5.231,0,0,1,1.526-3.73,5.232,5.232,0,0,1,3.716-1.558h.024a5.239,5.239,0,0,1,2.925.887.808.808,0,0,1,.222,1.121.808.808,0,0,1-1.121.222,3.627,3.627,0,0,0-2.026-.614h-.016a3.626,3.626,0,0,0-2.576,1.08A3.626,3.626,0,0,0-137.4,703.5a3.654,3.654,0,0,0,3.649,3.634h.016a3.622,3.622,0,0,0,1.431-.3.808.808,0,0,1,1.062.421.808.808,0,0,1-.421,1.062,5.232,5.232,0,0,1-2.065.43Z" transform="translate(154.928 -674.851)" fill="url(#linear-gradient)"/>
    <path id="Path_1979" data-name="Path 1979" d="M-114.033,721.921a.807.807,0,0,1-.543-.209.807.807,0,0,1-.265-.595l-.009-2.07a.808.808,0,0,1,.8-.811h0a.808.808,0,0,1,.808.8l.005,1.187,6.1-.572a.808.808,0,0,1,.88.729.808.808,0,0,1-.729.88l-6.982.654C-113.983,721.92-114.008,721.921-114.033,721.921Z" transform="translate(134.664 -691.637)" fill="url(#linear-gradient)"/>
    <path id="Path_1980" data-name="Path 1980" d="M-170.463,571.846a.808.808,0,0,1-.8-.678l-2.71-16.633a.808.808,0,0,1,.667-.927.807.807,0,0,1,.927.667l2.589,15.9,16.205-1.378a.81.81,0,0,1,.873.737.808.808,0,0,1-.736.873l-16.951,1.441Z" transform="translate(184.241 -553.597)" fill="url(#linear-gradient)"/>
  </g>
</svg>
