<svg xmlns="http://www.w3.org/2000/svg" width="53.08" height="53.071" viewBox="0 0 53.08 53.071">
  <g id="advertising" transform="translate(0 -0.041)">
    <g id="Group_380" data-name="Group 380" transform="translate(0 0.041)">
      <g id="Group_379" data-name="Group 379" transform="translate(0 0)">
        <path id="Path_399" data-name="Path 399" d="M50.3,20.223A12.378,12.378,0,0,0,31.121,4.573a6.342,6.342,0,0,1-6.529,2.244,15.877,15.877,0,0,0-6.279-.449A16.052,16.052,0,0,0,4.572,19.981,15.821,15.821,0,0,0,6.1,29.238a6.184,6.184,0,0,0-.708,12.317l.954,9.787a1.769,1.769,0,0,0,1.769,1.769h5.16a1.769,1.769,0,0,0,1.342-.619,1.808,1.808,0,0,0,.389-1.5l-2.365-9.374h.442a22.076,22.076,0,0,1,2.924.21A19.421,19.421,0,0,0,33.643,53.111q.876,0,1.769-.079a19.6,19.6,0,0,0,17.6-17.793,19.31,19.31,0,0,0-2.895-11.876A2.7,2.7,0,0,1,50.3,20.223ZM5.312,39.757a4.422,4.422,0,0,1,0-8.667Zm7.959,11.585-5.165-.088-.937-9.64h3.643ZM7.08,39.846V31H8.849v8.844Zm6,0H10.618V31h2.459a23.818,23.818,0,0,0,7.551-1.226l4.14-1.38V42.451l-4.14-1.38A23.822,23.822,0,0,0,13.077,39.846ZM51.242,35.1a17.659,17.659,0,0,1-33.062,7.12c.635.151,1.266.324,1.89.531L29.8,45.99a.88.88,0,0,0,1.161-.838V40.73A3.538,3.538,0,0,0,34.5,37.192V33.655a3.538,3.538,0,0,0-3.538-3.538V25.7a.884.884,0,0,0-1.164-.839L20.067,28.1a22.081,22.081,0,0,1-6.989,1.135H8.111a14.133,14.133,0,0,1,16-20.712A8.107,8.107,0,0,0,32.487,5.7,10.607,10.607,0,0,1,48.926,19.1a4.469,4.469,0,0,0-.314,5.2A17.556,17.556,0,0,1,51.242,35.1ZM26.537,43.041V27.806l2.653-.884v17Zm4.422-4.08V31.886a1.769,1.769,0,0,1,1.769,1.769v3.538A1.769,1.769,0,0,1,30.959,38.961Z" transform="translate(0 -0.041)" fill="#41a3f3"/>
      </g>
    </g>
    <g id="Group_382" data-name="Group 382" transform="translate(12.387 36.308)">
      <g id="Group_381" data-name="Group 381">
        <rect id="Rectangle_40" data-name="Rectangle 40" width="3.538" height="1.769" fill="#41a3f3"/>
      </g>
    </g>
    <g id="Group_384" data-name="Group 384" transform="translate(12.387 32.77)">
      <g id="Group_383" data-name="Group 383">
        <rect id="Rectangle_41" data-name="Rectangle 41" width="3.538" height="1.769" fill="#41a3f3"/>
      </g>
    </g>
    <g id="Group_386" data-name="Group 386" transform="translate(38.034 8.008)">
      <g id="Group_385" data-name="Group 385">
        <path id="Path_400" data-name="Path 400" d="M350.976,76.041a.885.885,0,0,0-.245-.245l-5.306-3.538a.884.884,0,0,0-1.375.736V80.07a.884.884,0,0,0,1.375.736l5.306-3.538A.884.884,0,0,0,350.976,76.041Zm-5.158,2.375V74.647l2.83,1.885Z" transform="translate(-344.049 -72.11)" fill="#41a3f3"/>
      </g>
    </g>
    <g id="Group_388" data-name="Group 388" transform="translate(32.727 4.47)">
      <g id="Group_387" data-name="Group 387">
        <path id="Path_401" data-name="Path 401" d="M304.008,40.112a7.959,7.959,0,1,0,7.959,7.959A7.959,7.959,0,0,0,304.008,40.112Zm0,14.15a6.191,6.191,0,1,1,6.191-6.191A6.191,6.191,0,0,1,304.008,54.262Z" transform="translate(-296.049 -40.112)" fill="#41a3f3"/>
      </g>
    </g>
    <g id="Group_390" data-name="Group 390" transform="translate(9.734 9.777)">
      <g id="Group_389" data-name="Group 389">
        <path id="Path_402" data-name="Path 402" d="M101.315,94.3h-.884a.884.884,0,0,1-.884-.884V90.765a2.653,2.653,0,1,0-5.306,0v2.653a.884.884,0,0,1-.884.884.884.884,0,0,0-.884-.884H88.933a.884.884,0,0,0-.884.884v9.728a.884.884,0,0,0,.884.884h3.538a.884.884,0,0,0,.884-.884h7.959a2.653,2.653,0,0,0,2.653-2.653V96.956A2.653,2.653,0,0,0,101.315,94.3Zm-9.728,8.844H89.818V95.187h1.769Zm10.613-1.769a.884.884,0,0,1-.884.884H93.355V96.071a2.653,2.653,0,0,0,2.653-2.653V90.765a.884.884,0,1,1,1.769,0v2.653a2.653,2.653,0,0,0,2.653,2.653h.884a.884.884,0,0,1,.884.884Z" transform="translate(-88.049 -88.112)" fill="#41a3f3"/>
      </g>
    </g>
    <g id="Group_392" data-name="Group 392" transform="translate(38.614 31)">
      <g id="Group_391" data-name="Group 391">
        <path id="Path_403" data-name="Path 403" d="M359.433,281.253l-.377-.378a2.663,2.663,0,0,0-3.347-.331l-.956.638-.956-.638a2.661,2.661,0,0,0-3.347.331l-.378.378a2.653,2.653,0,0,0,0,3.752l4.056,4.055a.884.884,0,0,0,1.251,0L359.433,285A2.653,2.653,0,0,0,359.433,281.253Zm-1.249,2.5h0l-3.43,3.43-3.43-3.426a.884.884,0,0,1,0-1.251l.378-.378a.884.884,0,0,1,1.116-.111l1.446.964a.884.884,0,0,0,.982,0l1.447-.964a.884.884,0,0,1,1.115.11v0l.377.378A.884.884,0,0,1,358.184,283.753Z" transform="translate(-349.294 -280.1)" fill="#41a3f3"/>
      </g>
    </g>
    <g id="Group_394" data-name="Group 394" transform="translate(33.64 23.713)">
      <g id="Group_393" data-name="Group 393" transform="translate(0 0)">
        <rect id="Rectangle_42" data-name="Rectangle 42" width="3.646" height="1.768" transform="translate(0 3.537) rotate(-75.948)" fill="#41a3f3"/>
      </g>
    </g>
    <g id="Group_396" data-name="Group 396" transform="translate(35.869 26.673)">
      <g id="Group_395" data-name="Group 395" transform="translate(0 0)">
        <rect id="Rectangle_43" data-name="Rectangle 43" width="3.955" height="1.769" transform="translate(0 1.769) rotate(-26.565)" fill="#41a3f3"/>
      </g>
    </g>
    <g id="Group_398" data-name="Group 398" transform="translate(33.635 44.052)">
      <g id="Group_397" data-name="Group 397" transform="translate(0 0)">
        <rect id="Rectangle_44" data-name="Rectangle 44" width="1.768" height="3.646" transform="translate(0 0.429) rotate(-14.035)" fill="#41a3f3"/>
      </g>
    </g>
    <g id="Group_400" data-name="Group 400" transform="translate(35.868 41.707)">
      <g id="Group_399" data-name="Group 399" transform="translate(0 0)">
        <rect id="Rectangle_45" data-name="Rectangle 45" width="1.769" height="3.955" transform="translate(0 1.582) rotate(-63.435)" fill="#41a3f3"/>
      </g>
    </g>
    <g id="Group_402" data-name="Group 402" transform="translate(0.89 2.702)">
      <g id="Group_401" data-name="Group 401">
        <path id="Path_404" data-name="Path 404" d="M8.049,45.337H9.818c0-12,7.117-19.456,18.572-19.456V24.112C15.843,24.112,8.049,32.248,8.049,45.337Z" transform="translate(-8.049 -24.112)" fill="#41a3f3"/>
      </g>
    </g>
  </g>
</svg>
