<svg xmlns="http://www.w3.org/2000/svg" width="53" height="51.233" viewBox="0 0 53 51.233">
  <g id="Outline" transform="translate(-2 -4)">
    <g id="Group_403" data-name="Group 403" transform="translate(2 4)">
      <ellipse id="Ellipse_15" data-name="Ellipse 15" cx="0.5" cy="1" rx="0.5" ry="1" transform="translate(4 17.233)" fill="#41a3f3"/>
      <circle id="Ellipse_16" data-name="Ellipse 16" cx="1" cy="1" r="1" transform="translate(7 17.233)" fill="#41a3f3"/>
      <path id="Path_405" data-name="Path 405" d="M12.65,34.767a.883.883,0,1,0,0-1.767H10.883a.883.883,0,1,0,0,1.767Z" transform="translate(-2.933 -7.383)" fill="#41a3f3"/>
      <path id="Path_406" data-name="Path 406" d="M6,38.883a.883.883,0,0,0,.883.883h5.3a.883.883,0,1,0,0-1.767h-5.3A.883.883,0,0,0,6,38.883Z" transform="translate(-2.467 -7.967)" fill="#41a3f3"/>
      <path id="Path_407" data-name="Path 407" d="M6.883,44.767h5.3a.883.883,0,1,0,0-1.767h-5.3a.883.883,0,1,0,0,1.767Z" transform="translate(-2.467 -8.55)" fill="#41a3f3"/>
      <path id="Path_408" data-name="Path 408" d="M41.75,51.411a.883.883,0,0,0-.883.883v3.039H3.767v-26.5h7.95a.883.883,0,1,0,0-1.767H3.767v-5.3h7.95a.883.883,0,1,0,0-1.767H2.883A.883.883,0,0,0,2,20.883V56.217a.883.883,0,0,0,.883.883H41.75a.883.883,0,0,0,.883-.883V52.295A.883.883,0,0,0,41.75,51.411Z" transform="translate(-2 -5.867)" fill="#41a3f3"/>
      <path id="Path_409" data-name="Path 409" d="M17.483,55.067a.883.883,0,1,0,0,1.767H19.25a.883.883,0,0,0,.883-.883V48.883A.883.883,0,0,0,19.25,48H6.883A.883.883,0,0,0,6,48.883V55.95a.883.883,0,0,0,.883.883H13.95a.883.883,0,1,0,0-1.767H7.767v-5.3h10.6v5.3Z" transform="translate(-2.467 -9.133)" fill="#41a3f3"/>
      <path id="Path_410" data-name="Path 410" d="M54.2,40.052a.883.883,0,0,0-.186-.963l-8.833-8.833a.883.883,0,0,0-1.254,0L35.09,39.089a.889.889,0,0,0,.627,1.511h4.355a6.183,6.183,0,0,1-6.121,5.3H26.883a.883.883,0,0,0-.883.883v3.533a.883.883,0,1,0,1.767,0v-2.65H33.95a7.95,7.95,0,0,0,7.95-7.95.883.883,0,0,0-.883-.883H37.846l6.7-6.7,6.7,6.7H48.083a.883.883,0,0,0-.883.883,13.25,13.25,0,0,1-13.25,13.25H26.883a.883.883,0,1,0,0,1.767H33.95A15.017,15.017,0,0,0,48.967,40.6h4.417A.883.883,0,0,0,54.2,40.052Z" transform="translate(-4.8 -7.033)" fill="#41a3f3"/>
      <circle id="Ellipse_17" data-name="Ellipse 17" cx="1" cy="1" r="1" transform="translate(16 3.233)" fill="#41a3f3"/>
      <circle id="Ellipse_18" data-name="Ellipse 18" cx="1" cy="1" r="1" transform="translate(19 3.233)" fill="#41a3f3"/>
      <circle id="Ellipse_19" data-name="Ellipse 19" cx="1" cy="1" r="1" transform="translate(23 3.233)" fill="#41a3f3"/>
      <path id="Path_411" data-name="Path 411" d="M37.883,8a.883.883,0,0,0,0,1.767h7.95a.883.883,0,1,0,0-1.767Z" transform="translate(-6.083 -4.467)" fill="#41a3f3"/>
      <path id="Path_412" data-name="Path 412" d="M50.883,8a.883.883,0,0,0,0,1.767H55.3A.883.883,0,0,0,55.3,8Z" transform="translate(-7.6 -4.467)" fill="#41a3f3"/>
      <path id="Path_413" data-name="Path 413" d="M36.783,31.9a.883.883,0,0,0,.883-.883V26.6a.883.883,0,1,0-1.767,0v3.533H33.8L30.5,23.552a.883.883,0,0,0-1.572,0L27.95,25.5l-1.864-3.719a.883.883,0,0,0-1.572,0l-2.747,5.486v-9.5H35.9v5.3a.883.883,0,1,0,1.767,0V16.883A.883.883,0,0,0,36.783,16h-15.9a.883.883,0,0,0-.883.883V31.017a.883.883,0,0,0,.883.883Zm-7.067-5.971,2.1,4.2H30.264l-1.325-2.65ZM25.3,24.162l2.986,5.971H22.314Z" transform="translate(-4.1 -5.4)" fill="#41a3f3"/>
      <path id="Path_414" data-name="Path 414" d="M30.183,36h-5.3a.883.883,0,1,0,0,1.767h5.3a.883.883,0,1,0,0-1.767Z" transform="translate(-4.567 -7.733)" fill="#41a3f3"/>
      <path id="Path_415" data-name="Path 415" d="M29.833,40h-7.95a.883.883,0,1,0,0,1.767h7.95a.883.883,0,1,0,0-1.767Z" transform="translate(-4.217 -8.2)" fill="#41a3f3"/>
      <path id="Path_416" data-name="Path 416" d="M55.483,17.767a.883.883,0,1,0,0-1.767h-10.6a.883.883,0,0,0-.883.883v3.533a.883.883,0,0,0,.883.883h10.6a.883.883,0,1,0,0-1.767H45.767V17.767Z" transform="translate(-6.9 -5.4)" fill="#41a3f3"/>
      <path id="Path_417" data-name="Path 417" d="M55.95,24H48.883a.883.883,0,0,0,0,1.767H55.95a.883.883,0,1,0,0-1.767Z" transform="translate(-7.367 -6.333)" fill="#41a3f3"/>
      <circle id="Ellipse_20" data-name="Ellipse 20" cx="1" cy="1" r="1" transform="translate(27 14.233)" fill="#41a3f3"/>
      <path id="Path_418" data-name="Path 418" d="M55.75,4H16.883A.883.883,0,0,0,16,4.883V40.217a.883.883,0,0,0,.883.883h17.6a.883.883,0,1,0,0-1.767H17.767v-26.5h34.45a.883.883,0,1,0,0-1.767H31.9v-5.3H54.867V39.333H49.991a.883.883,0,1,0,0,1.767H55.75a.883.883,0,0,0,.883-.883V4.883A.883.883,0,0,0,55.75,4ZM30.133,11.067H17.767v-5.3H30.133Z" transform="translate(-3.633 -4)" fill="#41a3f3"/>
    </g>
  </g>
</svg>
