<svg id="Group_5413" data-name="Group 5413" xmlns="http://www.w3.org/2000/svg" width="227.565" height="124.95" viewBox="0 0 227.565 124.95">
  <path id="Path_2312" data-name="Path 2312" d="M-889.094,1979.155l10.511-.342,3.547-.286a2.954,2.954,0,0,0,1.116-.942,3.017,3.017,0,0,0,.434-2.678l-.873-2.815a3.451,3.451,0,0,0,.938-2.1l9.016,4.128a2.4,2.4,0,0,0,1,.22,2.413,2.413,0,0,0,1.489-.516,2.5,2.5,0,0,0,.922-2.375l-1.693-10.483a11.741,11.741,0,0,0-5.918-8.408l-4.808-2.613V1935.5a24.252,24.252,0,0,0-2.283-10.246l-4.018-8.555a4.535,4.535,0,0,0-4.13-2.649,4.536,4.536,0,0,0-4.13,2.649l-4.018,8.555a24.259,24.259,0,0,0-2.282,10.246v14.446l-4.808,2.613A11.741,11.741,0,0,0-905,1960.97l-1.693,10.483a2.506,2.506,0,0,0,.922,2.375,2.416,2.416,0,0,0,1.489.516,2.4,2.4,0,0,0,1-.22l9.016-4.128a3.456,3.456,0,0,0,.769,1.9l-.932,3.007a3.015,3.015,0,0,0,.434,2.678,2.937,2.937,0,0,0,1.291,1.019Z" transform="translate(1005.499 -1892.04)" fill="#41a3f3" opacity="0.1"/>
  <path id="Path_2313" data-name="Path 2313" d="M-749.562,2026.039a1.369,1.369,0,0,1-1.369-1.369v-77.9a3.657,3.657,0,0,0-3.652-3.653h-45.531a1.368,1.368,0,0,1-1.369-1.368,1.369,1.369,0,0,1,1.369-1.368h45.531a6.4,6.4,0,0,1,6.389,6.389v77.9A1.368,1.368,0,0,1-749.562,2026.039Z" transform="translate(936.264 -1909.362)" fill="#41a3f3"/>
  <path id="Path_2314" data-name="Path 2314" d="M-1030.584,2026.039a1.369,1.369,0,0,1-1.369-1.369v-77.9a6.4,6.4,0,0,1,6.389-6.389h45.494a1.369,1.369,0,0,1,1.368,1.368,1.368,1.368,0,0,1-1.368,1.368h-45.494a3.657,3.657,0,0,0-3.652,3.653v77.9A1.369,1.369,0,0,1-1030.584,2026.039Z" transform="translate(1087.887 -1909.362)" fill="#41a3f3"/>
  <path id="Path_2315" data-name="Path 2315" d="M-769.386,2037.884a1.369,1.369,0,0,1-1.368-1.369v-63a3.643,3.643,0,0,0-3.653-3.625h-39.737a1.369,1.369,0,0,1-1.368-1.369,1.368,1.368,0,0,1,1.368-1.368h39.737a6.383,6.383,0,0,1,6.389,6.362v63A1.369,1.369,0,0,1-769.386,2037.884Z" transform="translate(945.494 -1926.97)" fill="#41a3f3"/>
  <path id="Path_2316" data-name="Path 2316" d="M-1000.45,2038.182a1.369,1.369,0,0,1-1.368-1.369v-63.3a6.383,6.383,0,0,1,6.389-6.362h39.346a1.368,1.368,0,0,1,1.368,1.368,1.369,1.369,0,0,1-1.368,1.369h-39.346a3.643,3.643,0,0,0-3.652,3.625v63.3A1.369,1.369,0,0,1-1000.45,2038.182Z" transform="translate(1068.062 -1926.97)" fill="#41a3f3"/>
  <path id="Path_2317" data-name="Path 2317" d="M-704.932,2188.753" transform="translate(872.745 -2072.76)" fill="#41a3f3" opacity="0.43"/>
  <path id="Path_2318" data-name="Path 2318" d="M-727.722,2188.753" transform="translate(887.738 -2072.76)" fill="#41a3f3" opacity="0.43"/>
  <g id="Group_3193" data-name="Group 3193" transform="translate(41.536 114.624)">
    <path id="Path_2319" data-name="Path 2319" d="M-922.222,2195.077h-142.86a8.966,8.966,0,0,1-8.956-8.957,1.369,1.369,0,0,1,1.368-1.369h96.938a1.369,1.369,0,0,1,1.368,1.369,1.368,1.368,0,0,1-1.368,1.368h-95.418a6.23,6.23,0,0,0,6.068,4.851h142.86a6.23,6.23,0,0,0,6.068-4.851h-31.607a1.368,1.368,0,0,1-1.369-1.368,1.369,1.369,0,0,1,1.369-1.369h33.127a1.369,1.369,0,0,1,1.368,1.369A8.967,8.967,0,0,1-922.222,2195.077Z" transform="translate(1074.038 -2184.752)" fill="#41a3f3"/>
    <path id="Path_2320" data-name="Path 2320" d="M-743.472,2187.489h-6.822a1.368,1.368,0,0,1-1.369-1.368,1.369,1.369,0,0,1,1.369-1.369h6.822a1.369,1.369,0,0,1,1.368,1.369A1.368,1.368,0,0,1-743.472,2187.489Z" transform="translate(861.952 -2184.752)" fill="#41a3f3"/>
  </g>
  <path id="Path_2321" data-name="Path 2321" d="M-747.663,2188.753" transform="translate(900.857 -2072.76)" fill="#41a3f3" opacity="0.43"/>
  <path id="Path_2322" data-name="Path 2322" d="M-786.69,2188.753" transform="translate(926.532 -2072.76)" fill="#41a3f3" opacity="0.43"/>
  <path id="Path_2323" data-name="Path 2323" d="M-953.69,1980.722h-44.128v-4.942a4.632,4.632,0,0,1,4.632-4.632h39.5Z" transform="translate(1065.43 -1929.601)" fill="#41a3f3" opacity="0.3"/>
  <path id="Path_2324" data-name="Path 2324" d="M-869.765,1999.132" transform="translate(981.186 -1948.011)" fill="#41a3f3" opacity="0.3"/>
  <path id="Path_2325" data-name="Path 2325" d="M-810.348,1999.132" transform="translate(942.096 -1948.011)" fill="#41a3f3" opacity="0.3"/>
  <path id="Path_2326" data-name="Path 2326" d="M-811.115,1980.722h44.36v-4.942a4.632,4.632,0,0,0-4.632-4.632h-40.126S-810.8,1973.971-811.115,1980.722Z" transform="translate(942.863 -1929.601)" fill="#41a3f3" opacity="0.3"/>
  <g id="Group_3194" data-name="Group 3194" transform="translate(33.111 39.336)" opacity="0.5">
    <path id="Path_2327" data-name="Path 2327" d="M-1033.715,2130.22a.987.987,0,0,1-.18-.016,14.123,14.123,0,0,1-2.141-.612,1.026,1.026,0,0,1-.616-1.315,1.026,1.026,0,0,1,1.314-.616,12.539,12.539,0,0,0,1.8.521,1.028,1.028,0,0,1,.828,1.192A1.026,1.026,0,0,1-1033.715,2130.22Z" transform="translate(1057.908 -2071.865)" fill="#41a3f3"/>
    <path id="Path_2328" data-name="Path 2328" d="M-1068.166,2026.217a1.02,1.02,0,0,1-.655-.237,14.458,14.458,0,0,1-2.985-3.375,1.027,1.027,0,0,1,.317-1.416,1.026,1.026,0,0,1,1.416.317,12.4,12.4,0,0,0,2.563,2.9,1.027,1.027,0,0,1,.133,1.445A1.024,1.024,0,0,1-1068.166,2026.217Zm-4.709-8.353a1.027,1.027,0,0,1-1.012-.864,18.525,18.525,0,0,1-.225-2.922q0-.745.02-1.459a1.019,1.019,0,0,1,1.053-1,1.026,1.026,0,0,1,1,1.053q-.018.688-.019,1.4a16.488,16.488,0,0,0,.2,2.6,1.026,1.026,0,0,1-.851,1.176A1,1,0,0,1-1072.875,2017.864Zm.248-9.775a.928.928,0,0,1-.131-.008,1.026,1.026,0,0,1-.889-1.147c.2-1.553.437-2.994.645-4.2a1.024,1.024,0,0,1,1.186-.837,1.027,1.027,0,0,1,.837,1.187c-.2,1.183-.439,2.6-.632,4.108A1.026,1.026,0,0,1-1072.627,2008.088Zm1.552-9.681a.968.968,0,0,1-.139-.01,1.026,1.026,0,0,1-.88-1.154,35.42,35.42,0,0,0,.337-4.07,1.026,1.026,0,0,1,1.026-1.005h.021a1.026,1.026,0,0,1,1.005,1.048,37.47,37.47,0,0,1-.355,4.3A1.026,1.026,0,0,1-1071.075,1998.408Zm-.087-9.764a1.028,1.028,0,0,1-1.01-.849c-.146-.832-.336-1.689-.563-2.547-.123-.466-.263-.927-.415-1.371a1.026,1.026,0,0,1,.637-1.3,1.026,1.026,0,0,1,1.3.637c.169.49.323,1,.459,1.514.241.914.443,1.827.6,2.715a1.027,1.027,0,0,1-.833,1.189A1.058,1.058,0,0,1-1071.162,1988.643Zm-3.6-9.02a1.025,1.025,0,0,1-.823-.412,15.947,15.947,0,0,0-2.73-2.839,1.026,1.026,0,0,1-.151-1.443,1.026,1.026,0,0,1,1.444-.151,18,18,0,0,1,3.083,3.2,1.027,1.027,0,0,1-.208,1.437A1.023,1.023,0,0,1-1074.766,1979.623Z" transform="translate(1085.53 -1971.174)" fill="#41a3f3"/>
    <path id="Path_2329" data-name="Path 2329" d="M-1095.675,1967.325a1.035,1.035,0,0,1-.361-.066,11.734,11.734,0,0,0-1.787-.536,1.028,1.028,0,0,1-.825-1.193,1.023,1.023,0,0,1,1.19-.827,13.478,13.478,0,0,1,2.145.635,1.026,1.026,0,0,1,.6,1.322A1.027,1.027,0,0,1-1095.675,1967.325Z" transform="translate(1098.665 -1964.685)" fill="#41a3f3"/>
  </g>
  <path id="Path_2330" data-name="Path 2330" d="M-1187.955,2039.209a1.024,1.024,0,0,1-.79-.372,32.012,32.012,0,0,1-2.428-3.5,1.027,1.027,0,0,1,.343-1.41,1.027,1.027,0,0,1,1.411.344,30.792,30.792,0,0,0,2.255,3.26,1.027,1.027,0,0,1-.136,1.445A1.024,1.024,0,0,1-1187.955,2039.209Zm-4.81-8.266a1.026,1.026,0,0,1-.953-.643,26.439,26.439,0,0,1-1.285-4.072,1.026,1.026,0,0,1,.777-1.226,1.028,1.028,0,0,1,1.226.777,24.442,24.442,0,0,0,1.186,3.754,1.027,1.027,0,0,1-.568,1.336A1.025,1.025,0,0,1-1192.766,2030.943Zm-1.654-9.35c-.03,0-.059,0-.089,0a1.026,1.026,0,0,1-.934-1.111,14.939,14.939,0,0,1,1.005-4.275,1.027,1.027,0,0,1,1.334-.571,1.027,1.027,0,0,1,.571,1.335,12.863,12.863,0,0,0-.865,3.688A1.027,1.027,0,0,1-1194.42,2021.593Zm43.7-3.736h-.053c-.427-.022-.858-.063-1.282-.123a17.118,17.118,0,0,1-3-.762,1.026,1.026,0,0,1-.647-1.3,1.028,1.028,0,0,1,1.3-.647,15.169,15.169,0,0,0,2.632.676c.365.051.735.087,1.1.105a1.026,1.026,0,0,1,.972,1.078A1.026,1.026,0,0,1-1150.721,2017.857Zm5.376-.807a1.027,1.027,0,0,1-.967-.684,1.026,1.026,0,0,1,.624-1.31,16.012,16.012,0,0,0,3.44-1.73,1.027,1.027,0,0,1,1.422.293,1.026,1.026,0,0,1-.293,1.421,18.038,18.038,0,0,1-3.883,1.95A1.023,1.023,0,0,1-1145.344,2017.05Zm-14.479-2.037a1.019,1.019,0,0,1-.4-.083l-1.315-.563c-.8-.343-1.621-.695-2.459-1.047a1.027,1.027,0,0,1-.549-1.344,1.027,1.027,0,0,1,1.344-.548c.843.355,1.669.708,2.473,1.053l1.311.561a1.026,1.026,0,0,1,.542,1.346A1.027,1.027,0,0,1-1159.823,2015.012Zm-30.693-1.958a1.023,1.023,0,0,1-.707-.282,1.027,1.027,0,0,1-.037-1.451q.088-.092.178-.183a13.855,13.855,0,0,1,3.314-2.511,1.026,1.026,0,0,1,1.391.415,1.027,1.027,0,0,1-.415,1.391,11.825,11.825,0,0,0-2.824,2.142c-.053.054-.1.107-.155.161A1.024,1.024,0,0,1-1190.516,2013.055Zm21.82-1.666a1.029,1.029,0,0,1-.348-.061c-1.376-.5-2.631-.9-3.837-1.236a1.026,1.026,0,0,1-.713-1.264,1.026,1.026,0,0,1,1.264-.713c1.255.35,2.557.769,3.981,1.283a1.026,1.026,0,0,1,.617,1.314A1.027,1.027,0,0,1-1168.7,2011.389Zm-9.271-2.329a.973.973,0,0,1-.109-.006,19.256,19.256,0,0,0-3.889-.042,1.025,1.025,0,0,1-1.122-.921,1.026,1.026,0,0,1,.921-1.122,21.287,21.287,0,0,1,4.307.044,1.026,1.026,0,0,1,.913,1.129A1.027,1.027,0,0,1-1177.968,2009.06Z" transform="translate(1195.448 -1953.109)" fill="#41a3f3" opacity="0.5"/>
  <path id="Path_2331" data-name="Path 2331" d="M-651.692,2010.317c-.027,0-.055,0-.083,0a1.027,1.027,0,0,1-.942-1.1c.006-.069.14-1.727.531-4.171a1.022,1.022,0,0,1,1.176-.851,1.026,1.026,0,0,1,.851,1.175c-.377,2.357-.511,3.994-.512,4.01A1.027,1.027,0,0,1-651.692,2010.317Zm1.614-9.464a1.029,1.029,0,0,1-.251-.031,1.027,1.027,0,0,1-.746-1.246c.36-1.433.762-2.789,1.2-4.03a1.026,1.026,0,0,1,1.307-.63,1.027,1.027,0,0,1,.63,1.308c-.414,1.182-.8,2.478-1.143,3.852A1.027,1.027,0,0,1-650.078,2000.853Zm3.434-8.921a1.021,1.021,0,0,1-.529-.147,1.026,1.026,0,0,1-.349-1.409,13.985,13.985,0,0,1,2.792-3.419,1.026,1.026,0,0,1,1.447.111,1.026,1.026,0,0,1-.111,1.448,11.967,11.967,0,0,0-2.371,2.92A1.025,1.025,0,0,1-646.644,1991.932Zm7.415-5.679a1.027,1.027,0,0,1-.956-.652,1.027,1.027,0,0,1,.58-1.331c.572-.225,1.152-.443,1.734-.663.7-.263,1.4-.529,2.095-.807a1.027,1.027,0,0,1,1.334.573,1.026,1.026,0,0,1-.572,1.333c-.708.283-1.421.552-2.131.821-.573.216-1.145.433-1.709.654A1.036,1.036,0,0,1-639.229,1986.253Zm8.723-3.916a1.025,1.025,0,0,1-.855-.458,1.026,1.026,0,0,1,.285-1.423,12.224,12.224,0,0,0,2.806-2.519,1.027,1.027,0,0,1,1.443-.157,1.027,1.027,0,0,1,.157,1.443,14.249,14.249,0,0,1-3.267,2.941A1.026,1.026,0,0,1-630.506,1982.337Zm5.426-7.6a1.025,1.025,0,0,1-.261-.034,1.026,1.026,0,0,1-.732-1.253,18.731,18.731,0,0,0,.557-3.835,1.027,1.027,0,0,1,1.074-.976,1.026,1.026,0,0,1,.976,1.074,20.755,20.755,0,0,1-.622,4.258A1.027,1.027,0,0,1-625.08,1974.742Z" transform="translate(838.395 -1927.952)" fill="#41a3f3" opacity="0.5"/>
  <path id="Path_2332" data-name="Path 2332" d="M-651.692,2113.274a1.024,1.024,0,0,1-.75-.325,1.026,1.026,0,0,1,.047-1.449,20.826,20.826,0,0,1,3.533-2.522,1.027,1.027,0,0,1,1.4.374,1.026,1.026,0,0,1-.373,1.4,19.183,19.183,0,0,0-3.158,2.244A1.026,1.026,0,0,1-651.692,2113.274Zm21.531-2.68a1.021,1.021,0,0,1-.544-.157,15.306,15.306,0,0,0-3.481-1.618,1.026,1.026,0,0,1-.667-1.289,1.027,1.027,0,0,1,1.289-.667,17.342,17.342,0,0,1,3.948,1.835,1.026,1.026,0,0,1,.325,1.414A1.025,1.025,0,0,1-630.161,2110.594Zm-13.157-1.832a1.027,1.027,0,0,1-.989-.755,1.027,1.027,0,0,1,.719-1.261,18.709,18.709,0,0,1,4.283-.663,1.031,1.031,0,0,1,1.061.991,1.026,1.026,0,0,1-.99,1.061,16.643,16.643,0,0,0-3.812.592A1.032,1.032,0,0,1-643.319,2108.762Z" transform="translate(838.394 -2018.372)" fill="#41a3f3" opacity="0.5"/>
  <g id="Group_3195" data-name="Group 3195" transform="translate(73.604 46.334)">
    <ellipse id="Ellipse_121" data-name="Ellipse 121" cx="0.921" cy="0.921" rx="0.921" ry="0.921" fill="#e93817"/>
    <ellipse id="Ellipse_122" data-name="Ellipse 122" cx="0.921" cy="0.921" rx="0.921" ry="0.921" transform="translate(4.095)" fill="#ffaf03"/>
    <ellipse id="Ellipse_123" data-name="Ellipse 123" cx="0.921" cy="0.921" rx="0.921" ry="0.921" transform="translate(8.455)" fill="#45a735"/>
  </g>
  <g id="Group_3202" data-name="Group 3202" transform="translate(199.694 9.51)" opacity="0.5">
    <g id="Group_3198" data-name="Group 3198" transform="translate(0)">
      <g id="Group_3197" data-name="Group 3197">
        <g id="Group_3196" data-name="Group 3196">
          <path id="Path_2333" data-name="Path 2333" d="M-585.928,1878.352a.6.6,0,0,0-.584.056l-10.119,7.048a.555.555,0,0,0-.136.789.6.6,0,0,0,.815.127l7.26-5.057-12.975,15.57-7.274-1.466,8.778-6.114a.556.556,0,0,0,.136-.789.6.6,0,0,0-.815-.127l-9.855,6.865a.559.559,0,0,0-.233.576.571.571,0,0,0,.449.436l8.687,1.75,4.32,6.241a.141.141,0,0,0,.014.016.57.57,0,0,0,.292.205.59.59,0,0,0,.23.025.6.6,0,0,0,.392-.2l3.932-4.441,8.289,1.67a.6.6,0,0,0,.172.009.6.6,0,0,0,.336-.141.558.558,0,0,0,.2-.473l-1.97-22.117A.563.563,0,0,0-585.928,1878.352ZM-598,1898.026a.556.556,0,0,0-.075.33l.307,3.443-2.949-4.262,10.274-12.328Zm1.472,4.525-.315-3.538,2.926.589Zm11.673-2.278-11.734-2.365,10.011-16.982Z" transform="translate(611.216 -1878.028)" fill="#41a3f3"/>
          <path id="Path_2334" data-name="Path 2334" d="M-597.518,1904.254a.86.86,0,0,1-.256-.038.845.845,0,0,1-.419-.286l-.031-.04-4.259-6.153-8.579-1.729a.844.844,0,0,1-.663-.646.832.832,0,0,1,.344-.858l9.855-6.865a.87.87,0,0,1,1.191.189.818.818,0,0,1,.151.623.836.836,0,0,1-.351.554l-8.252,5.747,6.486,1.307,11.569-13.883-5.592,3.895a.871.871,0,0,1-1.191-.189.818.818,0,0,1-.152-.623.837.837,0,0,1,.351-.553l10.119-7.048a.88.88,0,0,1,.851-.082.837.837,0,0,1,.5.689l1.97,22.116a.836.836,0,0,1-.29.705.863.863,0,0,1-.49.206.872.872,0,0,1-.25-.014l-8.135-1.639-3.828,4.323a.862.862,0,0,1-.573.288C-597.467,1904.253-597.492,1904.254-597.518,1904.254Zm-3.508-16.223a.328.328,0,0,0-.186.058l-9.855,6.864a.287.287,0,0,0-.121.294.3.3,0,0,0,.236.224l8.795,1.772,4.383,6.332a.32.32,0,0,0,.161.116.371.371,0,0,0,.125.013.319.319,0,0,0,.211-.105l4.037-4.56,8.443,1.7a.285.285,0,0,0,.093.005.33.33,0,0,0,.183-.076.286.286,0,0,0,.1-.242l-1.97-22.116a.288.288,0,0,0-.175-.236h0a.328.328,0,0,0-.317.031L-597,1885.156a.293.293,0,0,0-.124.193.275.275,0,0,0,.051.209.321.321,0,0,0,.439.066l8.928-6.219-14.381,17.256-8.062-1.625,9.3-6.48a.292.292,0,0,0,.124-.193.273.273,0,0,0-.051-.209A.312.312,0,0,0-601.026,1888.031Zm3.758,14.653-.4-4.536,3.751.756Zm.206-3.855.226,2.54,1.874-2.116Zm-.866,3.452-3.657-5.285,10.407-12.488.446.314-7.556,12.818a.278.278,0,0,0-.038.166Zm-2.971-5.254,2.242,3.238-.215-2.41a.82.82,0,0,1,.112-.493h0l5.845-9.915Zm15.825,3.061-12.47-2.513,10.639-18.047Zm-11.608-2.9,11,2.216-1.615-18.132Z" transform="translate(611.743 -1877.503)" fill="#41a3f3"/>
        </g>
      </g>
    </g>
    <g id="Group_3201" data-name="Group 3201" transform="translate(11.73 8.675)">
      <g id="Group_3200" data-name="Group 3200">
        <g id="Group_3199" data-name="Group 3199">
          <path id="Path_2335" data-name="Path 2335" d="M-575.7,1903.79a.6.6,0,0,0-.426-.128.6.6,0,0,0-.4.2.56.56,0,0,0-.135.414.56.56,0,0,0,.206.382.6.6,0,0,0,.426.128.6.6,0,0,0,.4-.2.559.559,0,0,0,.135-.412A.561.561,0,0,0-575.7,1903.79Z" transform="translate(576.929 -1903.386)" fill="#41a3f3"/>
          <path id="Path_2336" data-name="Path 2336" d="M-576.6,1904.537a.872.872,0,0,1-.546-.191.832.832,0,0,1-.306-.571.834.834,0,0,1,.2-.616.873.873,0,0,1,.579-.3.879.879,0,0,1,.622.188h0a.839.839,0,0,1,.307.572.833.833,0,0,1-.2.616.872.872,0,0,1-.579.3C-576.549,1904.536-576.575,1904.537-576.6,1904.537Zm0-1.13h-.027a.328.328,0,0,0-.214.108.285.285,0,0,0-.069.21.282.282,0,0,0,.1.194.308.308,0,0,0,.23.069.327.327,0,0,0,.214-.108.285.285,0,0,0,.07-.21.283.283,0,0,0-.105-.194h0A.326.326,0,0,0-576.6,1903.407Z" transform="translate(577.455 -1902.86)" fill="#41a3f3"/>
        </g>
      </g>
    </g>
  </g>
  <g id="Group_3209" data-name="Group 3209" transform="translate(13.009 28.272)" opacity="0.5">
    <g id="Group_3205" data-name="Group 3205" transform="translate(0 0)">
      <g id="Group_3204" data-name="Group 3204">
        <g id="Group_3203" data-name="Group 3203">
          <path id="Path_2337" data-name="Path 2337" d="M-1156.583,1933.712l6.818,13.532a.382.382,0,0,0,.284.2.406.406,0,0,0,.245-.04.415.415,0,0,0,.1-.067l4.205-3.952,3.878,1.16a.4.4,0,0,0,.3-.027.4.4,0,0,0,.124-.1.39.39,0,0,0,.1-.225.065.065,0,0,0,0-.014l.258-5.173,4.407-4.142a.389.389,0,0,0,.1-.414.382.382,0,0,0-.342-.251l-6.754-.4a.406.406,0,0,0-.427.367.379.379,0,0,0,.363.409l5.86.352-3.69,3.469-13.128-4.357,6.03.319a.406.406,0,0,0,.427-.367.379.379,0,0,0-.363-.409l-8.4-.444a.41.41,0,0,0-.359.177A.385.385,0,0,0-1156.583,1933.712Zm5.114,1.962,10.395,3.45-.177,3.532-1.061-2.106a.376.376,0,0,0-.162-.164Zm7.195,7.1,1.484-1.4,1.091,2.165Zm-10.978-8.187,11.917,6.243-5.953,5.595Z" transform="translate(1156.896 -1932.871)" fill="#41a3f3"/>
          <path id="Path_2338" data-name="Path 2338" d="M-1149.944,1947.2a.692.692,0,0,1-.1-.008.658.658,0,0,1-.487-.352l-6.818-13.532a.659.659,0,0,1,.048-.667.69.69,0,0,1,.6-.3l8.4.444a.655.655,0,0,1,.463.224.644.644,0,0,1,.157.481.679.679,0,0,1-.714.617l-4-.211,11.043,3.666,3.109-2.922-5.226-.315a.657.657,0,0,1-.462-.224.645.645,0,0,1-.157-.481.68.68,0,0,1,.714-.617l6.755.4a.655.655,0,0,1,.584.431.663.663,0,0,1-.174.706l-4.326,4.067-.259,5.115a.634.634,0,0,1-.158.353.682.682,0,0,1-.207.161.68.68,0,0,1-.5.046l-3.727-1.115-4.09,3.844a.689.689,0,0,1-.16.112A.682.682,0,0,1-1149.944,1947.2Zm-6.8-14.309a.138.138,0,0,0-.112.059.111.111,0,0,0-.01.112l6.818,13.533a.108.108,0,0,0,.081.057.134.134,0,0,0,.081-.014.151.151,0,0,0,.033-.023l4.318-4.059,4.03,1.2a.128.128,0,0,0,.1-.009.141.141,0,0,0,.042-.033.123.123,0,0,0,.029-.068l.264-5.288,4.487-4.217a.116.116,0,0,0,.034-.123.108.108,0,0,0-.1-.069l-6.756-.4a.128.128,0,0,0-.137.116.1.1,0,0,0,.024.076.113.113,0,0,0,.08.037l6.495.391-4.271,4.014-15.212-5.049,8.059.426a.133.133,0,0,0,.14-.116.1.1,0,0,0-.024-.075.113.113,0,0,0-.08-.037l-8.4-.445Zm6.849,13.453-6.513-12.926,13.012,6.817Zm-5.257-11.65,5.416,10.75,5.406-5.08Zm13.455,8.764-3.639-1.088,2.1-1.971Zm-2.571-1.34,1.511.451-.64-1.27Zm2.71,1.062-1.527-3.031a.1.1,0,0,0-.046-.046l-8.994-4.712.213-.5,10.593,3.516Zm-7.328-6.71,6.01,3.149a.65.65,0,0,1,.279.284l.595,1.181.115-2.29Z" transform="translate(1157.422 -1932.345)" fill="#41a3f3"/>
        </g>
      </g>
    </g>
    <g id="Group_3208" data-name="Group 3208" transform="translate(10.847 0.547)">
      <g id="Group_3207" data-name="Group 3207">
        <g id="Group_3206" data-name="Group 3206">
          <path id="Path_2339" data-name="Path 2339" d="M-1124.9,1935.015a.407.407,0,0,1,.2-.227.407.407,0,0,1,.3-.026.385.385,0,0,1,.227.192.383.383,0,0,1,.018.3.407.407,0,0,1-.2.228.407.407,0,0,1-.3.026.382.382,0,0,1-.227-.191A.381.381,0,0,1-1124.9,1935.015Z" transform="translate(1125.192 -1934.471)" fill="#41a3f3"/>
          <path id="Path_2340" data-name="Path 2340" d="M-1125.06,1935.268a.656.656,0,0,1-.2-.031.654.654,0,0,1-.389-.328.663.663,0,0,1-.033-.51h0a.683.683,0,0,1,.336-.382.686.686,0,0,1,.506-.043.658.658,0,0,1,.391.33.656.656,0,0,1,.032.509.683.683,0,0,1-.336.382A.694.694,0,0,1-1125.06,1935.268Zm-.1-.688a.113.113,0,0,0,0,.084.109.109,0,0,0,.064.052.136.136,0,0,0,.1-.009.137.137,0,0,0,.065-.072.109.109,0,0,0,0-.083.109.109,0,0,0-.064-.053.135.135,0,0,0-.1.009A.134.134,0,0,0-1125.164,1934.579Z" transform="translate(1125.718 -1933.945)" fill="#41a3f3"/>
        </g>
      </g>
    </g>
  </g>
  <g id="Group_3212" data-name="Group 3212" transform="translate(176.579)" opacity="0.5">
    <g id="Group_3210" data-name="Group 3210" transform="translate(4.847)">
      <path id="Path_2341" data-name="Path 2341" d="M-663.082,1862.012a.807.807,0,0,1-.807-.807v-9.443a.806.806,0,0,1,.807-.807.807.807,0,0,1,.807.807v9.443A.807.807,0,0,1-663.082,1862.012Z" transform="translate(664.317 -1850.527)" fill="#41a3f3"/>
      <path id="Path_2342" data-name="Path 2342" d="M-663.905,1861.618a1.236,1.236,0,0,1-1.235-1.234v-9.443a1.236,1.236,0,0,1,1.235-1.234,1.236,1.236,0,0,1,1.235,1.234v9.443A1.236,1.236,0,0,1-663.905,1861.618Zm0-11.056a.38.38,0,0,0-.379.379v9.443a.38.38,0,0,0,.379.379.38.38,0,0,0,.379-.379v-9.443A.38.38,0,0,0-663.905,1850.562Z" transform="translate(665.14 -1849.706)" fill="#41a3f3"/>
    </g>
    <g id="Group_3211" data-name="Group 3211" transform="translate(0 4.721)">
      <path id="Path_2343" data-name="Path 2343" d="M-667.558,1866.37h-9.694a.807.807,0,0,1-.807-.807.807.807,0,0,1,.807-.807h9.694a.807.807,0,0,1,.807.807A.807.807,0,0,1-667.558,1866.37Z" transform="translate(678.486 -1864.328)" fill="#41a3f3"/>
      <path id="Path_2344" data-name="Path 2344" d="M-668.38,1865.975h-9.694a1.236,1.236,0,0,1-1.234-1.235,1.236,1.236,0,0,1,1.234-1.235h9.694a1.236,1.236,0,0,1,1.235,1.235A1.236,1.236,0,0,1-668.38,1865.975Zm-9.694-1.614a.379.379,0,0,0-.379.38.38.38,0,0,0,.379.379h9.694a.38.38,0,0,0,.379-.379.38.38,0,0,0-.379-.38Z" transform="translate(679.308 -1863.506)" fill="#41a3f3"/>
    </g>
  </g>
  <g id="Group_3215" data-name="Group 3215" transform="translate(210.913 90.709)" opacity="0.5">
    <g id="Group_3213" data-name="Group 3213" transform="translate(4.847 0)">
      <path id="Path_2345" data-name="Path 2345" d="M-562.723,2127.156a.806.806,0,0,1-.807-.807v-9.442a.807.807,0,0,1,.807-.807.807.807,0,0,1,.807.807v9.442A.806.806,0,0,1-562.723,2127.156Z" transform="translate(563.958 -2115.671)" fill="#41a3f3"/>
      <path id="Path_2346" data-name="Path 2346" d="M-563.545,2126.761a1.236,1.236,0,0,1-1.235-1.235v-9.442a1.236,1.236,0,0,1,1.235-1.235,1.236,1.236,0,0,1,1.235,1.235v9.442A1.236,1.236,0,0,1-563.545,2126.761Zm0-11.057a.38.38,0,0,0-.379.379v9.442a.38.38,0,0,0,.379.379.38.38,0,0,0,.379-.379v-9.442A.38.38,0,0,0-563.545,2115.7Z" transform="translate(564.78 -2114.849)" fill="#41a3f3"/>
    </g>
    <g id="Group_3214" data-name="Group 3214" transform="translate(0 4.721)">
      <path id="Path_2347" data-name="Path 2347" d="M-567.2,2131.513h-9.694a.807.807,0,0,1-.807-.808.807.807,0,0,1,.807-.807h9.694a.807.807,0,0,1,.807.807A.807.807,0,0,1-567.2,2131.513Z" transform="translate(578.127 -2129.471)" fill="#41a3f3"/>
      <path id="Path_2348" data-name="Path 2348" d="M-568.02,2131.118h-9.694a1.236,1.236,0,0,1-1.235-1.235,1.236,1.236,0,0,1,1.235-1.235h9.694a1.237,1.237,0,0,1,1.235,1.235A1.236,1.236,0,0,1-568.02,2131.118Zm-9.694-1.614a.38.38,0,0,0-.379.38.38.38,0,0,0,.379.38h9.694a.38.38,0,0,0,.379-.38.38.38,0,0,0-.379-.38Z" transform="translate(578.949 -2128.649)" fill="#41a3f3"/>
    </g>
  </g>
  <g id="Group_3218" data-name="Group 3218" transform="translate(74.23 1.279)" opacity="0.5">
    <g id="Group_3216" data-name="Group 3216" transform="translate(2.778)">
      <path id="Path_2349" data-name="Path 2349" d="M-968.394,1861.28a.462.462,0,0,1-.462-.463v-5.41a.462.462,0,0,1,.462-.462.462.462,0,0,1,.463.462v5.41A.462.462,0,0,1-968.394,1861.28Z" transform="translate(969.369 -1854.432)" fill="#41a3f3"/>
      <path id="Path_2350" data-name="Path 2350" d="M-969.381,1860.807a.977.977,0,0,1-.975-.975v-5.411a.977.977,0,0,1,.975-.976.977.977,0,0,1,.976.976v5.411A.977.977,0,0,1-969.381,1860.807Z" transform="translate(970.356 -1853.445)" fill="#41a3f3"/>
    </g>
    <g id="Group_3217" data-name="Group 3217" transform="translate(0 2.705)">
      <path id="Path_2351" data-name="Path 2351" d="M-970.958,1863.777h-5.555a.463.463,0,0,1-.462-.463.462.462,0,0,1,.462-.462h5.555a.462.462,0,0,1,.462.462A.462.462,0,0,1-970.958,1863.777Z" transform="translate(977.488 -1862.339)" fill="#41a3f3"/>
      <path id="Path_2352" data-name="Path 2352" d="M-971.945,1863.3H-977.5a.977.977,0,0,1-.975-.975.977.977,0,0,1,.975-.976h5.555a.977.977,0,0,1,.975.976A.976.976,0,0,1-971.945,1863.3Z" transform="translate(978.475 -1861.352)" fill="#41a3f3"/>
    </g>
  </g>
  <g id="Group_3221" data-name="Group 3221" transform="translate(151.324 12.521)" opacity="0.5">
    <g id="Group_3219" data-name="Group 3219" transform="translate(2.777)">
      <path id="Path_2353" data-name="Path 2353" d="M-743.049,1894.139a.462.462,0,0,1-.462-.462v-5.411a.462.462,0,0,1,.462-.463.462.462,0,0,1,.463.463v5.411A.462.462,0,0,1-743.049,1894.139Z" transform="translate(744.024 -1887.291)" fill="#41a3f3"/>
      <path id="Path_2354" data-name="Path 2354" d="M-744.035,1893.666a.977.977,0,0,1-.976-.976v-5.411a.977.977,0,0,1,.976-.976.976.976,0,0,1,.975.976v5.411A.977.977,0,0,1-744.035,1893.666Z" transform="translate(745.011 -1886.304)" fill="#41a3f3"/>
    </g>
    <g id="Group_3220" data-name="Group 3220" transform="translate(0 2.705)">
      <path id="Path_2355" data-name="Path 2355" d="M-745.612,1896.637h-5.555a.462.462,0,0,1-.462-.463.462.462,0,0,1,.462-.462h5.555a.462.462,0,0,1,.463.462A.462.462,0,0,1-745.612,1896.637Z" transform="translate(752.142 -1895.199)" fill="#41a3f3"/>
      <path id="Path_2356" data-name="Path 2356" d="M-746.6,1896.163h-5.555a.977.977,0,0,1-.975-.976.977.977,0,0,1,.975-.976h5.555a.977.977,0,0,1,.975.976A.977.977,0,0,1-746.6,1896.163Z" transform="translate(753.129 -1894.211)" fill="#41a3f3"/>
    </g>
  </g>
  <g id="Group_3222" data-name="Group 3222" transform="translate(121.388 3.918)" opacity="0.5">
    <path id="Path_2357" data-name="Path 2357" d="M-835.7,1869.924a3.839,3.839,0,0,1-3.834-3.834,3.839,3.839,0,0,1,3.834-3.833,3.839,3.839,0,0,1,3.834,3.833A3.839,3.839,0,0,1-835.7,1869.924Zm0-6.034a2.2,2.2,0,0,0-2.2,2.2,2.2,2.2,0,0,0,2.2,2.2,2.2,2.2,0,0,0,2.2-2.2A2.2,2.2,0,0,0-835.7,1863.891Z" transform="translate(839.907 -1861.881)" fill="#41a3f3"/>
    <path id="Path_2358" data-name="Path 2358" d="M-836.421,1869.578a4.215,4.215,0,0,1-4.21-4.211,4.214,4.214,0,0,1,4.21-4.209,4.214,4.214,0,0,1,4.21,4.209A4.215,4.215,0,0,1-836.421,1869.578Zm0-7.668a3.461,3.461,0,0,0-3.457,3.456,3.462,3.462,0,0,0,3.457,3.459,3.462,3.462,0,0,0,3.457-3.459A3.461,3.461,0,0,0-836.421,1861.91Zm0,6.034a2.579,2.579,0,0,1-2.576-2.577,2.578,2.578,0,0,1,2.576-2.575,2.578,2.578,0,0,1,2.576,2.575A2.579,2.579,0,0,1-836.421,1867.944Zm0-4.4a1.825,1.825,0,0,0-1.823,1.823,1.826,1.826,0,0,0,1.823,1.825,1.826,1.826,0,0,0,1.823-1.825A1.825,1.825,0,0,0-836.421,1863.544Z" transform="translate(840.631 -1861.158)" fill="#41a3f3"/>
  </g>
  <g id="Group_3223" data-name="Group 3223" transform="translate(49.637 17.869)" opacity="0.5">
    <path id="Path_2359" data-name="Path 2359" d="M-1047.158,1907.335a2.2,2.2,0,0,1-2.2-2.2,2.2,2.2,0,0,1,2.2-2.2,2.2,2.2,0,0,1,2.2,2.2A2.2,2.2,0,0,1-1047.158,1907.335Zm0-3.462a1.263,1.263,0,0,0-1.262,1.262,1.264,1.264,0,0,0,1.262,1.263,1.264,1.264,0,0,0,1.262-1.263A1.263,1.263,0,0,0-1047.158,1903.873Z" transform="translate(1049.7 -1902.594)" fill="#41a3f3"/>
    <path id="Path_2360" data-name="Path 2360" d="M-1047.816,1907.02a2.545,2.545,0,0,1-2.542-2.542,2.544,2.544,0,0,1,2.542-2.541,2.544,2.544,0,0,1,2.542,2.541A2.545,2.545,0,0,1-1047.816,1907.02Zm0-4.4a1.859,1.859,0,0,0-1.857,1.857,1.86,1.86,0,0,0,1.857,1.858,1.86,1.86,0,0,0,1.858-1.858A1.859,1.859,0,0,0-1047.816,1902.62Zm0,3.461a1.606,1.606,0,0,1-1.6-1.6,1.606,1.606,0,0,1,1.6-1.6,1.606,1.606,0,0,1,1.6,1.6A1.606,1.606,0,0,1-1047.816,1906.082Zm0-2.524a.921.921,0,0,0-.92.92.921.921,0,0,0,.92.92.921.921,0,0,0,.92-.92A.921.921,0,0,0-1047.816,1903.557Z" transform="translate(1050.358 -1901.936)" fill="#41a3f3"/>
  </g>
  <g id="Group_3224" data-name="Group 3224" transform="translate(95.073 15.669)" opacity="0.5">
    <path id="Path_2361" data-name="Path 2361" d="M-914.35,1900.905a2.2,2.2,0,0,1-2.2-2.2,2.2,2.2,0,0,1,2.2-2.2,2.2,2.2,0,0,1,2.2,2.2A2.2,2.2,0,0,1-914.35,1900.905Zm0-3.462a1.263,1.263,0,0,0-1.262,1.262,1.264,1.264,0,0,0,1.262,1.263,1.264,1.264,0,0,0,1.262-1.263A1.263,1.263,0,0,0-914.35,1897.443Z" transform="translate(916.892 -1896.164)" fill="#41a3f3"/>
    <path id="Path_2362" data-name="Path 2362" d="M-915.008,1900.59a2.545,2.545,0,0,1-2.542-2.543,2.545,2.545,0,0,1,2.542-2.541,2.545,2.545,0,0,1,2.542,2.541A2.545,2.545,0,0,1-915.008,1900.59Zm0-4.4a1.86,1.86,0,0,0-1.858,1.857,1.86,1.86,0,0,0,1.858,1.859,1.86,1.86,0,0,0,1.858-1.859A1.859,1.859,0,0,0-915.008,1896.19Zm0,3.462a1.606,1.606,0,0,1-1.6-1.6,1.605,1.605,0,0,1,1.6-1.6,1.606,1.606,0,0,1,1.6,1.6A1.607,1.607,0,0,1-915.008,1899.652Zm0-2.524a.921.921,0,0,0-.92.919.921.921,0,0,0,.92.921.921.921,0,0,0,.92-.921A.921.921,0,0,0-915.008,1897.128Z" transform="translate(917.55 -1895.506)" fill="#41a3f3"/>
  </g>
  <g id="Group_3225" data-name="Group 3225" transform="translate(10.652 84.722)">
    <path id="Path_2363" data-name="Path 2363" d="M-1155.454,2115.065a8.868,8.868,0,0,1-8.858-8.858,8.869,8.869,0,0,1,8.858-8.858,8.868,8.868,0,0,1,8.858,8.858A8.868,8.868,0,0,1-1155.454,2115.065Zm0-15.664a6.813,6.813,0,0,0-6.806,6.806,6.814,6.814,0,0,0,6.806,6.806,6.814,6.814,0,0,0,6.806-6.806A6.813,6.813,0,0,0-1155.454,2099.4Z" transform="translate(1164.312 -2097.348)" fill="#41a3f3" opacity="0.5"/>
    <path id="Path_2364" data-name="Path 2364" d="M-1147.339,2120.809l-2.481-2.992a1.026,1.026,0,0,1,.135-1.445,1.027,1.027,0,0,1,1.445.135l.978,1.179,3.425-3.74a1.027,1.027,0,0,1,1.45-.064,1.026,1.026,0,0,1,.063,1.45Z" transform="translate(1154.933 -2108.049)" fill="#41a3f3" opacity="0.5"/>
  </g>
  <g id="Group_3227" data-name="Group 3227" transform="translate(93.302 19.793)">
    <g id="Group_3226" data-name="Group 3226">
      <path id="Path_2365" data-name="Path 2365" d="M-866.01,1985.736a11.888,11.888,0,0,0-11.076-7.611,11.81,11.81,0,0,0-6.125,1.7,11.746,11.746,0,0,0-1.519-2.88,3.213,3.213,0,0,0,1.222-1.013,3.2,3.2,0,0,0,.476-2.882l-.956-3.029a3.689,3.689,0,0,0,1.027-2.256l9.872,4.443a2.676,2.676,0,0,0,1.1.236,2.673,2.673,0,0,0,1.631-.555,2.673,2.673,0,0,0,1.01-2.556l-1.854-11.282a12.643,12.643,0,0,0-6.48-9.048l-5.264-2.812v-15.547a25.73,25.73,0,0,0-2.5-11.027l-4.4-9.206a4.972,4.972,0,0,0-4.522-2.851,4.972,4.972,0,0,0-4.522,2.851l-4.4,9.206a25.732,25.732,0,0,0-2.5,11.027v15.547l-5.264,2.812a12.645,12.645,0,0,0-6.48,9.049l-1.854,11.282a2.672,2.672,0,0,0,1.01,2.556,2.673,2.673,0,0,0,1.631.555,2.675,2.675,0,0,0,1.1-.236l9.872-4.443a3.683,3.683,0,0,0,.841,2.049l-1.021,3.236a3.2,3.2,0,0,0,.475,2.883,3.213,3.213,0,0,0,1.414,1.1,11.719,11.719,0,0,0-1.46,2.8,11.809,11.809,0,0,0-6.125-1.7,11.888,11.888,0,0,0-11.075,7.611h3.407a8.789,8.789,0,0,1,7.669-4.516,8.734,8.734,0,0,1,6,2.38,1.547,1.547,0,0,0,1.577.331,1.548,1.548,0,0,0,1.016-1.251,8.7,8.7,0,0,1,2.931-5.425h11.509a8.7,8.7,0,0,1,2.932,5.425,1.548,1.548,0,0,0,1.016,1.251,1.547,1.547,0,0,0,1.577-.331,8.734,8.734,0,0,1,6-2.38,8.789,8.789,0,0,1,7.669,4.516Zm-50.2-16.668,1.727-10.513a9.532,9.532,0,0,1,4.885-6.821l3.806-2.033v14.678Zm29.33,2.084.893,2.831a.126.126,0,0,1-.021.121.125.125,0,0,1-.109.056h-16.761a.126.126,0,0,1-.11-.056.127.127,0,0,1-.02-.121l.893-2.831h15.234Zm7.735-19.418a9.531,9.531,0,0,1,4.885,6.821l1.727,10.513-10.418-4.689V1949.7Zm-23.552-21.089a22.623,22.623,0,0,1,2.2-9.692l4.4-9.206a1.878,1.878,0,0,1,1.73-1.091,1.878,1.878,0,0,1,1.73,1.091l4.4,9.206a22.618,22.618,0,0,1,2.2,9.693v36.809a.6.6,0,0,1-.6.6h-15.446a.6.6,0,0,1-.6-.6v-36.809Z" transform="translate(922.726 -1907.562)" fill="#41a3f3"/>
      <path id="Path_2366" data-name="Path 2366" d="M-847.409,1982.411a3.943,3.943,0,0,0,3.938-3.938,3.943,3.943,0,0,0-3.938-3.938,3.943,3.943,0,0,0-3.938,3.938A3.943,3.943,0,0,0-847.409,1982.411Z" transform="translate(875.767 -1951.622)" fill="#5abe2b"/>
    </g>
  </g>
  <path id="Path_2367" data-name="Path 2367" d="M-744.883,2142.515a1.369,1.369,0,0,1-1.306-.963A17.769,17.769,0,0,0-763.244,2129a17.8,17.8,0,0,0-12.11,4.735,1.369,1.369,0,0,1-1.934-.077,1.369,1.369,0,0,1,.077-1.934,20.528,20.528,0,0,1,13.967-5.461,20.494,20.494,0,0,1,19.669,14.483,1.368,1.368,0,0,1-.9,1.713A1.382,1.382,0,0,1-744.883,2142.515Z" transform="translate(920.585 -2031.645)" fill="#41a3f3"/>
  <path id="Path_2368" data-name="Path 2368" d="M-999.937,2142.515a1.378,1.378,0,0,1-.406-.062,1.368,1.368,0,0,1-.9-1.713,20.494,20.494,0,0,1,19.669-14.483,20.529,20.529,0,0,1,13.967,5.461,1.369,1.369,0,0,1,.077,1.934,1.369,1.369,0,0,1-1.934.077,17.8,17.8,0,0,0-12.11-4.735,17.769,17.769,0,0,0-17.055,12.557A1.368,1.368,0,0,1-999.937,2142.515Z" transform="translate(1067.725 -2031.645)" fill="#41a3f3"/>
</svg>
