<svg xmlns="http://www.w3.org/2000/svg" width="75.222" height="58.462" viewBox="0 0 75.222 58.462">
  <g id="Group_5402" data-name="Group 5402" transform="translate(-802.1 -1119.07)">
    <g id="Group_5396" data-name="Group 5396" transform="translate(802.1 1119.07)">
      <g id="Group_3127" data-name="Group 3127" transform="translate(0)">
        <path id="Path_2142" data-name="Path 2142" d="M-111.523,865.453H-112.8V829.006a1.711,1.711,0,0,0-1.709-1.709h-55.845a1.711,1.711,0,0,0-1.709,1.709v36.447h-1.281V829.006a2.993,2.993,0,0,1,2.989-2.989h55.845a2.993,2.993,0,0,1,2.989,2.989Z" transform="translate(180.083 -811.502)" fill="#41a3f3"/>
        <path id="Path_2143" data-name="Path 2143" d="M-91.809,885.716a.64.64,0,0,1-.64-.64V855.758a1.7,1.7,0,0,0-1.709-1.7h-46.065a1.7,1.7,0,0,0-1.709,1.7v29.318a.64.64,0,0,1-.64.64.64.64,0,0,1-.64-.64V855.758a2.987,2.987,0,0,1,2.989-2.977h46.065a2.987,2.987,0,0,1,2.989,2.977v29.318A.64.64,0,0,1-91.809,885.716Z" transform="translate(154.773 -833.982)" fill="#41a3f3"/>
        <path id="Path_2144" data-name="Path 2144" d="M153.674,1074.385" transform="translate(-94.592 -1020.114)" fill="#41a3f3" opacity="0.43"/>
        <path id="Path_2145" data-name="Path 2145" d="M130.884,1074.385" transform="translate(-75.449 -1020.114)" fill="#41a3f3" opacity="0.43"/>
        <g id="Group_3119" data-name="Group 3119" transform="translate(0 53.631)">
          <path id="Path_2146" data-name="Path 2146" d="M-144.4,1075.217h-66.841a4.2,4.2,0,0,1-4.19-4.19.64.64,0,0,1,.64-.64h45.355a.64.64,0,0,1,.64.64.64.64,0,0,1-.64.64H-214.08a2.915,2.915,0,0,0,2.839,2.27H-144.4a2.915,2.915,0,0,0,2.839-2.27h-14.788a.64.64,0,0,1-.64-.64.64.64,0,0,1,.64-.64h15.5a.64.64,0,0,1,.64.64A4.2,4.2,0,0,1-144.4,1075.217Z" transform="translate(215.432 -1070.386)" fill="#41a3f3"/>
          <path id="Path_2147" data-name="Path 2147" d="M110.775,1071.666h-3.192a.64.64,0,1,1,0-1.281h3.192a.64.64,0,1,1,0,1.281Z" transform="translate(-55.341 -1070.386)" fill="#41a3f3"/>
        </g>
        <path id="Path_2148" data-name="Path 2148" d="M110.943,1074.385" transform="translate(-58.7 -1020.114)" fill="#41a3f3" opacity="0.43"/>
        <path id="Path_2149" data-name="Path 2149" d="M71.916,1074.385" transform="translate(-25.92 -1020.114)" fill="#41a3f3" opacity="0.43"/>
        <path id="Rectangle_815" data-name="Rectangle 815" d="M4.479,0h41.8a4.479,4.479,0,0,1,4.479,4.479v0a0,0,0,0,1,0,0H0a0,0,0,0,1,0,0v0A4.479,4.479,0,0,1,4.479,0Z" transform="translate(12.2 19.439)" fill="#41a3f3" opacity="0.3"/>
        <g id="Group_3121" data-name="Group 3121" transform="translate(15.004 21.679)">
          <ellipse id="Ellipse_115" data-name="Ellipse 115" cx="0.431" cy="0.431" rx="0.431" ry="0.431" fill="#e93817"/>
          <ellipse id="Ellipse_116" data-name="Ellipse 116" cx="0.431" cy="0.431" rx="0.431" ry="0.431" transform="translate(1.916)" fill="#ffaf03"/>
          <ellipse id="Ellipse_117" data-name="Ellipse 117" cx="0.431" cy="0.431" rx="0.431" ry="0.431" transform="translate(3.956)" fill="#47a835"/>
        </g>
        <path id="Path_2160" data-name="Path 2160" d="M184.411,737.547h-1.69v-1.632a.578.578,0,0,0-1.155,0v1.632h-1.69a.578.578,0,0,0,0,1.155h1.69v1.631a.578.578,0,1,0,1.155,0V738.7h1.69a.578.578,0,1,0,0-1.155Z" transform="translate(-116.114 -735.338)" fill="#41a3f3" opacity="0.3"/>
        <path id="Path_2162" data-name="Path 2162" d="M-116.814,740.343h-.843v-.809a.457.457,0,0,0-.457-.457.457.457,0,0,0-.456.457v.809h-.843a.457.457,0,0,0-.457.456.457.457,0,0,0,.457.457h.843v.809a.457.457,0,0,0,.456.456.457.457,0,0,0,.457-.456v-.809h.843a.457.457,0,0,0,.456-.457A.457.457,0,0,0-116.814,740.343Z" transform="translate(135.166 -738.479)" fill="#41a3f3" opacity="0.3"/>
        <path id="Path_2163" data-name="Path 2163" d="M108.532,788.194h-.843v-.809a.457.457,0,0,0-.913,0v.809h-.843a.456.456,0,0,0,0,.913h.843v.809a.457.457,0,0,0,.913,0v-.809h.843a.456.456,0,1,0,0-.913Z" transform="translate(-54.109 -778.67)" fill="#41a3f3" opacity="0.3"/>
        <path id="Path_2164" data-name="Path 2164" d="M19.945,746.79a1.97,1.97,0,1,0,1.97,1.969A1.972,1.972,0,0,0,19.945,746.79Zm.853,1.969a.853.853,0,1,1-.853-.853A.854.854,0,0,1,20.8,748.759Z" transform="translate(19.386 -744.957)" fill="#41a3f3" opacity="0.3"/>
        <path id="Path_2165" data-name="Path 2165" d="M-190.564,787.569a1.19,1.19,0,0,0-1.189,1.189,1.191,1.191,0,0,0,1.189,1.19,1.191,1.191,0,0,0,1.189-1.19A1.19,1.19,0,0,0-190.564,787.569Zm.43,1.189a.431.431,0,0,1-.43.431.431.431,0,0,1-.43-.431.431.431,0,0,1,.43-.43A.431.431,0,0,1-190.133,788.758Z" transform="translate(195.543 -779.208)" fill="#41a3f3" opacity="0.3"/>
        <path id="Path_2166" data-name="Path 2166" d="M-57.755,781.139a1.191,1.191,0,0,0-1.189,1.189,1.191,1.191,0,0,0,1.189,1.189,1.191,1.191,0,0,0,1.189-1.189A1.191,1.191,0,0,0-57.755,781.139Zm.43,1.189a.431.431,0,0,1-.43.431.431.431,0,0,1-.43-.431.431.431,0,0,1,.43-.43A.431.431,0,0,1-57.324,782.328Z" transform="translate(83.993 -773.807)" fill="#41a3f3" opacity="0.3"/>
        <g id="Group_3125" data-name="Group 3125" transform="translate(15.648 26.52)" opacity="0.3">
          <path id="Path_2167" data-name="Path 2167" d="M-98.38,902.615h-16.932a.8.8,0,0,1-.8-.8.8.8,0,0,1,.8-.8H-98.38a.8.8,0,0,1,.8.8A.8.8,0,0,1-98.38,902.615Z" transform="translate(116.362 -901.014)" fill="#41a3f3"/>
          <path id="Path_2168" data-name="Path 2168" d="M25.821,902.615H20.094a.8.8,0,0,1,0-1.6h5.727a.8.8,0,0,1,0,1.6Z" transform="translate(2.63 -901.014)" fill="#41a3f3"/>
          <g id="Group_3124" data-name="Group 3124" transform="translate(30.982 13.738)">
            <path id="Path_2169" data-name="Path 2169" d="M101.988,987.958H92.593a.56.56,0,0,1,0-1.121h9.395a.56.56,0,0,1,0,1.121Z" transform="translate(-89.447 -986.838)" fill="#41a3f3"/>
            <path id="Path_2170" data-name="Path 2170" d="M98.628,1006.972H88.593a.56.56,0,1,1,0-1.12H98.628a.56.56,0,1,1,0,1.12Z" transform="translate(-86.088 -1002.808)" fill="#41a3f3"/>
            <path id="Path_2171" data-name="Path 2171" d="M88.42,1025.188H76.44a.56.56,0,0,1,0-1.12H88.42a.56.56,0,0,1,0,1.12Z" transform="translate(-75.88 -1018.109)" fill="#41a3f3"/>
          </g>
          <path id="Path_2172" data-name="Path 2172" d="M-106.153,1025.787h-10.515a.56.56,0,0,1-.56-.56.56.56,0,0,1,.56-.56h10.515a.56.56,0,0,1,.56.56A.56.56,0,0,1-106.153,1025.787Z" transform="translate(117.299 -1004.874)" fill="#41a3f3"/>
          <path id="Path_2173" data-name="Path 2173" d="M-106.306,937.819a.8.8,0,0,0-.659-.346h-9.908a.8.8,0,0,0-.8.8v10.615a.8.8,0,0,0,.788.8l9.308.143h.012a.8.8,0,0,0,.65-.333.8.8,0,0,0,.1-.734,14.806,14.806,0,0,1-.838-4.953,13.01,13.01,0,0,1,1.177-4.595c.087-.223.172-.442.255-.659A.8.8,0,0,0-106.306,937.819Z" transform="translate(117.673 -931.637)" fill="#41a3f3"/>
          <rect id="Rectangle_816" data-name="Rectangle 816" width="10.995" height="4.232" rx="2.116" transform="translate(33.087 6.356)" fill="#41a3f3"/>
        </g>
      </g>
      <g id="Group_3128" data-name="Group 3128" transform="translate(28.827 31.041)">
        <path id="Path_2176" data-name="Path 2176" d="M-26.97,946.011a8.383,8.383,0,0,1-8.374-8.374,8.383,8.383,0,0,1,8.374-8.374,8.383,8.383,0,0,1,8.374,8.374A8.383,8.383,0,0,1-26.97,946.011Z" transform="translate(35.344 -929.263)" fill="#5abe2b"/>
      </g>
      <path id="Path_2177" data-name="Path 2177" d="M-2.91,969.417h-.016a.64.64,0,0,1-.477-.231l-1.708-2.059a.64.64,0,0,1,.084-.9.64.64,0,0,1,.9.084l1.239,1.494,3.671-4.008a.64.64,0,1,1,.944.865l-4.166,4.55A.64.64,0,0,1-2.91,969.417Z" transform="translate(38.9 -927.051)" fill="#fff"/>
    </g>
  </g>
</svg>
