<svg xmlns="http://www.w3.org/2000/svg" width="75.427" height="49.335" viewBox="0 0 75.427 49.335">
  <g id="Group_5393" data-name="Group 5393" transform="translate(-27.88 -13.286)">
    <path id="Path_2312" data-name="Path 2312" d="M-898.451,1944.6l4.931-.16,1.664-.134a1.387,1.387,0,0,0,.523-.442,1.415,1.415,0,0,0,.2-1.257l-.41-1.321a1.618,1.618,0,0,0,.44-.983l4.23,1.937a1.126,1.126,0,0,0,.471.1,1.133,1.133,0,0,0,.7-.242,1.175,1.175,0,0,0,.433-1.114l-.794-4.918a5.508,5.508,0,0,0-2.777-3.945l-2.256-1.226v-6.778a11.377,11.377,0,0,0-1.071-4.807l-1.885-4.013a2.128,2.128,0,0,0-1.938-1.243,2.128,2.128,0,0,0-1.938,1.243l-1.885,4.013a11.382,11.382,0,0,0-1.071,4.807v6.778l-2.255,1.226a5.507,5.507,0,0,0-2.777,3.945l-.794,4.918a1.176,1.176,0,0,0,.433,1.114,1.133,1.133,0,0,0,.7.242,1.126,1.126,0,0,0,.471-.1l4.23-1.937a1.623,1.623,0,0,0,.361.894l-.437,1.41a1.414,1.414,0,0,0,.2,1.257,1.379,1.379,0,0,0,.606.478Z" transform="translate(961.457 -1899.726)" fill="#41a3f3" opacity="0.1"/>
    <path id="Path_2313" data-name="Path 2313" d="M-777.123,1980.569a.642.642,0,0,1-.642-.642v-36.546a1.716,1.716,0,0,0-1.714-1.714H-800.84a.642.642,0,0,1-.642-.642.642.642,0,0,1,.642-.642h21.361a3,3,0,0,1,3,3v36.546A.642.642,0,0,1-777.123,1980.569Z" transform="translate(873.109 -1921.83)" fill="#41a3f3"/>
    <path id="Path_2314" data-name="Path 2314" d="M-1031.311,1980.569a.642.642,0,0,1-.642-.642v-36.546a3,3,0,0,1,3-3h21.344a.642.642,0,0,1,.642.642.642.642,0,0,1-.642.642h-21.344a1.716,1.716,0,0,0-1.713,1.714v36.546A.642.642,0,0,1-1031.311,1980.569Z" transform="translate(1066.588 -1921.83)" fill="#41a3f3"/>
    <path id="Path_2315" data-name="Path 2315" d="M-793.872,2000.335a.642.642,0,0,1-.642-.642v-29.559a1.709,1.709,0,0,0-1.714-1.7h-18.643a.642.642,0,0,1-.642-.642.642.642,0,0,1,.642-.642h18.643a3,3,0,0,1,3,2.985v29.559A.642.642,0,0,1-793.872,2000.335Z" transform="translate(884.888 -1944.299)" fill="#41a3f3"/>
    <path id="Path_2316" data-name="Path 2316" d="M-1001.176,2000.474a.642.642,0,0,1-.642-.642v-29.7a3,3,0,0,1,3-2.985h18.459a.642.642,0,0,1,.642.642.642.642,0,0,1-.642.642H-998.82a1.709,1.709,0,0,0-1.714,1.7v29.7A.642.642,0,0,1-1001.176,2000.474Z" transform="translate(1041.29 -1944.299)" fill="#41a3f3"/>
    <path id="Path_2317" data-name="Path 2317" d="M-704.932,2188.753" transform="translate(792.056 -2130.334)" fill="#41a3f3" opacity="0.43"/>
    <path id="Path_2318" data-name="Path 2318" d="M-727.722,2188.753" transform="translate(811.188 -2130.334)" fill="#41a3f3" opacity="0.43"/>
    <g id="Group_3193" data-name="Group 3193" transform="translate(27.88 57.777)">
      <path id="Path_2319" data-name="Path 2319" d="M-1002.812,2189.6h-67.024a4.207,4.207,0,0,1-4.2-4.2.642.642,0,0,1,.642-.642h45.479a.642.642,0,0,1,.642.642.642.642,0,0,1-.642.642h-44.766a2.923,2.923,0,0,0,2.847,2.276h67.024a2.923,2.923,0,0,0,2.847-2.276h-14.829a.642.642,0,0,1-.642-.642.642.642,0,0,1,.642-.642h15.542a.642.642,0,0,1,.642.642A4.207,4.207,0,0,1-1002.812,2189.6Z" transform="translate(1074.038 -2184.752)" fill="#41a3f3"/>
      <path id="Path_2320" data-name="Path 2320" d="M-747.82,2186.036h-3.2a.642.642,0,0,1-.642-.642.642.642,0,0,1,.642-.642h3.2a.642.642,0,0,1,.642.642A.642.642,0,0,1-747.82,2186.036Z" transform="translate(803.406 -2184.752)" fill="#41a3f3"/>
    </g>
    <path id="Path_2321" data-name="Path 2321" d="M-747.663,2188.753" transform="translate(827.928 -2130.334)" fill="#41a3f3" opacity="0.43"/>
    <path id="Path_2322" data-name="Path 2322" d="M-786.69,2188.753" transform="translate(860.691 -2130.334)" fill="#41a3f3" opacity="0.43"/>
    <path id="Path_2323" data-name="Path 2323" d="M-977.115,1975.64h-20.7v-2.318a2.173,2.173,0,0,1,2.173-2.173h18.53Z" transform="translate(1037.932 -1947.657)" fill="#41a3f3" opacity="0.3"/>
    <path id="Path_2324" data-name="Path 2324" d="M-869.765,1999.132" transform="translate(930.432 -1971.149)" fill="#41a3f3" opacity="0.3"/>
    <path id="Path_2325" data-name="Path 2325" d="M-810.348,1999.132" transform="translate(880.552 -1971.149)" fill="#41a3f3" opacity="0.3"/>
    <path id="Path_2326" data-name="Path 2326" d="M-811.326,1975.64h20.812v-2.318a2.173,2.173,0,0,0-2.173-2.173h-18.825A17.4,17.4,0,0,1-811.326,1975.64Z" transform="translate(881.53 -1947.657)" fill="#41a3f3" opacity="0.3"/>
    <g id="Group_3195" data-name="Group 3195" transform="translate(42.925 25.738)">
      <ellipse id="Ellipse_121" data-name="Ellipse 121" cx="0.432" cy="0.432" rx="0.432" ry="0.432" fill="#e93817"/>
      <ellipse id="Ellipse_122" data-name="Ellipse 122" cx="0.432" cy="0.432" rx="0.432" ry="0.432" transform="translate(1.921)" fill="#ffaf03"/>
      <ellipse id="Ellipse_123" data-name="Ellipse 123" cx="0.432" cy="0.432" rx="0.432" ry="0.432" transform="translate(3.967)" fill="#45a735"/>
    </g>
    <g id="Group_3227" data-name="Group 3227" transform="translate(52.167 13.286)">
      <g id="Group_3226" data-name="Group 3226">
        <path id="Path_2365" data-name="Path 2365" d="M-896.117,1944.238a5.577,5.577,0,0,0-5.2-3.571,5.542,5.542,0,0,0-2.874.8,5.512,5.512,0,0,0-.712-1.351,1.509,1.509,0,0,0,.573-.475,1.5,1.5,0,0,0,.223-1.353l-.448-1.421a1.73,1.73,0,0,0,.482-1.058l4.631,2.084a1.254,1.254,0,0,0,.516.111,1.254,1.254,0,0,0,.765-.26,1.254,1.254,0,0,0,.474-1.2l-.87-5.293a5.931,5.931,0,0,0-3.04-4.245l-2.47-1.319v-7.294a12.071,12.071,0,0,0-1.172-5.173l-2.064-4.319a2.332,2.332,0,0,0-2.121-1.337,2.333,2.333,0,0,0-2.122,1.337l-2.064,4.319a12.072,12.072,0,0,0-1.172,5.173v7.294l-2.47,1.319a5.933,5.933,0,0,0-3.04,4.245l-.87,5.293a1.254,1.254,0,0,0,.474,1.2,1.254,1.254,0,0,0,.765.26,1.254,1.254,0,0,0,.516-.111l4.631-2.084a1.728,1.728,0,0,0,.395.961l-.479,1.518a1.5,1.5,0,0,0,.223,1.353,1.508,1.508,0,0,0,.663.514,5.493,5.493,0,0,0-.685,1.312,5.54,5.54,0,0,0-2.874-.8,5.577,5.577,0,0,0-5.2,3.571h1.6a4.123,4.123,0,0,1,3.6-2.119,4.1,4.1,0,0,1,2.816,1.117.726.726,0,0,0,.74.156.727.727,0,0,0,.477-.587,4.082,4.082,0,0,1,1.375-2.545h5.4a4.081,4.081,0,0,1,1.375,2.545.726.726,0,0,0,.477.587.726.726,0,0,0,.74-.156,4.1,4.1,0,0,1,2.816-1.117,4.123,4.123,0,0,1,3.6,2.119Zm-23.55-7.82.81-4.932a4.472,4.472,0,0,1,2.292-3.2l1.786-.954v6.886Zm13.76.978.419,1.329a.059.059,0,0,1-.01.057.059.059,0,0,1-.052.026h-7.863a.059.059,0,0,1-.052-.026.059.059,0,0,1-.009-.057l.419-1.329h7.147Zm3.629-9.11a4.471,4.471,0,0,1,2.292,3.2l.81,4.932-4.887-2.2v-6.886Zm-11.05-9.894a10.613,10.613,0,0,1,1.03-4.547l2.064-4.319a.882.882,0,0,1,.812-.512.882.882,0,0,1,.812.512l2.064,4.319a10.611,10.611,0,0,1,1.031,4.547v17.269a.283.283,0,0,1-.283.283h-7.246a.283.283,0,0,1-.283-.283v-17.269Z" transform="translate(922.726 -1907.562)" fill="#41a3f3"/>
        <path id="Path_2366" data-name="Path 2366" d="M-849.5,1978.23a1.85,1.85,0,0,0,1.848-1.848,1.85,1.85,0,0,0-1.848-1.848,1.85,1.85,0,0,0-1.848,1.848A1.85,1.85,0,0,0-849.5,1978.23Z" transform="translate(862.804 -1963.785)" fill="#5abe2b"/>
      </g>
    </g>
    <path id="Path_2367" data-name="Path 2367" d="M-762.277,2133.885a.642.642,0,0,1-.613-.452,8.336,8.336,0,0,0-8-5.891,8.351,8.351,0,0,0-5.681,2.221.642.642,0,0,1-.907-.036.642.642,0,0,1,.036-.907,9.631,9.631,0,0,1,6.553-2.562,9.615,9.615,0,0,1,9.228,6.794.642.642,0,0,1-.423.8A.655.655,0,0,1-762.277,2133.885Z" transform="translate(853.103 -2077.87)" fill="#41a3f3"/>
    <path id="Path_2368" data-name="Path 2368" d="M-1000.663,2133.885a.653.653,0,0,1-.19-.029.642.642,0,0,1-.423-.8,9.615,9.615,0,0,1,9.228-6.794,9.631,9.631,0,0,1,6.553,2.562.642.642,0,0,1,.036.907.642.642,0,0,1-.907.036,8.351,8.351,0,0,0-5.682-2.221,8.337,8.337,0,0,0-8,5.891A.642.642,0,0,1-1000.663,2133.885Z" transform="translate(1040.86 -2077.87)" fill="#41a3f3"/>
  </g>
</svg>
