<svg xmlns="http://www.w3.org/2000/svg" width="65.399" height="61.388" viewBox="0 0 65.399 61.388">
  <g id="Group_5395" data-name="Group 5395" transform="translate(-757.98 -1326.883)">
    <path id="Path_2214" data-name="Path 2214" d="M664.507,1641.746a.826.826,0,0,1-.6-.26l-3.691-3.932h-9.2a2.671,2.671,0,0,1-2.668-2.668v-20.393a2.671,2.671,0,0,1,2.668-2.668H678a2.671,2.671,0,0,1,2.668,2.668v20.393a2.671,2.671,0,0,1-2.668,2.668h-9.628l-3.23,3.893a.826.826,0,0,1-.61.3Z" transform="translate(126.447 -277.522)" fill="#41a3f3" opacity="0.15"/>
    <path id="Path_2215" data-name="Path 2215" d="M661.218,1639.552a.871.871,0,0,1-.636-.275l-3.9-4.155h-9.722a2.822,2.822,0,0,1-2.819-2.82v-21.551a2.822,2.822,0,0,1,2.819-2.819h28.517a2.822,2.822,0,0,1,2.82,2.819V1632.3a2.823,2.823,0,0,1-2.82,2.82H665.3l-3.413,4.114a.872.872,0,0,1-.645.315Zm-14.258-29.875a1.076,1.076,0,0,0-1.075,1.074V1632.3a1.076,1.076,0,0,0,1.075,1.075h10.1a.872.872,0,0,1,.636.275l3.483,3.709,3.044-3.669a.873.873,0,0,1,.671-.315h10.584a1.076,1.076,0,0,0,1.075-1.075v-21.551a1.076,1.076,0,0,0-1.075-1.074Z" transform="translate(129.735 -274.478)" fill="#41a3f3"/>
    <g id="Group_3144" data-name="Group 3144" transform="translate(764.253 1349.051)">
      <path id="Path_2216" data-name="Path 2216" d="M616.546,1711.592a.873.873,0,0,1-.637-.276l-3.649-3.9h-9.545a2.7,2.7,0,0,1-2.7-2.7v-22.558a2.7,2.7,0,0,1,2.7-2.7h6.906a.872.872,0,1,1,0,1.745h-6.906a.958.958,0,0,0-.957.957v22.558a.958.958,0,0,0,.957.957h9.924a.873.873,0,0,1,.637.276l3.23,3.451,2.82-3.411a.872.872,0,0,1,.672-.316h9.943a.958.958,0,0,0,.957-.957v-5.525a.872.872,0,1,1,1.744,0v5.525a2.7,2.7,0,0,1-2.7,2.7h-9.532l-3.191,3.858a.871.871,0,0,1-.646.316Z" transform="translate(-600.014 -1679.456)" fill="#41a3f3"/>
      <path id="Path_2217" data-name="Path 2217" d="M742.516,1747.379a.872.872,0,0,1-.872-.872v-1.173a.872.872,0,1,1,1.745,0v1.173A.872.872,0,0,1,742.516,1747.379Z" transform="translate(-710.76 -1730.286)" fill="#41a3f3"/>
    </g>
    <path id="Path_2218" data-name="Path 2218" d="M713.886,1744.859a.873.873,0,0,1-.637-.276l-3.649-3.9h-9.109a2.7,2.7,0,0,1-2.7-2.7v-1.662a.872.872,0,0,1,1.744,0v1.662a.958.958,0,0,0,.957.957h9.488a.872.872,0,0,1,.637.276l3.23,3.451,2.82-3.411a.872.872,0,0,1,.672-.317h9.943a.958.958,0,0,0,.957-.957v-22.341a.958.958,0,0,0-.957-.957H719.81a.872.872,0,1,1,0-1.745h7.471a2.7,2.7,0,0,1,2.7,2.7v22.341a2.7,2.7,0,0,1-2.7,2.7h-9.532l-3.19,3.858a.873.873,0,0,1-.646.316Z" transform="translate(87.785 -356.588)" fill="#41a3f3"/>
    <path id="Path_2219" data-name="Path 2219" d="M694,1641.017H674.374a.872.872,0,1,1,0-1.745H694a.872.872,0,1,1,0,1.745Z" transform="translate(106.776 -298.984)" fill="#41a3f3"/>
    <path id="Path_2220" data-name="Path 2220" d="M688.357,1668.057H674.374a.872.872,0,1,1,0-1.745h13.983a.872.872,0,1,1,0,1.745Z" transform="translate(106.776 -320.128)" fill="#41a3f3"/>
    <path id="Path_2221" data-name="Path 2221" d="M762.867,1668.057h-.421a.872.872,0,1,1,0-1.745h.421a.872.872,0,1,1,0,1.745Z" transform="translate(37.909 -320.128)" fill="#41a3f3"/>
    <path id="Path_2222" data-name="Path 2222" d="M714.237,1695.1H700.254a.872.872,0,1,1,0-1.745h13.983a.872.872,0,1,1,0,1.745Z" transform="translate(86.54 -341.271)" fill="#41a3f3"/>
    <path id="Path_2223" data-name="Path 2223" d="M674.8,1695.1h-.421a.872.872,0,1,1,0-1.745h.421a.872.872,0,1,1,0,1.745Z" transform="translate(106.776 -341.271)" fill="#41a3f3"/>
    <path id="Path_2244" data-name="Path 2244" d="M574.811,1648.891h-.984v-.944a.533.533,0,1,0-1.065,0v.944h-.984a.533.533,0,1,0,0,1.065h.984v.945a.533.533,0,0,0,1.065,0v-.945h.984a.533.533,0,1,0,0-1.065Z" transform="translate(186.735 -305.351)" fill="#41a3f3" opacity="0.2"/>
    <path id="Path_2246" data-name="Path 2246" d="M750.325,1578.934h-.756v-.726a.409.409,0,1,0-.819,0v.726h-.757a.41.41,0,0,0,0,.819h.757v.726a.409.409,0,0,0,.819,0v-.726h.756a.41.41,0,0,0,0-.819Z" transform="translate(48.849 -250.916)" fill="#41a3f3" opacity="0.2"/>
    <path id="Path_2248" data-name="Path 2248" d="M860.539,1700.156a1.3,1.3,0,1,0,1.3,1.3A1.3,1.3,0,0,0,860.539,1700.156Zm.47,1.3a.47.47,0,1,1-.47-.47A.471.471,0,0,1,861.009,1701.454Z" transform="translate(-38.459 -346.591)" fill="#41a3f3" opacity="0.2"/>
    <path id="Path_2250" data-name="Path 2250" d="M635.721,1747.016H625.372a.872.872,0,0,1,0-1.745h10.349a.872.872,0,0,1,0,1.745Z" transform="translate(145.093 -381.869)" fill="#41a3f3" opacity="0.2"/>
    <path id="Path_2251" data-name="Path 2251" d="M639.355,1774.058H625.372a.872.872,0,1,1,0-1.745h13.983a.872.872,0,1,1,0,1.745Z" transform="translate(145.093 -403.014)" fill="#41a3f3" opacity="0.2"/>
    <path id="Path_2252" data-name="Path 2252" d="M775.011,1775.8H764.662a.872.872,0,1,1,0-1.744h10.349a.872.872,0,1,1,0,1.744Z" transform="translate(36.177 -404.376)" fill="#41a3f3" opacity="0.2"/>
    <path id="Path_2253" data-name="Path 2253" d="M770.577,1802.84h-5.914a.872.872,0,0,1,0-1.745h5.914a.872.872,0,0,1,0,1.745Z" transform="translate(36.177 -425.519)" fill="#41a3f3" opacity="0.2"/>
    <path id="Path_2254" data-name="Path 2254" d="M770.577,1747.783h-5.914a.872.872,0,1,1,0-1.745h5.914a.872.872,0,0,1,0,1.745Z" transform="translate(36.177 -382.469)" fill="#41a3f3" opacity="0.2"/>
    <path id="Path_2255" data-name="Path 2255" d="M713.865,1774.058h-.421a.872.872,0,1,1,0-1.745h.421a.872.872,0,1,1,0,1.745Z" transform="translate(76.226 -403.014)" fill="#41a3f3" opacity="0.2"/>
  </g>
</svg>
