<svg xmlns="http://www.w3.org/2000/svg" width="264.848" height="297.722" viewBox="0 0 264.848 297.722">
  <g id="noun_node_39526" transform="translate(-14.064 -4.302)">
    <path id="Path_4132" data-name="Path 4132" d="M89.658,156.311,32.741,123.455V57.73L89.658,24.869,146.571,57.73v65.721Zm-46.77-38.718,46.774,27,46.774-27V63.587l-46.774-27-46.774,27Z" transform="translate(56.823 62.573)" fill="#f3f9ff"/>
    <path id="Path_4133" data-name="Path 4133" d="M63.865,48.914a22.306,22.306,0,1,1,22.306-22.3,22.328,22.328,0,0,1-22.306,22.3m0-40.553A18.249,18.249,0,1,0,82.112,26.612,18.27,18.27,0,0,0,63.865,8.361" transform="translate(83.65 0)" fill="#f3f9ff"/>
    <path id="Path_4134" data-name="Path 4134" d="M36.613,64.353h0A22.309,22.309,0,1,1,55.948,53.2,22.315,22.315,0,0,1,36.613,64.353m.036-40.561a18.324,18.324,0,0,0-15.822,9.128A18.259,18.259,0,0,0,36.617,60.3a18.253,18.253,0,0,0,.032-36.507" transform="translate(0.768 46.947)" fill="#f3f9ff"/>
    <path id="Path_4135" data-name="Path 4135" d="M36.386,95.661h0A22.31,22.31,0,1,1,55.68,62.2,22.309,22.309,0,0,1,36.386,95.661M36.346,55.1a18.253,18.253,0,1,0,15.826,9.128A18.191,18.191,0,0,0,36.346,55.1" transform="translate(0 142.198)" fill="#f3f9ff"/>
    <path id="Path_4136" data-name="Path 4136" d="M63.354,111.528A22.306,22.306,0,1,1,85.66,89.222a22.329,22.329,0,0,1-22.306,22.306m0-40.553A18.247,18.247,0,1,0,81.605,89.222,18.268,18.268,0,0,0,63.354,70.975" transform="translate(82.096 190.496)" fill="#f3f9ff"/>
    <path id="Path_4137" data-name="Path 4137" d="M90.574,96.1h0A22.31,22.31,0,1,1,109.9,84.946,22.316,22.316,0,0,1,90.574,96.1m.04-40.561a18.256,18.256,0,1,0,9.1,2.45,18.315,18.315,0,0,0-9.1-2.45" transform="translate(164.974 143.543)" fill="#f3f9ff"/>
    <path id="Path_4138" data-name="Path 4138" d="M90.867,64.8h0a22.31,22.31,0,1,1,19.294-33.463A22.312,22.312,0,0,1,90.867,64.8m-.04-40.565a18.253,18.253,0,0,0,.04,36.507h0a18.253,18.253,0,0,0-.045-36.507" transform="translate(165.752 48.295)" fill="#f3f9ff"/>
    <rect id="Rectangle_935" data-name="Rectangle 935" width="46.88" height="4.055" transform="translate(93.731 125.046) rotate(-153.486)" fill="#f3f9ff"/>
    <rect id="Rectangle_936" data-name="Rectangle 936" width="4.059" height="46.415" transform="translate(144.451 46.88)" fill="#f3f9ff"/>
    <rect id="Rectangle_937" data-name="Rectangle 937" width="4.055" height="46.427" transform="translate(199.293 124.998) rotate(-118.705)" fill="#f3f9ff"/>
    <rect id="Rectangle_938" data-name="Rectangle 938" width="46.427" height="4.059" transform="matrix(-0.855, -0.519, 0.519, -0.855, 236.959, 208.928)" fill="#f3f9ff"/>
    <rect id="Rectangle_939" data-name="Rectangle 939" width="4.059" height="48.399" transform="translate(144.451 213.023)" fill="#f3f9ff"/>
    <rect id="Rectangle_940" data-name="Rectangle 940" width="4.055" height="46.427" transform="translate(54.897 207.177) rotate(-118.705)" fill="#f3f9ff"/>
  </g>
</svg>
