<svg xmlns="http://www.w3.org/2000/svg" width="93.372" height="57.593" viewBox="0 0 93.372 57.593">
  <g id="Group_5401" data-name="Group 5401" transform="translate(-720.537 -1119.478)">
    <path id="noun_Data_2921742" d="M26.937,44.377a7.008,7.008,0,1,0,6.021,1.143l6.968-13.668a5.377,5.377,0,0,0,2.912-.018,5.5,5.5,0,0,0,2.287-1.251L52.719,36a4.486,4.486,0,0,0-.143,2.787,4.538,4.538,0,1,0,3.18-5.575,4.351,4.351,0,0,0-1.68.893L46.5,28.672a5.5,5.5,0,0,0,.268-3.716,6.156,6.156,0,0,0-.447-1.126l6.664-5.539A6.022,6.022,0,1,0,50.968,15.2a5.87,5.87,0,0,0,.518,1.286l-6.664,5.575a5.669,5.669,0,0,0-4.931-1,5.558,5.558,0,0,0-2.609,1.572l-7.754-4.663a7.789,7.789,0,0,0,.322-5.11,7.9,7.9,0,1,0-5.521,9.72,7.721,7.721,0,0,0,4-2.609L36.1,24.634A5.563,5.563,0,0,0,36,27.921a5.645,5.645,0,0,0,1.858,2.859L30.886,44.448A7.226,7.226,0,0,0,26.937,44.377ZM55.793,10.09A3.7,3.7,0,1,1,53.2,14.628,3.694,3.694,0,0,1,55.793,10.09ZM30.01,55.615a4.64,4.64,0,1,1,3.252-5.7A4.631,4.631,0,0,1,30.01,55.615ZM59.08,37.033a2.2,2.2,0,1,1-2.7-1.537A2.205,2.205,0,0,1,59.08,37.033ZM40.5,23.329a3.242,3.242,0,1,1-2.269,3.984A3.252,3.252,0,0,1,40.5,23.329Zm-23.638-6.9a5.568,5.568,0,1,1,6.843,3.9A5.556,5.556,0,0,1,16.86,16.433Z" transform="translate(727.672 1118.958)" fill="#41a3f3"/>
    <g id="Group_5400" data-name="Group 5400" transform="translate(26 -71)">
      <path id="Path_4124" data-name="Path 4124" d="M186.634,738.507h-2.425v-2.341a.829.829,0,0,0-1.658,0v2.341h-2.425a.829.829,0,0,0,0,1.657h2.425v2.34a.829.829,0,1,0,1.658,0v-2.34h2.425a.829.829,0,1,0,0-1.657Z" transform="translate(600.447 455.14)" fill="#41a3f3" opacity="0.3"/>
      <path id="Path_4125" data-name="Path 4125" d="M-115.486,740.893h-1.209v-1.161a.656.656,0,0,0-.655-.655.656.656,0,0,0-.655.655v1.161h-1.21a.655.655,0,0,0-.655.655.656.656,0,0,0,.655.655H-118v1.161a.655.655,0,0,0,.655.655.655.655,0,0,0,.655-.655V742.2h1.209a.656.656,0,0,0,.655-.655A.655.655,0,0,0-115.486,740.893Z" transform="translate(830.914 452.26)" fill="#41a3f3" opacity="0.3"/>
      <path id="Path_4126" data-name="Path 4126" d="M109.86,788.744h-1.209v-1.161a.655.655,0,0,0-1.31,0v1.161h-1.21a.655.655,0,0,0,0,1.31h1.21v1.161a.655.655,0,0,0,1.31,0v-1.161h1.209a.655.655,0,1,0,0-1.31Z" transform="translate(658.316 430.397)" fill="#41a3f3" opacity="0.3"/>
      <path id="Path_4127" data-name="Path 4127" d="M20.8,746.79a2.826,2.826,0,1,0,2.826,2.825A2.829,2.829,0,0,0,20.8,746.79Zm1.224,2.825a1.224,1.224,0,1,1-1.224-1.223A1.226,1.226,0,0,1,22.025,749.615Z" transform="translate(724.724 446.318)" fill="#41a3f3" opacity="0.3"/>
      <path id="Path_4128" data-name="Path 4128" d="M-190.047,787.569a1.708,1.708,0,0,0-1.706,1.706,1.708,1.708,0,0,0,1.706,1.707,1.708,1.708,0,0,0,1.706-1.707A1.708,1.708,0,0,0-190.047,787.569Zm.617,1.706a.618.618,0,0,1-.617.618.618.618,0,0,1-.618-.618.618.618,0,0,1,.618-.617A.618.618,0,0,1-189.429,789.274Z" transform="translate(886.29 414.904)" fill="#41a3f3" opacity="0.3"/>
      <path id="Path_4129" data-name="Path 4129" d="M-57.238,781.139a1.708,1.708,0,0,0-1.706,1.706,1.708,1.708,0,0,0,1.706,1.706,1.708,1.708,0,0,0,1.706-1.706A1.708,1.708,0,0,0-57.238,781.139Zm.617,1.706a.618.618,0,0,1-.617.618.618.618,0,0,1-.617-.618.618.618,0,0,1,.617-.617A.618.618,0,0,1-56.62,782.845Z" transform="translate(770.979 435.857)" fill="#41a3f3" opacity="0.3"/>
    </g>
  </g>
</svg>
