<svg id="pay-per-click" xmlns="http://www.w3.org/2000/svg" width="52.077" height="55.797" viewBox="0 0 52.077 55.797">
  <path id="Path_1510" data-name="Path 1510" d="M264.179,115.338V84.65a4.655,4.655,0,0,0-4.65-4.65H240v1.86h19.529a2.79,2.79,0,0,1,2.79,2.79v30.688a2.79,2.79,0,0,1-2.79,2.79h-3.72v1.86h3.72A4.655,4.655,0,0,0,264.179,115.338Zm0,0" transform="translate(-212.101 -70.7)" fill="#41a3f3"/>
  <path id="Path_1511" data-name="Path 1511" d="M32,208v20.459a4.655,4.655,0,0,0,4.65,4.65h8.37v-1.86H36.65a2.79,2.79,0,0,1-2.79-2.79V208Zm0,0" transform="translate(-28.28 -183.821)" fill="#41a3f3"/>
  <path id="Path_1512" data-name="Path 1512" d="M328,112h1.86v1.86H328Zm0,0" transform="translate(-289.872 -98.981)" fill="#41a3f3"/>
  <path id="Path_1513" data-name="Path 1513" d="M360,112h1.86v1.86H360Zm0,0" transform="translate(-318.152 -98.981)" fill="#41a3f3"/>
  <path id="Path_1514" data-name="Path 1514" d="M392,112h1.86v1.86H392Zm0,0" transform="translate(-346.432 -98.981)" fill="#41a3f3"/>
  <path id="Path_1515" data-name="Path 1515" d="M240,144h19.529v1.86H240Zm0,0" transform="translate(-212.101 -127.261)" fill="#41a3f3"/>
  <path id="Path_1523" data-name="Path 1523" d="M240,144h19.529v1.86H240Zm0,0" transform="matrix(0.966, 0.259, -0.259, 0.966, -191.08, -192.966)" fill="#41a3f3"/>
  <path id="Path_1516" data-name="Path 1516" d="M4.65,22.319h6.243l7.214,4.509a.93.93,0,0,0,1.4-.975L18.8,22.319h2.585a4.655,4.655,0,0,0,4.65-4.65V4.65A4.655,4.655,0,0,0,21.389,0H4.65A4.655,4.655,0,0,0,0,4.65V17.669A4.655,4.655,0,0,0,4.65,22.319ZM1.86,4.65A2.79,2.79,0,0,1,4.65,1.86H21.389a2.79,2.79,0,0,1,2.79,2.79V17.669a2.79,2.79,0,0,1-2.79,2.79h-3.72a.93.93,0,0,0-.911,1.116l.507,2.537L11.652,20.6a.93.93,0,0,0-.493-.141H4.65a2.79,2.79,0,0,1-2.79-2.79Zm0,0" fill="#41a3f3"/>
  <path id="Path_1517" data-name="Path 1517" d="M74.876,45.019h.7v1.86h1.86v-1.86h.7a3.019,3.019,0,0,0,.732-5.952L74.593,38a1.16,1.16,0,0,1,.279-2.284h3.262A1.16,1.16,0,0,1,79.3,36.879v.7h1.86v-.7a3.021,3.021,0,0,0-3.019-3.019h-.7V32h-1.86v1.86h-.7a3.019,3.019,0,0,0-.732,5.952l4.278,1.068a1.16,1.16,0,0,1-.279,2.284H74.876A1.16,1.16,0,0,1,73.717,42v-.7h-1.86V42A3.021,3.021,0,0,0,74.876,45.019Zm0,0" transform="translate(-63.488 -28.28)" fill="#41a3f3"/>
  <path id="Path_1518" data-name="Path 1518" d="M145.335,249.365a4.65,4.65,0,0,0,3.294,7.935h1.86v-1.86h-1.86a2.79,2.79,0,1,1,0-5.58h13.019a2.79,2.79,0,0,1,0,5.58h-1.86v1.86h1.86a4.65,4.65,0,0,0,0-9.3H148.629A4.667,4.667,0,0,0,145.335,249.365Zm0,0" transform="translate(-127.24 -219.171)" fill="#41a3f3"/>
  <path id="Path_1519" data-name="Path 1519" d="M296,200h1.86v3.72H296Zm0,0" transform="translate(-261.592 -176.751)" fill="#41a3f3"/>
  <path id="Path_1520" data-name="Path 1520" d="M330.348,213.134l2.79-2.79,1.315,1.315-2.79,2.79Zm0,0" transform="translate(-291.947 -185.893)" fill="#41a3f3"/>
  <path id="Path_1521" data-name="Path 1521" d="M352,264h3.72v1.86H352Zm0,0" transform="translate(-311.082 -233.312)" fill="#41a3f3"/>
  <path id="Path_1522" data-name="Path 1522" d="M161.093,305.216l5.822,4.158a.93.93,0,0,0,.54.174h14.879a.93.93,0,0,0,.93-.93v-10.13a2.868,2.868,0,0,0-2.325-2.852,2.8,2.8,0,0,0-2.268.627c-.019.015-.036.031-.055.048a2.784,2.784,0,0,0-3.72,0,2.9,2.9,0,0,0-2.79-.554v-5.738a2.867,2.867,0,0,0-2.325-2.852,2.79,2.79,0,0,0-3.255,2.753v12.406l-2.468-1.48a2.554,2.554,0,0,0-2.474-.093l-.147.073a2.573,2.573,0,0,0-.344,4.394Zm1.177-2.73.146-.072a.7.7,0,0,1,.683.026l3.877,2.325a.93.93,0,0,0,1.409-.8V289.92a.931.931,0,0,1,.328-.709.918.918,0,0,1,.764-.208,1.008,1.008,0,0,1,.767,1.016v8.37a.93.93,0,1,0,1.86,0,.93.93,0,1,1,1.86,0,.93.93,0,1,0,1.86,0,.93.93,0,1,1,1.86,0,.93.93,0,1,0,1.86,0,.931.931,0,0,1,.328-.71.921.921,0,0,1,.764-.206,1.007,1.007,0,0,1,.767,1.015v9.2H167.753l-5.58-3.985a.713.713,0,0,1,.093-1.217Zm0,0" transform="translate(-141.417 -253.751)" fill="#41a3f3"/>
</svg>
