<svg xmlns="http://www.w3.org/2000/svg" width="53.487" height="56.22" viewBox="0 0 53.487 56.22">
  <g id="available" transform="translate(-12.445)">
    <g id="Group_374" data-name="Group 374" transform="translate(12.445 8.373)">
      <g id="Group_373" data-name="Group 373">
        <path id="Path_347" data-name="Path 347" d="M34.974,103.733,24.3,93.19a3.687,3.687,0,0,0-4.493-.559V79.94a3.66,3.66,0,0,0-.464-1.786,1.885,1.885,0,0,1,2.5,1.786v9.328a.9.9,0,1,0,1.794,0V79.94a3.682,3.682,0,0,0-5.6-3.146,3.681,3.681,0,0,0-5.6,3.147l.016,17.69a6.1,6.1,0,0,0,.683,2.6l.02.033L24.212,118.1a4.4,4.4,0,0,1,.443,1.709v3.381a.9.9,0,1,0,1.794,0V119.81a6.086,6.086,0,0,0-.682-2.6l-.019-.033L14.7,99.338a4.415,4.415,0,0,1-.444-1.71L14.239,79.94a1.889,1.889,0,1,1,3.777,0V95.795c0,.022,0,.044,0,.066A3.669,3.669,0,0,0,19.095,98.4l8.571,8.571a.9.9,0,0,0,1.269-1.269L20.364,97.13a1.889,1.889,0,1,1,2.675-2.667L33.71,105.005a8.734,8.734,0,0,1,2.189,5.286v12.915a.9.9,0,1,0,1.794,0V110.291A10.492,10.492,0,0,0,34.974,103.733Z" transform="translate(-12.445 -76.257)" fill="#41a3f3"/>
      </g>
    </g>
    <g id="Group_376" data-name="Group 376" transform="translate(40.684 8.373)">
      <g id="Group_375" data-name="Group 375">
        <path id="Path_348" data-name="Path 348" d="M291.183,76.255a3.661,3.661,0,0,0-1.913.537,3.682,3.682,0,0,0-5.6,3.146v9.328a.9.9,0,0,0,1.794,0V79.938a1.885,1.885,0,0,1,2.5-1.786,3.659,3.659,0,0,0-.464,1.786V92.629a3.687,3.687,0,0,0-4.489.555l-10.679,10.55a10.49,10.49,0,0,0-2.715,6.554V123.2a.9.9,0,0,0,1.794,0V110.289a8.732,8.732,0,0,1,2.185-5.282l10.679-10.55a1.889,1.889,0,0,1,2.671,2.671l-8.571,8.571a.9.9,0,0,0,1.269,1.269l8.571-8.571a3.669,3.669,0,0,0,1.075-2.538c0-.022,0-.044,0-.066V79.938a1.889,1.889,0,0,1,3.777,0l-.016,17.69a4.409,4.409,0,0,1-.444,1.71l-11.05,17.835-.019.033a6.083,6.083,0,0,0-.682,2.6v3.381a.9.9,0,1,0,1.794,0v-3.381a4.4,4.4,0,0,1,.443-1.709l11.05-17.835.02-.033a6.094,6.094,0,0,0,.683-2.6l.016-17.691A3.687,3.687,0,0,0,291.183,76.255Z" transform="translate(-269.618 -76.255)" fill="#41a3f3"/>
      </g>
    </g>
    <g id="Group_378" data-name="Group 378" transform="translate(25.433)">
      <g id="Group_377" data-name="Group 377">
        <path id="Path_349" data-name="Path 349" d="M157.339,6.579a.9.9,0,0,0,.9-.9V.9a.9.9,0,0,0-.9-.9H131.621a.9.9,0,0,0-.9.9V5.682a.9.9,0,0,0,.9.9h.3V8.373h-.3a.9.9,0,0,0-.9.9v4.785a.9.9,0,0,0,.9.9h.3v1.794h-.3a.9.9,0,0,0-.9.9v4.785a.9.9,0,0,0,.9.9h25.718a.9.9,0,0,0,.9-.9V17.643a.9.9,0,0,0-.9-.9h-.3V14.952h.3a.9.9,0,0,0,.9-.9V9.27a.9.9,0,0,0-.9-.9h-.3V6.579h.3Zm-.9,14.952H132.518v-2.99h23.923Zm0-8.373h-3.888a.9.9,0,0,0,0,1.794h2.691v1.794H133.714V14.952h15.251a.9.9,0,0,0,0-1.794H132.518v-2.99h23.923ZM133.714,8.373V6.579h21.531V8.373Zm22.727-3.589H132.518V1.794h23.923Z" transform="translate(-130.724)" fill="#41a3f3"/>
      </g>
    </g>
  </g>
</svg>
