<svg xmlns="http://www.w3.org/2000/svg" width="53" height="53" viewBox="0 0 53 53">
  <g id="chip" transform="translate(-1 -1)">
    <path id="Path_363" data-name="Path 363" d="M53.145,22.371H50a22.842,22.842,0,0,0-2.987-7.2l2.458-2.458a.854.854,0,0,0,0-1.209L43.491,5.525a.854.854,0,0,0-1.209,0L39.825,7.982A22.822,22.822,0,0,0,32.629,5V1.855A.855.855,0,0,0,31.774,1H23.226a.855.855,0,0,0-.855.855V5a22.842,22.842,0,0,0-7.2,2.987L12.717,5.525a.854.854,0,0,0-1.209,0L5.525,11.509a.854.854,0,0,0,0,1.209l2.458,2.458A22.806,22.806,0,0,0,5,22.371H1.855A.855.855,0,0,0,1,23.226v8.548a.855.855,0,0,0,.855.855H5a22.842,22.842,0,0,0,2.987,7.2L5.525,42.283a.854.854,0,0,0,0,1.209l5.984,5.984a.854.854,0,0,0,1.209,0l2.458-2.458A22.822,22.822,0,0,0,22.371,50v3.141a.855.855,0,0,0,.855.855h8.548a.855.855,0,0,0,.855-.855V50a22.806,22.806,0,0,0,7.2-2.987l2.458,2.458a.854.854,0,0,0,1.209,0l5.984-5.984a.854.854,0,0,0,0-1.209l-2.458-2.458A22.822,22.822,0,0,0,50,32.629h3.141A.855.855,0,0,0,54,31.774V23.226A.855.855,0,0,0,53.145,22.371Zm-.855,8.548H49.311a.854.854,0,0,0-.839.692,21.142,21.142,0,0,1-3.258,7.848.855.855,0,0,0,.1,1.084l2.344,2.344-4.775,4.775-2.345-2.345a.856.856,0,0,0-1.084-.1,21.158,21.158,0,0,1-7.848,3.258.855.855,0,0,0-.691.839V52.29H24.081V49.311a.854.854,0,0,0-.692-.839,21.142,21.142,0,0,1-7.848-3.258.858.858,0,0,0-1.084.1l-2.344,2.344L7.338,42.887l2.345-2.345a.855.855,0,0,0,.1-1.084A21.142,21.142,0,0,1,6.528,31.61a.855.855,0,0,0-.839-.691H2.71V24.081H5.689a.854.854,0,0,0,.839-.692,21.158,21.158,0,0,1,3.258-7.848.855.855,0,0,0-.1-1.084L7.338,12.113l4.775-4.775,2.345,2.345a.856.856,0,0,0,1.084.1A21.142,21.142,0,0,1,23.39,6.528a.855.855,0,0,0,.691-.839V2.71h6.839V5.689a.854.854,0,0,0,.692.839,21.142,21.142,0,0,1,7.848,3.258.855.855,0,0,0,1.084-.1l2.344-2.344,4.775,4.775-2.345,2.345a.855.855,0,0,0-.1,1.084,21.142,21.142,0,0,1,3.258,7.848.855.855,0,0,0,.839.691H52.29Z" fill="#41a3f3"/>
    <path id="Path_364" data-name="Path 364" d="M28.952,11A17.952,17.952,0,1,0,46.9,28.952,17.971,17.971,0,0,0,28.952,11Zm0,34.194A16.242,16.242,0,1,1,45.194,28.952,16.26,16.26,0,0,1,28.952,45.194Z" transform="translate(-1.452 -1.452)" fill="#41a3f3"/>
    <path id="Path_365" data-name="Path 365" d="M39.516,21.565a.855.855,0,0,0-.855-.855h-.855V19H36.1v1.71h-1.71V19h-1.71v1.71h-1.71V19h-1.71v1.71h-1.71V19h-1.71v1.71h-1.71V19h-1.71v1.71h-.855a.855.855,0,0,0-.855.855v.855H19v1.71h1.71v1.71H19v1.71h1.71v1.71H19v1.71h1.71v1.71H19v1.71h1.71V36.1H19v1.71h1.71v.855a.855.855,0,0,0,.855.855h.855v1.71h1.71v-1.71h1.71v1.71h1.71v-1.71h1.71v1.71h1.71v-1.71h1.71v1.71h1.71v-1.71H36.1v1.71h1.71v-1.71h.855a.855.855,0,0,0,.855-.855v-.855h1.71V36.1h-1.71v-1.71h1.71v-1.71h-1.71v-1.71h1.71v-1.71h-1.71v-1.71h1.71v-1.71h-1.71v-1.71h1.71v-1.71h-1.71Zm-1.71,16.242H22.419V22.419H37.806Z" transform="translate(-2.613 -2.613)" fill="#41a3f3"/>
    <path id="Path_366" data-name="Path 366" d="M25.855,36.968h2.565a.853.853,0,0,0,.6-.25l1.459-1.459h1l1.459,1.459a.853.853,0,0,0,.6.25h2.565a.855.855,0,0,0,.855-.855V25.855A.855.855,0,0,0,36.113,25H25.855a.855.855,0,0,0-.855.855V36.113a.855.855,0,0,0,.855.855ZM26.71,26.71h8.548v8.548H33.9L32.443,33.8a.853.853,0,0,0-.6-.25h-1.71a.853.853,0,0,0-.6.25l-1.459,1.459H26.71Z" transform="translate(-3.484 -3.484)" fill="#41a3f3"/>
    <path id="Path_367" data-name="Path 367" d="M33,29h1.71v1.71H33Z" transform="translate(-4.645 -4.065)" fill="#41a3f3"/>
  </g>
</svg>
