<svg id="web-programming" xmlns="http://www.w3.org/2000/svg" width="60.072" height="53" viewBox="0 0 60.072 53">
  <path id="Path_368" data-name="Path 368" d="M122.408,193.9a.988.988,0,0,1-.642-.237l-6.418-5.465a.992.992,0,0,1,0-1.51l6.418-5.465a.991.991,0,1,1,1.286,1.51l-5.53,4.71,5.53,4.71a.992.992,0,0,1-.644,1.747Zm0,0" transform="translate(-98.707 -155.346)" fill="#41a3f3"/>
  <path id="Path_369" data-name="Path 369" d="M250.7,193.9a.992.992,0,0,1-.644-1.747l5.53-4.71-5.53-4.71a.991.991,0,0,1,1.286-1.51l6.418,5.465a.992.992,0,0,1,0,1.51l-6.418,5.465A.988.988,0,0,1,250.7,193.9Zm0,0" transform="translate(-214.329 -155.346)" fill="#41a3f3"/>
  <path id="Path_370" data-name="Path 370" d="M189.947,174a1.009,1.009,0,0,1-.206-.022.992.992,0,0,1-.766-1.175l4-18.99a.992.992,0,1,1,1.941.409l-4,18.99A.992.992,0,0,1,189.947,174Zm0,0" transform="translate(-162.183 -131.344)" fill="#41a3f3"/>
  <path id="Path_371" data-name="Path 371" d="M53.413,53H6.659A6.666,6.666,0,0,1,0,46.341V6.659A6.667,6.667,0,0,1,6.659,0H53.413a6.667,6.667,0,0,1,6.659,6.659V46.341A6.666,6.666,0,0,1,53.413,53ZM6.659,1.984A4.681,4.681,0,0,0,1.984,6.659V46.341a4.681,4.681,0,0,0,4.675,4.675H53.413a4.681,4.681,0,0,0,4.675-4.675V6.659a4.681,4.681,0,0,0-4.675-4.675Zm0,0" fill="#41a3f3"/>
  <path id="Path_372" data-name="Path 372" d="M59.08,100.073H.992a.992.992,0,0,1,0-1.984H59.08a.992.992,0,1,1,0,1.984Zm0,0" transform="translate(0 -84.193)" fill="#41a3f3"/>
  <path id="Path_373" data-name="Path 373" d="M100.588,40.566a3.139,3.139,0,1,1,3.139-3.139A3.143,3.143,0,0,1,100.588,40.566Zm0-4.294a1.155,1.155,0,1,0,1.155,1.155A1.157,1.157,0,0,0,100.588,36.273Zm0,0" transform="translate(-83.643 -29.431)" fill="#41a3f3"/>
  <path id="Path_374" data-name="Path 374" d="M32.525,40.351a3.139,3.139,0,1,1,3.139-3.139A3.142,3.142,0,0,1,32.525,40.351Zm0-4.294a1.155,1.155,0,1,0,1.155,1.155A1.157,1.157,0,0,0,32.525,36.058Zm0,0" transform="translate(-25.223 -29.247)" fill="#41a3f3"/>
  <path id="Path_375" data-name="Path 375" d="M168.654,40.78a3.138,3.138,0,1,1,3.139-3.139A3.142,3.142,0,0,1,168.654,40.78Zm0-4.294a1.155,1.155,0,1,0,1.155,1.155A1.156,1.156,0,0,0,168.654,36.487Zm0,0" transform="translate(-142.066 -29.615)" fill="#41a3f3"/>
</svg>
