<svg id="calendar_2_" data-name="calendar (2)" xmlns="http://www.w3.org/2000/svg" width="54.828" height="53" viewBox="0 0 54.828 53">
  <path id="Path_350" data-name="Path 350" d="M223.534,192a15.534,15.534,0,1,0,15.534,15.534A15.535,15.535,0,0,0,223.534,192Zm0,29.241a13.707,13.707,0,1,1,13.707-13.707A13.707,13.707,0,0,1,223.534,221.241Zm0,0" transform="translate(-184.241 -170.069)" fill="#41a3f3"/>
  <path id="Path_351" data-name="Path 351" d="M295.31,261.651V256h-1.828v5.651a2.739,2.739,0,0,0-1.659,1.659H288v1.828h3.823a2.735,2.735,0,1,0,3.487-3.487Zm-.914,3.487a.914.914,0,1,1,.914-.914A.914.914,0,0,1,294.4,265.138Zm0,0" transform="translate(-255.103 -226.759)" fill="#41a3f3"/>
  <path id="Path_352" data-name="Path 352" d="M240,320h1.828v1.828H240Zm0,0" transform="translate(-212.586 -283.448)" fill="#41a3f3"/>
  <path id="Path_353" data-name="Path 353" d="M336,416h1.828v1.828H336Zm0,0" transform="translate(-297.621 -368.483)" fill="#41a3f3"/>
  <path id="Path_354" data-name="Path 354" d="M432,320h1.828v1.828H432Zm0,0" transform="translate(-382.655 -283.448)" fill="#41a3f3"/>
  <path id="Path_355" data-name="Path 355" d="M336,224h1.828v1.828H336Zm0,0" transform="translate(-297.621 -198.414)" fill="#41a3f3"/>
  <path id="Path_356" data-name="Path 356" d="M1.828,39.293v-26.5H43.862v8.224H45.69V8.224a4.574,4.574,0,0,0-4.569-4.569h-6.4V2.741a2.741,2.741,0,1,0-5.483,0v.914H16.448V2.741a2.741,2.741,0,0,0-5.483,0v.914h-6.4A4.574,4.574,0,0,0,0,8.224V39.293a4.574,4.574,0,0,0,4.569,4.569H22.845V42.034H4.569A2.742,2.742,0,0,1,1.828,39.293ZM31.069,2.741a.914.914,0,0,1,1.828,0V6.4a.914.914,0,0,1-1.828,0Zm-18.276,0a.914.914,0,1,1,1.828,0V6.4a.914.914,0,1,1-1.828,0ZM4.569,5.483h6.4V6.4a2.741,2.741,0,0,0,5.483,0V5.483H29.241V6.4a2.741,2.741,0,1,0,5.483,0V5.483h6.4a2.742,2.742,0,0,1,2.741,2.741v2.741H1.828V8.224A2.742,2.742,0,0,1,4.569,5.483Zm0,0" fill="#41a3f3"/>
  <path id="Path_357" data-name="Path 357" d="M55.31,161.828A1.828,1.828,0,0,0,53.483,160H49.828A1.828,1.828,0,0,0,48,161.828v3.655a1.828,1.828,0,0,0,1.828,1.828h3.655a1.828,1.828,0,0,0,1.828-1.828Zm-5.483,3.655v-3.655h3.655v3.655Zm0,0" transform="translate(-42.517 -141.724)" fill="#41a3f3"/>
  <path id="Path_358" data-name="Path 358" d="M135.31,161.828A1.828,1.828,0,0,0,133.483,160h-3.655A1.828,1.828,0,0,0,128,161.828v3.655a1.828,1.828,0,0,0,1.828,1.828h3.655a1.828,1.828,0,0,0,1.828-1.828Zm-5.483,3.655v-3.655h3.655v3.655Zm0,0" transform="translate(-113.379 -141.724)" fill="#41a3f3"/>
  <path id="Path_359" data-name="Path 359" d="M215.31,164.569v-2.741A1.828,1.828,0,0,0,213.483,160h-3.655A1.828,1.828,0,0,0,208,161.828v3.655a1.828,1.828,0,0,0,1.828,1.828h1.828v-1.828h-1.828v-3.655h3.655v2.741Zm0,0" transform="translate(-184.241 -141.724)" fill="#41a3f3"/>
  <path id="Path_360" data-name="Path 360" d="M53.483,256H49.828A1.828,1.828,0,0,0,48,257.828v3.655a1.828,1.828,0,0,0,1.828,1.828h3.655a1.828,1.828,0,0,0,1.828-1.828v-3.655A1.828,1.828,0,0,0,53.483,256Zm-3.655,5.483v-3.655h3.655v3.655Zm0,0" transform="translate(-42.517 -226.759)" fill="#41a3f3"/>
  <path id="Path_361" data-name="Path 361" d="M133.483,256h-3.655A1.828,1.828,0,0,0,128,257.828v3.655a1.828,1.828,0,0,0,1.828,1.828h3.655a1.828,1.828,0,0,0,1.828-1.828v-3.655A1.828,1.828,0,0,0,133.483,256Zm-3.655,5.483v-3.655h3.655v3.655Zm0,0" transform="translate(-113.379 -226.759)" fill="#41a3f3"/>
  <path id="Path_362" data-name="Path 362" d="M295.31,162.741v-.914A1.828,1.828,0,0,0,293.483,160h-3.655A1.828,1.828,0,0,0,288,161.828v.914h1.828v-.914h3.655v.914Zm0,0" transform="translate(-255.103 -141.724)" fill="#41a3f3"/>
</svg>
