<svg xmlns="http://www.w3.org/2000/svg" width="45" height="56.279" viewBox="0 0 45 56.279">
  <g id="budget" transform="translate(-51.306)">
    <g id="Group_322" data-name="Group 322" transform="translate(56.482 5.176)">
      <g id="Group_321" data-name="Group 321" transform="translate(0)">
        <path id="Path_321" data-name="Path 321" d="M99.108,49.255V45.883c.715.234,1.165.706,1.165,1.144a.971.971,0,0,0,1.941,0,3.443,3.443,0,0,0-3.106-3.145v-.154a.971.971,0,1,0-1.941,0v.154a3.443,3.443,0,0,0-3.106,3.145c0,2.162,1.727,3.071,3.106,3.594v3.372C96.452,53.759,96,53.287,96,52.849a.971.971,0,0,0-1.941,0,3.443,3.443,0,0,0,3.106,3.145v.154a.971.971,0,1,0,1.941,0v-.154a3.443,3.443,0,0,0,3.106-3.145C102.213,50.687,100.486,49.778,99.108,49.255ZM97.167,48.5C96.2,48.029,96,47.615,96,47.026c0-.438.449-.909,1.165-1.144Zm1.941,5.49v-2.62c.967.474,1.165.888,1.165,1.477C100.272,53.287,99.823,53.758,99.108,53.993Z" transform="translate(-94.061 -42.756)" fill="#41a3f3"/>
      </g>
    </g>
    <g id="Group_324" data-name="Group 324" transform="translate(65.034 7.246)">
      <g id="Group_323" data-name="Group 323">
        <path id="Path_322" data-name="Path 322" d="M188.826,59.858h-8.281a.971.971,0,1,0,0,1.941h8.281a.971.971,0,0,0,0-1.941Z" transform="translate(-179.574 -59.858)" fill="#41a3f3"/>
      </g>
    </g>
    <g id="Group_326" data-name="Group 326" transform="translate(65.314 14.053)">
      <g id="Group_325" data-name="Group 325">
        <path id="Path_323" data-name="Path 323" d="M181.58,128.268h-1.035a.971.971,0,1,0,0,1.941h1.035a.971.971,0,0,0,0-1.941Z" transform="translate(-179.574 -128.268)" fill="#41a3f3"/>
      </g>
    </g>
    <g id="Group_328" data-name="Group 328" transform="translate(56.482 20.611)">
      <g id="Group_327" data-name="Group 327">
        <path id="Path_324" data-name="Path 324" d="M124.018,188.124H95.033a.971.971,0,1,0,0,1.941h28.985a.971.971,0,1,0,0-1.941Z" transform="translate(-94.062 -188.124)" fill="#41a3f3"/>
      </g>
    </g>
    <g id="Group_330" data-name="Group 330" transform="translate(61.527 26.232)">
      <g id="Group_329" data-name="Group 329">
        <path id="Path_325" data-name="Path 325" d="M149.444,239.431h-3.106a.971.971,0,1,0,0,1.941h3.106a.971.971,0,1,0,0-1.941Z" transform="translate(-145.368 -239.431)" fill="#41a3f3"/>
      </g>
    </g>
    <g id="Group_332" data-name="Group 332" transform="translate(56.482 26.232)">
      <g id="Group_331" data-name="Group 331">
        <path id="Path_326" data-name="Path 326" d="M97.1,239.431h-2.07a.971.971,0,1,0,0,1.941H97.1a.971.971,0,0,0,0-1.941Z" transform="translate(-94.062 -239.431)" fill="#41a3f3"/>
      </g>
    </g>
    <g id="Group_334" data-name="Group 334" transform="translate(61.527 29.98)">
      <g id="Group_333" data-name="Group 333">
        <path id="Path_327" data-name="Path 327" d="M149.444,273.636h-3.106a.971.971,0,1,0,0,1.941h3.106a.971.971,0,1,0,0-1.941Z" transform="translate(-145.368 -273.636)" fill="#41a3f3"/>
      </g>
    </g>
    <g id="Group_336" data-name="Group 336" transform="translate(56.482 29.98)">
      <g id="Group_335" data-name="Group 335">
        <path id="Path_328" data-name="Path 328" d="M97.1,273.636h-2.07a.971.971,0,1,0,0,1.941H97.1a.971.971,0,0,0,0-1.941Z" transform="translate(-94.062 -273.636)" fill="#41a3f3"/>
      </g>
    </g>
    <g id="Group_338" data-name="Group 338" transform="translate(61.527 33.727)">
      <g id="Group_337" data-name="Group 337">
        <path id="Path_329" data-name="Path 329" d="M149.444,307.841h-3.106a.971.971,0,1,0,0,1.941h3.106a.971.971,0,1,0,0-1.941Z" transform="translate(-145.368 -307.841)" fill="#41a3f3"/>
      </g>
    </g>
    <g id="Group_340" data-name="Group 340" transform="translate(56.482 33.727)">
      <g id="Group_339" data-name="Group 339">
        <path id="Path_330" data-name="Path 330" d="M97.1,307.841h-2.07a.971.971,0,1,0,0,1.941H97.1a.971.971,0,0,0,0-1.941Z" transform="translate(-94.062 -307.841)" fill="#41a3f3"/>
      </g>
    </g>
    <g id="Group_342" data-name="Group 342" transform="translate(61.527 37.475)">
      <g id="Group_341" data-name="Group 341">
        <path id="Path_331" data-name="Path 331" d="M149.444,342.045h-3.106a.971.971,0,1,0,0,1.941h3.106a.971.971,0,1,0,0-1.941Z" transform="translate(-145.368 -342.045)" fill="#41a3f3"/>
      </g>
    </g>
    <g id="Group_344" data-name="Group 344" transform="translate(56.482 37.475)">
      <g id="Group_343" data-name="Group 343">
        <path id="Path_332" data-name="Path 332" d="M97.1,342.045h-2.07a.971.971,0,1,0,0,1.941H97.1a.971.971,0,0,0,0-1.941Z" transform="translate(-94.062 -342.045)" fill="#41a3f3"/>
      </g>
    </g>
    <g id="Group_346" data-name="Group 346" transform="translate(61.527 41.222)">
      <g id="Group_345" data-name="Group 345">
        <path id="Path_333" data-name="Path 333" d="M149.444,376.25h-3.106a.971.971,0,1,0,0,1.941h3.106a.971.971,0,1,0,0-1.941Z" transform="translate(-145.368 -376.25)" fill="#41a3f3"/>
      </g>
    </g>
    <g id="Group_348" data-name="Group 348" transform="translate(56.482 41.222)">
      <g id="Group_347" data-name="Group 347">
        <path id="Path_334" data-name="Path 334" d="M97.1,376.25h-2.07a.971.971,0,0,0,0,1.941H97.1a.971.971,0,0,0,0-1.941Z" transform="translate(-94.062 -376.25)" fill="#41a3f3"/>
      </g>
    </g>
    <g id="Group_350" data-name="Group 350" transform="translate(74.653 14.053)">
      <g id="Group_349" data-name="Group 349">
        <path id="Path_335" data-name="Path 335" d="M267.092,128.268h-1.035a.971.971,0,0,0,0,1.941h1.035a.971.971,0,0,0,0-1.941Z" transform="translate(-265.086 -128.268)" fill="#41a3f3"/>
      </g>
    </g>
    <g id="Group_352" data-name="Group 352" transform="translate(79.322 14.053)">
      <g id="Group_351" data-name="Group 351">
        <path id="Path_336" data-name="Path 336" d="M309.847,128.268h-1.035a.971.971,0,0,0,0,1.941h1.035a.971.971,0,1,0,0-1.941Z" transform="translate(-307.841 -128.268)" fill="#41a3f3"/>
      </g>
    </g>
    <g id="Group_354" data-name="Group 354" transform="translate(69.983 14.053)">
      <g id="Group_353" data-name="Group 353">
        <path id="Path_337" data-name="Path 337" d="M224.336,128.268H223.3a.971.971,0,1,0,0,1.941h1.035a.971.971,0,0,0,0-1.941Z" transform="translate(-222.33 -128.268)" fill="#41a3f3"/>
      </g>
    </g>
    <g id="Group_356" data-name="Group 356" transform="translate(64.934 10.306)">
      <g id="Group_355" data-name="Group 355">
        <path id="Path_338" data-name="Path 338" d="M190.9,94.063H180.544a.971.971,0,0,0,0,1.941H190.9a.971.971,0,0,0,0-1.941Z" transform="translate(-179.573 -94.063)" fill="#41a3f3"/>
      </g>
    </g>
    <g id="Group_358" data-name="Group 358" transform="translate(51.306)">
      <g id="Group_357" data-name="Group 357">
        <path id="Path_339" data-name="Path 339" d="M92.605,24.438H88.787V10.281a.881.881,0,0,0-.258-.623l-9.4-9.4A.881.881,0,0,0,78.506,0H54.067a2.764,2.764,0,0,0-2.761,2.761V47.878a2.764,2.764,0,0,0,2.761,2.761H68.225v1.939a3.705,3.705,0,0,0,3.7,3.7H92.6a3.705,3.705,0,0,0,3.7-3.7V28.14A3.705,3.705,0,0,0,92.605,24.438ZM79.387,3.009,85.778,9.4H81.326a1.941,1.941,0,0,1-1.939-1.939ZM68.225,28.14V48.877H54.067a1,1,0,0,1-1-1V2.761a1,1,0,0,1,1-1H77.625v5.7a3.705,3.705,0,0,0,3.7,3.7h5.7V24.438h-15.1A3.705,3.705,0,0,0,68.225,28.14ZM94.544,52.578a1.941,1.941,0,0,1-1.939,1.939H71.926a1.941,1.941,0,0,1-1.939-1.939V28.14A1.941,1.941,0,0,1,71.926,26.2H92.605a1.941,1.941,0,0,1,1.939,1.939Z" transform="translate(-51.306)" fill="#41a3f3"/>
      </g>
    </g>
    <g id="Group_360" data-name="Group 360" transform="translate(69.52 27.765)">
      <g id="Group_359" data-name="Group 359" transform="translate(0)">
        <path id="Path_340" data-name="Path 340" d="M260.071,256.533H241.438a2.008,2.008,0,0,0-2.006,2.006v4.141a2.008,2.008,0,0,0,2.006,2.006h18.633a2.008,2.008,0,0,0,2.006-2.006v-4.141A2.008,2.008,0,0,0,260.071,256.533Zm.065,6.147a.065.065,0,0,1-.065.065H241.438a.065.065,0,0,1-.065-.065v-4.141a.065.065,0,0,1,.065-.065h18.633a.065.065,0,0,1,.065.065v4.141Z" transform="translate(-239.432 -256.533)" fill="#41a3f3"/>
      </g>
    </g>
    <g id="Group_362" data-name="Group 362" transform="translate(71.692 38.113)">
      <g id="Group_361" data-name="Group 361" transform="translate(0)">
        <path id="Path_341" data-name="Path 341" d="M243.508,350.6h-2.07a2.008,2.008,0,0,0-2.006,2.006v2.07a2.008,2.008,0,0,0,2.006,2.006h2.07a2.008,2.008,0,0,0,2.006-2.006V352.6A2.008,2.008,0,0,0,243.508,350.6Zm.065,4.076a.065.065,0,0,1-.065.065h-2.07a.065.065,0,0,1-.065-.065V352.6a.065.065,0,0,1,.065-.065h2.07a.065.065,0,0,1,.065.065v2.07Z" transform="translate(-239.432 -350.596)" fill="#41a3f3"/>
      </g>
    </g>
    <g id="Group_364" data-name="Group 364" transform="translate(86.084 38.113)">
      <g id="Group_363" data-name="Group 363">
        <path id="Path_342" data-name="Path 342" d="M380.327,350.6h-2.07a2.008,2.008,0,0,0-2.006,2.006v2.07a2.008,2.008,0,0,0,2.006,2.006h2.07a2.008,2.008,0,0,0,2.006-2.006V352.6A2.008,2.008,0,0,0,380.327,350.6Zm.065,4.076a.065.065,0,0,1-.065.065h-2.07a.065.065,0,0,1-.065-.065V352.6a.065.065,0,0,1,.065-.065h2.07a.065.065,0,0,1,.065.065Z" transform="translate(-376.251 -350.596)" fill="#41a3f3"/>
      </g>
    </g>
    <g id="Group_366" data-name="Group 366" transform="translate(79.105 38.113)">
      <g id="Group_365" data-name="Group 365">
        <path id="Path_343" data-name="Path 343" d="M311.918,350.6h-2.07a2.008,2.008,0,0,0-2.006,2.006v2.07a2.008,2.008,0,0,0,2.006,2.006h2.07a2.008,2.008,0,0,0,2.006-2.006V352.6A2.008,2.008,0,0,0,311.918,350.6Zm.065,4.076a.065.065,0,0,1-.065.065h-2.07a.065.065,0,0,1-.065-.065V352.6a.065.065,0,0,1,.065-.065h2.07a.065.065,0,0,1,.065.065Z" transform="translate(-307.842 -350.596)" fill="#41a3f3"/>
      </g>
    </g>
    <g id="Group_368" data-name="Group 368" transform="translate(71.692 45.022)">
      <g id="Group_367" data-name="Group 367" transform="translate(0)">
        <path id="Path_344" data-name="Path 344" d="M243.508,419.006h-2.07a2.008,2.008,0,0,0-2.006,2.006v2.07a2.008,2.008,0,0,0,2.006,2.006h2.07a2.008,2.008,0,0,0,2.006-2.006v-2.07A2.008,2.008,0,0,0,243.508,419.006Zm.065,4.076a.065.065,0,0,1-.065.065h-2.07a.065.065,0,0,1-.065-.065v-2.07a.065.065,0,0,1,.065-.065h2.07a.065.065,0,0,1,.065.065v2.07Z" transform="translate(-239.432 -419.006)" fill="#41a3f3"/>
      </g>
    </g>
    <g id="Group_370" data-name="Group 370" transform="translate(86.084 45.022)">
      <g id="Group_369" data-name="Group 369">
        <path id="Path_345" data-name="Path 345" d="M380.327,419.006h-2.07a2.008,2.008,0,0,0-2.006,2.006v2.07a2.008,2.008,0,0,0,2.006,2.006h2.07a2.008,2.008,0,0,0,2.006-2.006v-2.07A2.008,2.008,0,0,0,380.327,419.006Zm.065,4.076a.065.065,0,0,1-.065.065h-2.07a.065.065,0,0,1-.065-.065v-2.07a.065.065,0,0,1,.065-.065h2.07a.065.065,0,0,1,.065.065Z" transform="translate(-376.251 -419.006)" fill="#41a3f3"/>
      </g>
    </g>
    <g id="Group_372" data-name="Group 372" transform="translate(79.105 45.022)">
      <g id="Group_371" data-name="Group 371">
        <path id="Path_346" data-name="Path 346" d="M311.918,419.006h-2.07a2.008,2.008,0,0,0-2.006,2.006v2.07a2.008,2.008,0,0,0,2.006,2.006h2.07a2.008,2.008,0,0,0,2.006-2.006v-2.07A2.008,2.008,0,0,0,311.918,419.006Zm.065,4.076a.065.065,0,0,1-.065.065h-2.07a.065.065,0,0,1-.065-.065v-2.07a.065.065,0,0,1,.065-.065h2.07a.065.065,0,0,1,.065.065Z" transform="translate(-307.842 -419.006)" fill="#41a3f3"/>
      </g>
    </g>
  </g>
</svg>
