<svg xmlns="http://www.w3.org/2000/svg" width="45" height="56.22" viewBox="0 0 45 56.22">
  <g id="briefing_1_" data-name="briefing (1)" transform="translate(-51.091)">
    <g id="Group_290" data-name="Group 290" transform="translate(51.091 13.037)">
      <g id="Group_289" data-name="Group 289">
        <path id="Path_292" data-name="Path 292" d="M83.988,160.262H52.741V119.555a.825.825,0,0,0-1.65,0v40.982a1.377,1.377,0,0,0,1.375,1.375H83.988a.825.825,0,1,0,0-1.65Z" transform="translate(-51.091 -118.73)" fill="#41a3f3"/>
      </g>
    </g>
    <g id="Group_292" data-name="Group 292" transform="translate(51.091)">
      <g id="Group_291" data-name="Group 291">
        <path id="Path_293" data-name="Path 293" d="M95.857,7.461,88.843.25A.825.825,0,0,0,88.252,0H52.466a1.377,1.377,0,0,0-1.375,1.375V7.811a.825.825,0,1,0,1.65,0V1.65H87.9l6.537,6.721v46.2H89.764a.825.825,0,1,0,0,1.65h4.952a1.377,1.377,0,0,0,1.375-1.375V8.037A.825.825,0,0,0,95.857,7.461Z" transform="translate(-51.091)" fill="#41a3f3"/>
      </g>
    </g>
    <g id="Group_294" data-name="Group 294" transform="translate(87.427 0)">
      <g id="Group_293" data-name="Group 293">
        <path id="Path_294" data-name="Path 294" d="M390.434,7.462,383.421.25A.825.825,0,0,0,382,.826V8.037a.825.825,0,0,0,.825.825h7.014a.825.825,0,0,0,.591-1.4Zm-6.78-.25V2.857l4.235,4.354h-4.235Z" transform="translate(-382.004 -0.001)" fill="#41a3f3"/>
      </g>
    </g>
    <g id="Group_296" data-name="Group 296" transform="translate(56.153 4.381)">
      <g id="Group_295" data-name="Group 295">
        <path id="Path_295" data-name="Path 295" d="M118.446,39.9H98.564a1.377,1.377,0,0,0-1.375,1.375v4.561a1.377,1.377,0,0,0,1.375,1.375h19.882a1.377,1.377,0,0,0,1.375-1.375V41.274A1.377,1.377,0,0,0,118.446,39.9Zm-.275,5.661H98.839v-4.01h19.332Z" transform="translate(-97.189 -39.899)" fill="#41a3f3"/>
      </g>
    </g>
    <g id="Group_298" data-name="Group 298" transform="translate(57.129 15.843)">
      <g id="Group_297" data-name="Group 297">
        <path id="Path_296" data-name="Path 296" d="M113.344,144.448a.825.825,0,0,0-1.156.158l-3.646,4.8-1.095-.958a.825.825,0,0,0-1.087,1.242l1.76,1.54a.826.826,0,0,0,.543.2c.028,0,.055,0,.083,0a.825.825,0,0,0,.574-.322l4.181-5.5A.825.825,0,0,0,113.344,144.448Z" transform="translate(-106.079 -144.28)" fill="#41a3f3"/>
      </g>
    </g>
    <g id="Group_300" data-name="Group 300" transform="translate(67.62 15.842)">
      <g id="Group_299" data-name="Group 299">
        <path id="Path_297" data-name="Path 297" d="M223.229,144.277H202.446a.825.825,0,0,0,0,1.65h20.783a.825.825,0,1,0,0-1.65Z" transform="translate(-201.621 -144.277)" fill="#41a3f3"/>
      </g>
    </g>
    <g id="Group_302" data-name="Group 302" transform="translate(67.62 18.593)">
      <g id="Group_301" data-name="Group 301">
        <path id="Path_298" data-name="Path 298" d="M215.94,169.326H202.446a.825.825,0,0,0,0,1.65H215.94a.825.825,0,0,0,0-1.65Z" transform="translate(-201.621 -169.326)" fill="#41a3f3"/>
      </g>
    </g>
    <g id="Group_304" data-name="Group 304" transform="translate(67.62 21.343)">
      <g id="Group_303" data-name="Group 303">
        <path id="Path_299" data-name="Path 299" d="M219.02,194.376H202.446a.825.825,0,0,0,0,1.65H219.02a.825.825,0,1,0,0-1.65Z" transform="translate(-201.621 -194.376)" fill="#41a3f3"/>
      </g>
    </g>
    <g id="Group_306" data-name="Group 306" transform="translate(57.129 27.065)">
      <g id="Group_305" data-name="Group 305">
        <path id="Path_300" data-name="Path 300" d="M113.344,246.65a.825.825,0,0,0-1.156.158l-3.646,4.8-1.095-.958a.825.825,0,1,0-1.087,1.242l1.76,1.54a.826.826,0,0,0,.543.2c.028,0,.055,0,.083,0a.825.825,0,0,0,.574-.322l4.181-5.5A.825.825,0,0,0,113.344,246.65Z" transform="translate(-106.079 -246.482)" fill="#41a3f3"/>
      </g>
    </g>
    <g id="Group_308" data-name="Group 308" transform="translate(67.62 27.065)">
      <g id="Group_307" data-name="Group 307">
        <path id="Path_301" data-name="Path 301" d="M223.229,246.481H202.446a.825.825,0,0,0,0,1.65h20.783a.825.825,0,1,0,0-1.65Z" transform="translate(-201.621 -246.481)" fill="#41a3f3"/>
      </g>
    </g>
    <g id="Group_310" data-name="Group 310" transform="translate(67.62 29.815)">
      <g id="Group_309" data-name="Group 309">
        <path id="Path_302" data-name="Path 302" d="M215.94,271.53H202.446a.825.825,0,0,0,0,1.65H215.94a.825.825,0,0,0,0-1.65Z" transform="translate(-201.621 -271.53)" fill="#41a3f3"/>
      </g>
    </g>
    <g id="Group_312" data-name="Group 312" transform="translate(67.62 32.566)">
      <g id="Group_311" data-name="Group 311">
        <path id="Path_303" data-name="Path 303" d="M219.02,296.579H202.446a.825.825,0,1,0,0,1.65H219.02a.825.825,0,1,0,0-1.65Z" transform="translate(-201.621 -296.579)" fill="#41a3f3"/>
      </g>
    </g>
    <g id="Group_314" data-name="Group 314" transform="translate(67.62 38.287)">
      <g id="Group_313" data-name="Group 313">
        <path id="Path_304" data-name="Path 304" d="M223.229,348.685H202.446a.825.825,0,0,0,0,1.65h20.783a.825.825,0,1,0,0-1.65Z" transform="translate(-201.621 -348.685)" fill="#41a3f3"/>
      </g>
    </g>
    <g id="Group_316" data-name="Group 316" transform="translate(67.62 41.038)">
      <g id="Group_315" data-name="Group 315">
        <path id="Path_305" data-name="Path 305" d="M215.94,373.734H202.446a.825.825,0,0,0,0,1.65H215.94a.825.825,0,0,0,0-1.65Z" transform="translate(-201.621 -373.734)" fill="#41a3f3"/>
      </g>
    </g>
    <g id="Group_318" data-name="Group 318" transform="translate(67.62 43.788)">
      <g id="Group_317" data-name="Group 317">
        <path id="Path_306" data-name="Path 306" d="M219.02,398.783H202.446a.825.825,0,1,0,0,1.65H219.02a.825.825,0,1,0,0-1.65Z" transform="translate(-201.621 -398.783)" fill="#41a3f3"/>
      </g>
    </g>
    <g id="Group_320" data-name="Group 320" transform="translate(57.129 38.287)">
      <g id="Group_319" data-name="Group 319">
        <path id="Path_307" data-name="Path 307" d="M111.853,348.685h-4.4a1.377,1.377,0,0,0-1.375,1.375v4.4a1.377,1.377,0,0,0,1.375,1.375h4.4a1.377,1.377,0,0,0,1.375-1.375v-4.4A1.377,1.377,0,0,0,111.853,348.685Zm-.275,5.5h-3.851v-3.851h3.851Z" transform="translate(-106.077 -348.685)" fill="#41a3f3"/>
      </g>
    </g>
  </g>
</svg>
