<svg xmlns="http://www.w3.org/2000/svg" width="45" height="45" viewBox="0 0 45 45">
  <path id="puzzle" d="M42.672,0H2.328A2.328,2.328,0,0,0,0,2.328V42.672A2.328,2.328,0,0,0,2.328,45H42.672A2.328,2.328,0,0,0,45,42.672V2.328A2.328,2.328,0,0,0,42.672,0Zm.776,2.328v19.4h-7.2a.776.776,0,0,0-.621,1.241,4.383,4.383,0,0,1,.838,2.638c0,2.139-1.392,3.879-3.1,3.879s-3.1-1.74-3.1-3.879a4.383,4.383,0,0,1,.836-2.638.776.776,0,0,0-.621-1.241h-7.2V15.845a6.194,6.194,0,0,0,2.328.448c2.995,0,5.431-2.088,5.431-4.655S28.6,6.983,25.6,6.983a6.194,6.194,0,0,0-2.328.448V1.552h19.4A.776.776,0,0,1,43.448,2.328Zm-41.9,0a.776.776,0,0,1,.776-.776h19.4v7.2a.776.776,0,0,0,1.241.621A4.392,4.392,0,0,1,25.6,8.534c2.139,0,3.879,1.392,3.879,3.1s-1.74,3.1-3.879,3.1a4.391,4.391,0,0,1-2.638-.836.776.776,0,0,0-1.241.621v7.2H15.845a6.194,6.194,0,0,0,.448-2.328c0-2.994-2.088-5.431-4.655-5.431S6.983,16.4,6.983,19.4a6.194,6.194,0,0,0,.448,2.328H1.552Zm0,40.345v-19.4h7.2a.776.776,0,0,0,.621-1.241A4.383,4.383,0,0,1,8.534,19.4c0-2.139,1.392-3.879,3.1-3.879s3.1,1.74,3.1,3.879a4.383,4.383,0,0,1-.836,2.638.776.776,0,0,0,.621,1.241h7.2v5.879a6.194,6.194,0,0,0-2.328-.448c-2.995,0-5.431,2.088-5.431,4.655S16.4,38.017,19.4,38.017a6.194,6.194,0,0,0,2.328-.448v5.879H2.328A.776.776,0,0,1,1.552,42.672Zm41.9,0a.776.776,0,0,1-.776.776h-19.4v-7.2a.776.776,0,0,0-1.241-.621,4.392,4.392,0,0,1-2.638.838c-2.139,0-3.879-1.392-3.879-3.1s1.74-3.1,3.879-3.1a4.391,4.391,0,0,1,2.638.836.776.776,0,0,0,1.241-.621v-7.2h5.879a6.194,6.194,0,0,0-.448,2.328c0,2.994,2.088,5.431,4.655,5.431S38.017,28.6,38.017,25.6a6.194,6.194,0,0,0-.448-2.328h5.879Zm0,0" fill="#41a3f3"/>
</svg>
