<svg xmlns="http://www.w3.org/2000/svg" width="45" height="38.007" viewBox="0 0 45 38.007">
  <g id="ad" transform="translate(0 -0.5)">
    <path id="Path_308" data-name="Path 308" d="M55.693,33.931a.774.774,0,1,1-.775-.775A.775.775,0,0,1,55.693,33.931Zm0,0" transform="translate(-49.386 -29.786)" fill="#41a3f3"/>
    <path id="Path_309" data-name="Path 309" d="M87.068,33.931a.774.774,0,1,1-.775-.775A.775.775,0,0,1,87.068,33.931Zm0,0" transform="translate(-78.003 -29.786)" fill="#41a3f3"/>
    <path id="Path_310" data-name="Path 310" d="M118.443,33.931a.774.774,0,1,1-.774-.775A.774.774,0,0,1,118.443,33.931Zm0,0" transform="translate(-106.621 -29.786)" fill="#41a3f3"/>
    <path id="Path_311" data-name="Path 311" d="M41.714,8.319H40.285V3.871A3.375,3.375,0,0,0,36.914.5H3.371A3.375,3.375,0,0,0,0,3.871V28.254a3.375,3.375,0,0,0,3.371,3.371h2.57v3.6a3.29,3.29,0,0,0,3.286,3.286H33.062a.659.659,0,0,0,0-1.319H9.226a1.969,1.969,0,0,1-1.967-1.967v-3.6H36.914a3.375,3.375,0,0,0,3.371-3.371V9.637h1.429A1.97,1.97,0,0,1,43.682,11.6V35.221a1.97,1.97,0,0,1-1.968,1.968H36.123a.659.659,0,1,0,0,1.318h5.591A3.29,3.29,0,0,0,45,35.221V11.6A3.29,3.29,0,0,0,41.714,8.319ZM38.967,28.254a2.055,2.055,0,0,1-2.053,2.053H3.371a2.055,2.055,0,0,1-2.053-2.053V7.789H38.967Zm0-21.783H1.318v-2.6A2.055,2.055,0,0,1,3.371,1.818H36.914a2.055,2.055,0,0,1,2.053,2.053Zm0,0" fill="#41a3f3"/>
    <path id="Path_312" data-name="Path 312" d="M295.228,137.092h8.225a1.389,1.389,0,0,0,1.388-1.388v-14.14a1.389,1.389,0,0,0-1.388-1.388h-8.225a1.389,1.389,0,0,0-1.388,1.388v4.109a.659.659,0,0,0,1.319,0v-4.109a.069.069,0,0,1,.069-.069h8.225a.07.07,0,0,1,.069.069V135.7a.07.07,0,0,1-.069.07h-8.225a.069.069,0,0,1-.069-.07v-6.948a.659.659,0,0,0-1.319,0V135.7A1.39,1.39,0,0,0,295.228,137.092Zm0,0" transform="translate(-268.014 -109.157)" fill="#41a3f3"/>
    <path id="Path_313" data-name="Path 313" d="M234.772,233.064h1.719a.659.659,0,1,0,0-1.318h-1.719a.659.659,0,0,0,0,1.318Zm0,0" transform="translate(-213.537 -210.922)" fill="#41a3f3"/>
    <path id="Path_314" data-name="Path 314" d="M47.3,233.064H59.545a.659.659,0,1,0,0-1.318H47.3a.659.659,0,0,0,0,1.318Zm0,0" transform="translate(-42.545 -210.922)" fill="#41a3f3"/>
    <path id="Path_315" data-name="Path 315" d="M53.1,297.641H47.3a.659.659,0,0,0,0,1.318H53.1a.659.659,0,0,0,0-1.318Zm0,0" transform="translate(-42.545 -271.025)" fill="#41a3f3"/>
    <path id="Path_316" data-name="Path 316" d="M162.841,297.641h-1.416a.659.659,0,1,0,0,1.318h1.416a.659.659,0,0,0,0-1.318Zm0,0" transform="translate(-146.636 -271.025)" fill="#41a3f3"/>
    <path id="Path_317" data-name="Path 317" d="M65.5,264.691H47.3a.659.659,0,0,0,0,1.318H65.5a.659.659,0,1,0,0-1.318Zm0,0" transform="translate(-42.545 -240.971)" fill="#41a3f3"/>
    <path id="Path_318" data-name="Path 318" d="M41.781,129.42a.515.515,0,0,1,.018-.092l1.778-5.794a.748.748,0,0,1,.765-.405c.35,0,.691.129.774.405l1.778,5.794a.4.4,0,0,1,.019.092c0,.286-.433.5-.755.5-.2,0-.359-.065-.405-.24l-.35-1.225H43.292l-.35,1.225c-.046.175-.2.24-.405.24C42.214,129.917,41.781,129.715,41.781,129.42Zm3.362-1.907-.8-2.828-.8,2.828Zm0,0" transform="translate(-38.109 -111.851)" fill="#41a3f3"/>
    <path id="Path_319" data-name="Path 319" d="M109.542,123.758a1.924,1.924,0,0,1,2.165,2.109v2.515a1.925,1.925,0,0,1-2.165,2.109h-1.63c-.313,0-.525-.175-.525-.368v-6c0-.194.212-.368.525-.368Zm-.958,1.05v4.633h.958c.608,0,.967-.341.967-1.059v-2.515c0-.718-.359-1.059-.967-1.059Zm0,0" transform="translate(-97.948 -112.425)" fill="#41a3f3"/>
    <path id="Path_320" data-name="Path 320" d="M167.525,128.217c0-1.382-2.957-.958-2.957-3.141,0-1.372,1.179-1.842,2.238-1.842.544,0,1.75.129,1.75.737,0,.212-.147.635-.479.635-.286,0-.5-.35-1.271-.35-.663,0-1.041.267-1.041.709,0,1.142,2.957.746,2.957,3.131a1.946,1.946,0,0,1-2.192,2c-1.207,0-2.128-.608-2.128-1.142,0-.258.24-.645.525-.645.377,0,.626.709,1.566.709C167.046,129.019,167.525,128.77,167.525,128.217Zm0,0" transform="translate(-149.953 -111.947)" fill="#41a3f3"/>
  </g>
</svg>
