<svg xmlns="http://www.w3.org/2000/svg" width="42.38" height="52.985" viewBox="0 0 42.38 52.985">
  <g id="Group_5434" data-name="Group 5434" transform="translate(-339.326 -214.014)">
    <path id="Path_4158" data-name="Path 4158" d="M-634.371,610.394h-35.422a3.483,3.483,0,0,1-3.479-3.479v-7.328a.821.821,0,0,1,.821-.821.821.821,0,0,1,.821.821v7.328a1.839,1.839,0,0,0,1.837,1.837h35.422a1.839,1.839,0,0,0,1.837-1.837v-39.1l-8.988-8.769h-28.271a1.839,1.839,0,0,0-1.837,1.837v35.146a.821.821,0,0,1-.821.821.821.821,0,0,1-.821-.821V560.888a3.483,3.483,0,0,1,3.479-3.479h28.6a.82.82,0,0,1,.573.233l9.475,9.244a.82.82,0,0,1,.248.587v39.442A3.483,3.483,0,0,1-634.371,610.394Z" transform="translate(1012.598 -343.395)" fill="#41a3f3"/>
    <path id="Path_4159" data-name="Path 4159" d="M-434.546,568.294h-3.669a.821.821,0,0,1-.821-.821.821.821,0,0,1,.821-.821h1.652l-6.641-6.478-.011,6.478h1.7a.821.821,0,0,1,.821.821.821.821,0,0,1-.821.821h-2.523a.821.821,0,0,1-.581-.241.821.821,0,0,1-.24-.581l.016-9.244a.821.821,0,0,1,.5-.755.821.821,0,0,1,.891.169l9.475,9.244a.821.821,0,0,1,.187.9A.82.82,0,0,1-434.546,568.294Z" transform="translate(815.432 -343.395)" fill="#41a3f3"/>
    <path id="Path_4160" data-name="Path 4160" d="M-482.018,654.386h-11.675a.821.821,0,0,1-.821-.821.821.821,0,0,1,.821-.821h11.675a.821.821,0,0,1,.821.821A.821.821,0,0,1-482.018,654.386Z" transform="translate(858.295 -425.689)" fill="#41a3f3" opacity="0.5"/>
    <path id="Path_4161" data-name="Path 4161" d="M-481.881,688.532h-11.812a.821.821,0,0,1-.821-.821.821.821,0,0,1,.821-.821h11.812a.821.821,0,0,1,.821.821A.821.821,0,0,1-481.881,688.532Z" transform="translate(858.295 -455.163)" fill="#41a3f3" opacity="0.5"/>
    <path id="Path_4162" data-name="Path 4162" d="M-599.625,724.668H-630.1a.821.821,0,0,1-.821-.821.821.821,0,0,1,.821-.821h30.472a.821.821,0,0,1,.821.821A.821.821,0,0,1-599.625,724.668Z" transform="translate(976.037 -486.356)" fill="#41a3f3" opacity="0.5"/>
    <path id="Path_4163" data-name="Path 4163" d="M-621.545,851.143H-628.1a.821.821,0,0,1-.821-.821.821.821,0,0,1,.821-.821h6.551a.821.821,0,0,1,.821.821A.821.821,0,0,1-621.545,851.143Z" transform="translate(974.311 -595.529)" fill="#41a3f3" opacity="0.8"/>
    <rect id="Rectangle_986" data-name="Rectangle 986" width="14.636" height="9.491" rx="2.333" transform="translate(345.395 223.331)" fill="#41a3f3" opacity="0.5"/>
    <rect id="Rectangle_987" data-name="Rectangle 987" width="31.548" height="9.491" rx="2.333" transform="translate(345.395 240.877)" fill="#41a3f3" opacity="0.5"/>
    <g id="Group_5433" data-name="Group 5433" transform="translate(359.85 245.952)">
      <path id="Path_2176" data-name="Path 2176" d="M-27.283,945.385a8.07,8.07,0,0,1-8.061-8.061,8.07,8.07,0,0,1,8.061-8.061,8.07,8.07,0,0,1,8.061,8.061A8.07,8.07,0,0,1-27.283,945.385Z" transform="translate(35.344 -929.263)" fill="#41a3f3"/>
    </g>
    <g id="noun_Safety_1930841" transform="translate(352.168 246.709)">
      <g id="Group_5399" data-name="Group 5399" transform="translate(12 2.5)">
        <g id="Group_5398" data-name="Group 5398" transform="translate(0 0)">
          <path id="Path_4116" data-name="Path 4116" d="M19.518,4.241a4.839,4.839,0,0,1-3.034-1.4l-.209-.219a.454.454,0,0,0-.626,0l-.209.219a4.839,4.839,0,0,1-3.034,1.4A.442.442,0,0,0,12,4.679V5.941a7.389,7.389,0,0,0,3.744,6.413.4.4,0,0,0,.219.052.56.56,0,0,0,.219-.052,7.389,7.389,0,0,0,3.744-6.413V4.669A.425.425,0,0,0,19.518,4.241Zm-.469,1.7a6.48,6.48,0,0,1-3.087,5.516,6.493,6.493,0,0,1-3.087-5.516V5.065a5.723,5.723,0,0,0,3.087-1.512,5.688,5.688,0,0,0,3.087,1.512Z" transform="translate(-12 -2.5)" fill="#fff"/>
          <path id="Path_4117" data-name="Path 4117" d="M32.451,36.01a.442.442,0,0,0-.626.626l1.105,1.105a.442.442,0,0,0,.313.125h.01a.422.422,0,0,0,.313-.146l1.94-2.117a.436.436,0,0,0-.647-.584l-1.627,1.762Z" transform="translate(-29.646 -31.495)" fill="#fff"/>
        </g>
      </g>
    </g>
  </g>
</svg>
