<svg xmlns="http://www.w3.org/2000/svg" width="60.148" height="55.338" viewBox="0 0 60.148 55.338"><defs><style>.a{fill:#fff;}</style></defs><path class="a" d="M8.269-1.332h43.61a8.278,8.278,0,0,1,8.269,8.269V33.626a8.279,8.279,0,0,1-8.24,8.269V54.006L34.5,41.895H8.269A8.279,8.279,0,0,1,0,33.626V6.937A8.278,8.278,0,0,1,8.269-1.332ZM3.524,33.626a4.751,4.751,0,0,0,4.745,4.745H35.61L48.384,47.26V38.371h3.495a4.751,4.751,0,0,0,4.745-4.745V6.937a4.75,4.75,0,0,0-4.745-4.745H8.269A4.75,4.75,0,0,0,3.524,6.937Zm0,0" transform="translate(0 1.332)"/><path class="a" d="M199.245,131.172H171.293V134.7h27.952Zm0,0" transform="translate(-155.195 -118.719)"/><path class="a" d="M199.245,211.172H171.293V214.7h27.952Zm0,0" transform="translate(-155.195 -191.2)"/><path class="a" d="M199.245,291.172H171.293V294.7h27.952Zm0,0" transform="translate(-155.195 -263.682)"/></svg>